{
.appVersion = "3108";
.formatVersion = 3;
DisplayStrings = (
"ÁÁÄÄÉÉËËÍÍÏÏÓÓÖÖÚÚÜÜÝÝááääééëëííïïóóööúúüüýýÿÿЁЁЇЇёёїїΪΪ"
);
customParameters = (
{
name = note;
value = "2020-7-9: Created with FontForge (http://fontforge.org)";
},
{
name = versionString;
value = "Version 2021.";
},
{
name = openTypeOS2FamilyClass;
value = (
0,
0
);
},
{
name = fsType;
value = (
);
},
{
name = vendorID;
value = PfEd;
},
{
name = blueScale;
value = 0.05;
}
);
date = "2020-07-09 19:01:38 +0000";
familyName = "Una Script";
featurePrefixes = (
{
code = "languagesystem DFLT dflt;
languagesystem latn dflt;
";
name = Languagesystems;
},
{
code = "# GPOS 
lookup abvmAboveBaseMarkinLatinlookup1 {
  lookupflag 0;
  
  
  
  
  
  
  pos base [\\A ] <anchor 400 44> mark @bottom
	<anchor 362 753> mark @top;
  pos base [\\I ] <anchor 110 732> mark @top
	<anchor 302 110> mark @bottom;
  pos base [\\O ] <anchor 382 736> mark @top
	<anchor 408 86> mark @bottom;
  pos base [\\U ] <anchor 292 759> mark @top
	<anchor 458 9> mark @bottom;
  pos base [\\a ] <anchor 330 522> mark @top
	<anchor 296 -20> mark @bottom;
  pos base [\\e ] <anchor 392 598> mark @top
	<anchor 376 -64> mark @bottom;
  pos base [\\o ] <anchor 362 594> mark @top
	<anchor 358 -20> mark @bottom;
  pos base [\\u ] <anchor 252 530> mark @top
	<anchor 316 -18> mark @bottom;
  pos base [\\dotlessi ] <anchor 104 509> mark @top
	<anchor 212 -13> mark @bottom;
} abvmAboveBaseMarkinLatinlookup1;

lookup kernHorizontalKerninginLatinlookup0 {
  lookupflag 0;
    @kc1_first_1 = [\\zero \\O ];
    @kc1_first_2 = [\\seven \\F \\P \\Y \\Yacute ];
    @kc1_first_3 = [\\A \\Agrave \\Aacute \\Atilde \\Adieresis \\Aring ];
    @kc1_first_4 = [\\T ];
    @kc1_first_5 = [\\a \\c \\e \\m \\n \\o \\r \\s \\u \\v \\w \\agrave \\aacute \\atilde \\adieresis \\aring \\egrave 
	\\eacute \\edieresis \\ograve \\oacute \\otilde \\odieresis \\ugrave \\uacute 
	\\udieresis ];
    @kc1_first_6 = [\\q ];
    @kc1_first_7 = [\\g \\j \\y \\z \\yacute \\ydieresis ];

glyphs = (
{
glyphname = A;
layers = (
{
anchors = (
{
name = bottom;
pos = (400,44);
},
{
name = top;
pos = (362,753);
}
);
layerId = master01;
shapes = (
{
closed = 1;
nodes = (
(284,715,o),
(319,757,o),
(374,757,cs),
(406,757,o),
(436,741,o),
(452,711,cs),
(756,176,ls),
(764,162,o),
(768,148,o),
(768,132,cs),
(768,87,o),
(729,42,o),
(676,42,cs),
(644,42,o),
(614,60,o),
(598,88,cs),
(530,212,l),
(274,184,l),
(264,166,o),
(254,150,o),
(246,134,cs),
(196,46,o),
(176,30,o),
(158,18,cs),
(144,8,o),
(126,4,o),
(110,4,cs),
(65,4,o),
(20,41,o),
(20,94,cs),
(20,120,o),
(32,144,o),
(52,162,cs),
(64,174,o),
(92,226,o),
(128,294,cs),
(132,302,o),
(138,312,o),
(142,322,cs),
(152,350,o),
(168,376,o),
(182,408,cs),
(250,562,o),
(284,618,o),
(284,655,cs),
(284,667,ls)
);
},
{
closed = 1;
nodes = (
(436,384,l),
(396,452,l),
(388,428,o),
(384,402,o),
(374,376,c)
);
}
);
userData = {
com.fontlab.hintData = {
hhints = (
{
position = 4;
width = 21;
},
{
position = 737;
width = 20;
}
);
};
};
width = 788;
}
);
unicode = (65,1040,913);
},
{
glyphname = Aring;
layers = (
{
layerId = master01;
shapes = (
{
closed = 1;
nodes = (
(461,999,o),
(568,946,o),
(568,843,cs),
(568,789,o),
(552,743,o),
(524,707,cs),
(510,691,o),
(494,677,o),
(476,665,c),
(756,159,ls),
(764,145,o),
(768,131,o),
(768,115,cs),
(768,70,o),
(729,25,o),
(676,25,cs),
(644,25,o),
(614,43,o),
(598,71,cs),
(530,195,l),
(274,167,l),
(264,149,o),
(254,133,o),
(246,117,cs),
(196,29,o),
(176,13,o),
(158,1,cs),
(144,-9,o),
(126,-13,o),
(110,-13,cs),
(65,-13,o),
(20,24,o),
(20,77,cs),
(20,103,o),
(36,123,o),
(52,145,cs),
(62,159,o),
(94,207,o),
(128,275,cs),
(132,283,o),
(136,295,o),
(142,305,cs),
(156,331,o),
(168,359,o),
(182,391,cs),
(236,513,o),
(264,595,o),
(272,643,c),
(248,649,o),
(226,657,o),
(210,675,cs),
(184,699,o),
(170,733,o),
(170,775,cs),
(170,833,o),
(214,893,o),
(284,935,c),
(284,941,ls),
(284,971,o),
(312,999,o),
(346,999,cs)
);
},
{
closed = 1;
nodes = (
(416,755,o),
(446,779,o),
(446,843,cs),
(446,853,o),
(436,861,o),
(424,867,c),
(382,855,o),
(348,837,o),
(322,815,cs),
(298,793,o),
(294,779,o),
(292,775,cs),
(290,765,o),
(292,763,o),
(296,759,cs),
(296,757,o),
(298,757,o),
(308,753,c),
(316,751,o),
(328,749,o),
(348,749,cs),
(356,749,l)
);
},
{
closed = 1;
nodes = (
(436,367,l),
(396,435,l),
(388,411,o),
(376,385,o),
(366,359,c)
);
}
);
userData = {
com.fontlab.hintData = {
hhints = (
{
position = -13;
width = 59;
}
);
vhints = (
{
position = 446;
width = 122;
}
);
};
};
width = 788;
}
);
unicode = 197;
},
{
glyphname = AE;
layers = (
{
layerId = master01;
shapes = (
{
closed = 1;
nodes = (
(861,748,o),
(904,711,o),
(904,658,cs),
(904,616,o),
(874,578,o),
(830,570,cs),
(786,562,o),
(740,558,o),
(692,558,cs),
(652,558,o),
(612,560,o),
(570,564,c),
(576,528,o),
(582,490,o),
(586,452,c),
(600,452,o),
(614,452,o),
(628,452,cs),
(708,452,o),
(782,444,o),
(856,432,cs),
(900,424,o),
(932,386,o),
(932,344,cs),
(932,340,o),
(930,334,o),
(930,330,cs),
(922,284,o),
(884,252,o),
(842,252,cs),
(838,252,o),
(832,254,o),
(828,254,cs),
(764,264,o),
(698,272,o),
(632,272,cs),
(610,272,l),
(612,234,o),
(616,200,o),
(616,166,c),
(652,170,o),
(684,172,o),
(718,172,cs),
(770,172,o),
(822,166,o),
(880,156,cs),
(924,148,o),
(956,112,o),
(956,68,cs),
(956,62,o),
(954,58,o),
(954,52,cs),
(946,10,o),
(908,-22,o),
(866,-22,cs),
(862,-22,o),
(856,-22,o),
(850,-20,cs),
(800,-12,o),
(756,-8,o),
(714,-8,cs),
(660,-8,o),
(606,-14,o),
(540,-24,cs),
(536,-26,o),
(530,-26,o),
(526,-26,cs),
(504,-26,o),
(482,-18,o),
(464,-2,cs),
(446,16,o),
(436,42,o),
(436,66,cs),
(436,74,l),
(438,86,o),
(438,100,o),
(438,118,cs),
(438,150,o),
(436,190,o),
(432,238,c),
(342,204,o),
(258,142,o),
(186,30,cs),
(168,4,o),
(140,-10,o),
(110,-10,cs),
(94,-10,o),
(78,-6,o),
(62,4,cs),
(34,20,o),
(20,50,o),
(20,80,cs),
(20,96,o),
(24,112,o),
(32,126,cs),
(140,308,o),
(228,496,o),
(302,704,cs),
(314,742,o),
(350,764,o),
(388,764,cs),
(398,764,l),
(422,760,l),
(518,750,o),
(612,738,o),
(692,738,cs),
(730,738,o),
(764,740,o),
(796,746,cs),
(802,748,o),
(808,748,o),
(814,748,cs)
);
},
{
closed = 1;
nodes = (
(390,414,o),
(400,418,o),
(410,420,c),
(408,436,o),
(404,450,o),
(402,464,c),
(396,446,o),
(388,430,o),
(380,412,c)
);
}
);
userData = {
com.fontlab.hintData = {
hhints = (
{
position = -22;
width = 178;
},
{
position = -8;
width = 180;
},
{
position = 252;
width = 180;
},
{
position = 272;
width = 180;
},
{
position = 558;
width = 180;
},
{
position = 570;
width = 178;
}
);
vhints = (
{
position = 438;
width = 178;
}
);
};
};
width = 976;
}
);
unicode = 198;
},
{
glyphname = B;
layers = (
{
layerId = master01;
shapes = (
{
closed = 1;
nodes = (
(698,499,o),
(665,487,o),
(612,437,c),
(636,431,o),
(658,421,o),
(676,411,cs),
(766,363,o),
(820,291,o),
(828,205,c),
(828,203,l),
(830,191,o),
(830,179,o),
(830,167,cs),
(830,77,o),
(800,18,o),
(748,-21,cs),
(712,-47,o),
(668,-59,o),
(616,-59,cs),
(556,-59,o),
(486,-43,o),
(402,-9,cs),
(390,-3,o),
(380,5,o),
(370,13,c),
(355,-2,o),
(334,-13,o),
(306,-13,cs),
(268,-13,o),
(232,11,o),
(220,49,cs),
(218,53,o),
(72,481,o),
(24,619,cs),
(22,627,o),
(20,637,o),
(20,647,cs),
(20,694,o),
(55,731,o),
(96,737,cs),
(100,739,o),
(208,755,o),
(322,765,cs),
(372,769,o),
(418,771,o),
(456,771,cs),
(492,771,l),
(550,769,o),
(612,761,o),
(646,713,c),
(686,665,o),
(698,617,o),
(698,579,cs)
);
},
{
closed = 1;
nodes = (
(448,165,o),
(460,163,o),
(470,157,cs),
(542,127,o),
(588,121,o),
(616,121,cs),
(630,121,o),
(640,123,o),
(642,125,cs),
(644,127,o),
(649,137,o),
(649,164,cs),
(649,171,o),
(649,178,o),
(648,187,cs),
(646,211,o),
(628,233,o),
(594,251,cs),
(556,271,o),
(484,295,o),
(358,295,cs),
(356,295,ls),
(346,295,o),
(338,295,o),
(330,299,c),
(350,235,o),
(368,179,o),
(380,143,c),
(396,157,o),
(416,165,o),
(436,165,cs)
);
},
{
closed = 1;
nodes = (
(246,525,o),
(264,497,o),
(284,439,c),
(292,451,o),
(304,461,o),
(318,467,cs),
(466,531,o),
(512,555,o),
(518,577,cs),
(518,581,o),
(518,585,o),
(514,589,c),
(504,589,o),
(486,591,o),
(458,591,cs),
(415,591,o),
(289,583,o),
(230,573,c)
);
}
);
userData = {
com.fontlab.hintData = {
hhints = (
{
position = -59;
width = 180;
},
{
position = -13;
width = 21;
},
{
position = 591;
width = 180;
}
);
vhints = (
{
position = 649;
width = 179;
}
);
};
};
width = 850;
}
);
unicode = (66,1042,914);
},
{
glyphname = C;
layers = (
{
layerId = master01;
shapes = (
{
closed = 1;
nodes = (
(628,314,o),
(672,280,o),
(672,224,cs),
(672,184,o),
(644,148,o),
(604,138,cs),
(502,112,o),
(448,98,o),
(376,98,cs),
(372,98,o),
(366,96,o),
(360,96,cs),
(266,96,o),
(192,118,o),
(134,160,cs),
(64,210,o),
(26,300,o),
(20,402,c),
(20,418,l),
(30,502,o),
(68,588,o),
(132,642,cs),
(194,694,o),
(280,726,o),
(378,734,c),
(386,734,ls),
(432,734,o),
(472,698,o),
(476,652,c),
(476,648,ls),
(476,600,o),
(440,558,o),
(392,554,cs),
(326,550,o),
(216,516,o),
(200,406,c),
(206,340,o),
(232,312,o),
(242,304,cs),
(262,290,o),
(298,278,o),
(362,278,cs),
(416,278,o),
(460,286,o),
(560,312,cs),
(568,314,o),
(574,314,o),
(582,314,cs)
);
}
);
userData = {
com.fontlab.hintData = {
hhints = (
{
position = 96;
width = 182;
},
{
position = 138;
width = 176;
},
{
position = 554;
width = 180;
}
);
};
};
width = 692;
}
);
unicode = (67,1057);
},
{
glyphname = Ccedilla;
layers = (
{
layerId = master01;
shapes = (
{
closed = 1;
nodes = (
(658,298,o),
(702,264,o),
(702,208,cs),
(702,168,o),
(674,132,o),
(634,122,cs),
(590,110,o),
(548,102,o),
(510,96,c),
(532,46,o),
(542,4,o),
(548,-38,c),
(568,-38,ls),
(638,-38,o),
(704,-58,o),
(760,-96,cs),
(830,-146,o),
(870,-218,o),
(870,-298,cs),
(870,-392,o),
(844,-464,o),
(788,-512,cs),
(734,-562,o),
(660,-576,o),
(586,-576,cs),
(550,-576,o),
(514,-572,o),
(478,-568,cs),
(432,-562,o),
(398,-524,o),
(398,-480,cs),
(398,-476,o),
(400,-472,o),
(400,-468,cs),
(406,-422,o),
(444,-390,o),
(488,-390,cs),
(492,-390,o),
(496,-390,o),
(500,-390,cs),
(534,-394,o),
(564,-396,o),
(588,-396,cs),
(628,-396,o),
(656,-390,o),
(670,-378,cs),
(688,-362,o),
(690,-326,o),
(690,-298,cs),
(690,-272,o),
(670,-252,o),
(658,-244,cs),
(636,-228,o),
(604,-218,o),
(566,-218,cs),
(542,-218,o),
(516,-222,o),
(488,-232,cs),
(478,-236,o),
(466,-238,o),
(456,-238,cs),
(408,-238,o),
(366,-194,o),
(366,-150,cs),
(366,-146,o),
(368,-144,o),
(368,-140,cs),
(370,-118,o),
(370,-102,o),
(370,-86,cs),
(370,-36,o),
(362,-2,o),
(330,60,cs),
(326,68,o),
(324,74,o),
(322,82,c),
(141,92,o),
(30,200,o),
(20,376,c),
(20,392,l),
(30,476,o),
(68,552,o),
(132,606,cs),
(194,658,o),
(280,690,o),
(378,698,c),
(386,698,ls),
(432,698,o),
(472,662,o),
(476,616,c),
(476,612,ls),
(476,564,o),
(440,522,o),
(392,518,cs),
(326,514,o),
(216,490,o),
(200,380,c),
(206,314,o),
(232,296,o),
(242,288,cs),
(262,274,o),
(298,262,o),
(362,262,cs),
(416,262,o),
(490,270,o),
(590,296,cs),
(598,298,o),
(604,298,o),
(612,298,cs)
);
}
);
userData = {
com.fontlab.hintData = {
hhints = (
{
position = -576;
width = 186;
},
{
position = -568;
width = 178;
},
{
position = -238;
width = 500;
},
{
position = -218;
width = 180;
},
{
position = 518;
width = 180;
}
);
vhints = (
{
position = 690;
width = 180;
}
);
};
};
width = 890;
}
);
unicode = 199;
},
{
glyphname = D;
layers = (
{
layerId = master01;
shapes = (
{
closed = 1;
nodes = (
(20,657,o),
(61,692,o),
(106,695,cs),
(132,695,o),
(158,697,o),
(184,697,cs),
(462,697,o),
(673,630,o),
(766,459,cs),
(768,457,o),
(770,453,o),
(770,449,cs),
(786,409,o),
(792,373,o),
(792,341,cs),
(792,285,o),
(772,243,o),
(752,213,cs),
(680,109,o),
(520,57,o),
(278,57,cs),
(270,57,ls),
(226,57,o),
(190,89,o),
(182,131,cs),
(146,329,o),
(82,481,o),
(34,557,cs),
(24,571,o),
(20,587,o),
(20,603,cs)
);
},
{
closed = 1;
nodes = (
(292,433,o),
(322,337,o),
(344,239,c),
(500,247,o),
(580,283,o),
(604,315,cs),
(606,319,o),
(612,327,o),
(612,341,cs),
(612,351,o),
(610,363,o),
(604,379,c),
(553,473,o),
(408,507,o),
(256,515,c)
);
}
);
userData = {
com.fontlab.hintData = {
vhints = (
{
position = 612;
width = 180;
}
);
};
};
width = 812;
}
);
unicode = 68;
},
{
glyphname = Eth;
layers = (
{
layerId = master01;
shapes = (
{
closed = 1;
nodes = (
(66,264,o),
(20,299,o),
(20,354,cs),
(20,390,o),
(42,424,o),
(78,438,cs),
(106,450,o),
(134,460,o),
(162,466,c),
(146,500,o),
(126,536,o),
(106,574,cs),
(98,588,o),
(94,604,o),
(94,620,cs),
(94,666,o),
(134,703,o),
(172,706,cs),
(230,714,o),
(288,718,o),
(342,718,cs),
(509,718,o),
(646,681,o),
(730,606,cs),
(788,556,o),
(820,488,o),
(820,412,cs),
(820,312,o),
(774,214,o),
(694,136,cs),
(614,60,o),
(512,16,o),
(416,16,cs),
(400,16,l),
(382,18,o),
(364,24,o),
(350,36,c),
(304,38,o),
(266,76,o),
(266,124,cs),
(266,128,ls),
(266,174,o),
(256,232,o),
(232,298,c),
(202,292,o),
(174,282,o),
(142,272,cs),
(132,266,o),
(120,264,o),
(110,264,cs)
);
},
{
closed = 1;
nodes = (
(596,292,o),
(640,344,o),
(640,412,cs),
(640,436,o),
(630,454,o),
(610,472,cs),
(562,514,o),
(464,538,o),
(342,538,cs),
(328,538,l),
(336,522,o),
(342,506,o),
(350,492,c),
(394,492,o),
(440,488,o),
(490,482,cs),
(534,476,o),
(568,438,o),
(568,394,cs),
(568,390,o),
(566,384,o),
(566,380,cs),
(560,336,o),
(524,302,o),
(480,302,cs),
(476,302,o),
(470,304,o),
(466,304,cs),
(450,306,o),
(434,308,o),
(418,308,c),
(430,270,o),
(436,232,o),
(442,198,c),
(484,206,o),
(532,230,o),
(570,266,cs)
);
}
);
userData = {
com.fontlab.hintData = {
hhints = (
{
position = 16;
width = 21;
},
{
position = 264;
width = 174;
},
{
position = 302;
width = 190;
},
{
position = 302;
width = 180;
},
{
position = 538;
width = 180;
}
);
vhints = (
{
position = 640;
width = 180;
}
);
};
};
width = 840;
}
);
unicode = 208;
},
{
glyphname = E;
layers = (
{
layerId = master01;
shapes = (
{
closed = 1;
nodes = (
(509,245,o),
(554,206,o),
(554,153,cs),
(554,121,o),
(536,91,o),
(506,75,cs),
(426,31,o),
(356,11,o),
(292,11,cs),
(274,11,o),
(258,13,o),
(244,15,cs),
(166,29,o),
(104,75,o),
(58,153,cs),
(42,177,o),
(36,220,o),
(36,255,cs),
(36,328,o),
(65,395,o),
(98,443,c),
(48,491,o),
(20,555,o),
(20,629,cs),
(20,659,o),
(24,694,o),
(36,715,cs),
(80,785,o),
(154,829,o),
(234,837,cs),
(242,837,o),
(248,839,o),
(256,839,cs),
(292,839,o),
(330,829,o),
(364,815,cs),
(408,795,o),
(448,765,o),
(486,723,cs),
(502,707,o),
(508,685,o),
(508,663,cs),
(508,639,o),
(500,613,o),
(480,597,cs),
(462,581,o),
(440,573,o),
(418,573,cs),
(394,573,o),
(370,583,o),
(352,603,cs),
(330,627,o),
(294,657,o),
(256,657,cs),
(254,657,o),
(252,657,o),
(250,657,cs),
(228,655,o),
(212,645,o),
(200,633,c),
(200,631,o),
(200,629,o),
(200,627,cs),
(200,587,o),
(222,563,o),
(268,547,cs),
(302,537,o),
(324,509,o),
(330,477,cs),
(330,471,o),
(332,467,o),
(332,461,cs),
(332,433,o),
(318,405,o),
(296,389,cs),
(240,347,o),
(216,295,o),
(216,253,cs),
(216,247,o),
(216,241,o),
(218,235,c),
(240,203,o),
(260,195,o),
(274,193,cs),
(280,191,o),
(286,191,o),
(294,191,cs),
(320,191,o),
(360,201,o),
(420,233,cs),
(434,241,o),
(448,245,o),
(464,245,cs)
);
}
);
userData = {
com.fontlab.hintData = {
hhints = (
{
position = 11;
width = 180;
},
{
position = 657;
width = 180;
}
);
vhints = (
{
position = 20;
width = 180;
},
{
position = 36;
width = 180;
}
);
};
};
width = 574;
}
);
unicode = (69,1045,917);
},
{
glyphname = F;
layers = (
{
layerId = master01;
shapes = (
{
closed = 1;
nodes = (
(636,572,o),
(594,536,o),
(548,536,cs),
(540,536,o),
(534,536,o),
(526,538,cs),
(460,554,o),
(356,566,o),
(260,568,c),
(278,524,o),
(294,478,o),
(308,428,cs),
(310,418,o),
(312,408,o),
(314,398,c),
(596,438,ls),
(600,438,o),
(606,440,o),
(610,440,cs),
(654,440,o),
(690,408,o),
(698,362,cs),
(698,358,o),
(698,354,o),
(698,350,cs),
(698,308,o),
(666,268,o),
(622,260,c),
(344,220,l),
(346,186,o),
(348,152,o),
(348,120,cs),
(348,108,o),
(348,96,o),
(348,84,cs),
(348,34,o),
(308,-4,o),
(258,-4,cs),
(256,-4,ls),
(206,-2,o),
(168,38,o),
(168,88,cs),
(168,122,ls),
(168,322,o),
(104,508,o),
(38,594,cs),
(26,610,o),
(20,630,o),
(20,650,cs),
(20,700,o),
(56,731,o),
(96,738,cs),
(138,744,o),
(190,748,o),
(242,748,cs),
(360,748,o),
(488,734,o),
(570,714,cs),
(610,702,o),
(636,666,o),
(636,626,cs)
);
}
);
userData = {
com.fontlab.hintData = {
hhints = (
{
position = -4;
width = 21;
},
{
position = 568;
width = 180;
}
);
vhints = (
{
position = 168;
width = 180;
}
);
};
};
width = 718;
}
);
unicode = 70;
},
{
glyphname = G;
layers = (
{
layerId = master01;
shapes = (
{
closed = 1;
nodes = (
(552,540,o),
(516,498,o),
(462,498,cs),
(422,498,o),
(384,526,o),
(374,566,c),
(362,562,o),
(342,550,o),
(312,526,c),
(238,442,o),
(196,378,o),
(196,322,c),
(200,280,o),
(220,238,o),
(310,218,c),
(318,218,ls),
(414,218,o),
(450,252,o),
(472,280,cs),
(488,302,o),
(514,314,o),
(540,314,cs),
(568,314,o),
(598,300,o),
(614,278,cs),
(620,270,o),
(626,262,o),
(632,256,cs),
(648,234,o),
(666,210,o),
(682,192,cs),
(696,176,o),
(704,170,o),
(708,170,cs),
(754,170,o),
(796,132,o),
(796,86,cs),
(796,82,l),
(794,16,o),
(756,-8,o),
(710,-8,cs),
(660,-8,o),
(598,22,o),
(566,54,cs),
(552,68,o),
(542,80,o),
(530,92,c),
(486,66,o),
(400,36,o),
(324,36,cs),
(308,36,o),
(294,38,o),
(280,40,cs),
(204,56,o),
(144,86,o),
(100,128,cs),
(42,186,o),
(20,252,o),
(20,318,cs),
(20,446,o),
(102,560,o),
(182,650,c),
(190,658,l),
(230,692,o),
(268,718,o),
(304,732,cs),
(332,744,o),
(358,750,o),
(384,750,cs),
(402,750,o),
(418,746,o),
(434,742,cs),
(468,732,o),
(526,700,o),
(550,608,cs),
(552,600,o),
(552,594,o),
(552,586,cs)
);
}
);
userData = {
com.fontlab.hintData = {
hhints = (
{
position = -8;
width = 178;
},
{
position = 36;
width = 182;
},
{
position = 498;
width = 244;
},
{
position = 730;
width = 20;
}
);
vhints = (
{
position = 20;
width = 176;
}
);
};
};
width = 816;
}
);
unicode = 71;
},
{
glyphname = H;
layers = (
{
layerId = master01;
shapes = (
{
closed = 1;
nodes = (
(786,58,o),
(752,14,o),
(696,14,cs),
(658,14,o),
(624,38,o),
(612,76,cs),
(592,134,o),
(574,196,o),
(558,254,cs),
(556,256,o),
(556,258,o),
(556,258,c),
(478,258,o),
(418,244,o),
(378,216,cs),
(338,190,o),
(314,152,o),
(306,96,cs),
(298,52,o),
(260,20,o),
(216,20,cs),
(208,20,l),
(162,26,o),
(126,64,o),
(126,110,cs),
(126,148,ls),
(126,296,o),
(92,462,o),
(28,606,cs),
(22,618,o),
(20,630,o),
(20,642,cs),
(20,687,o),
(56,732,o),
(110,732,cs),
(144,732,o),
(178,712,o),
(192,678,cs),
(236,580,o),
(268,476,o),
(286,372,c),
(344,408,o),
(416,430,o),
(502,436,c),
(480,502,o),
(458,564,o),
(432,614,cs),
(426,626,o),
(422,640,o),
(422,654,cs),
(422,699,o),
(460,744,o),
(514,744,cs),
(546,744,o),
(578,726,o),
(594,694,cs),
(672,538,o),
(723,317,o),
(782,132,cs),
(786,122,o),
(786,112,o),
(786,104,cs)
);
}
);
userData = {
com.fontlab.hintData = {
hhints = (
{
position = 20;
width = 15;
},
{
position = 712;
width = 20;
}
);
vhints = (
{
position = 20;
width = 172;
},
{
position = 126;
width = 180;
},
{
position = 422;
width = 172;
}
);
};
};
width = 806;
}
);
unicode = (72,1053,919);
},
{
glyphname = I;
layers = (
{
anchors = (
{
name = bottom;
pos = (302,110);
},
{
name = top;
pos = (110,732);
}
);
layerId = master01;
shapes = (
{
closed = 1;
nodes = (
(376,158,o),
(341,116,o),
(286,116,cs),
(250,116,o),
(216,138,o),
(202,174,cs),
(190,208,o),
(176,244,o),
(164,278,cs),
(120,398,o),
(74,522,o),
(30,606,cs),
(24,620,o),
(20,634,o),
(20,648,cs),
(20,693,o),
(57,738,o),
(110,738,cs),
(142,738,o),
(174,720,o),
(190,688,cs),
(238,594,o),
(286,466,o),
(332,340,cs),
(344,306,o),
(358,272,o),
(370,238,cs),
(374,228,o),
(376,216,o),
(376,206,cs)
);
}
);
userData = {
com.fontlab.hintData = {
hhints = (
{
position = 718;
width = 20;
}
);
vhints = (
{
position = 20;
width = 170;
},
{
position = 202;
width = 174;
}
);
};
};
width = 396;
}
);
unicode = (73,1030,921);
},
{
glyphname = J;
layers = (
{
layerId = master01;
shapes = (
{
closed = 1;
nodes = (
(46,708,o),
(85,752,o),
(136,752,cs),
(162,752,o),
(188,740,o),
(206,716,cs),
(248,664,o),
(390,472,o),
(478,254,cs),
(498,206,o),
(510,162,o),
(510,122,cs),
(510,112,ls),
(510,66,o),
(496,26,o),
(472,-8,cs),
(448,-36,o),
(400,-78,o),
(306,-78,cs),
(286,-78,o),
(266,-76,o),
(242,-72,cs),
(98,-52,ls),
(52,-46,o),
(20,-6,o),
(20,36,cs),
(20,40,o),
(20,44,o),
(20,48,cs),
(28,94,o),
(66,126,o),
(110,126,cs),
(114,126,o),
(118,126,o),
(122,126,cs),
(268,106,l),
(272,106,l),
(286,103,o),
(298,101,o),
(307,101,cs),
(319,101,o),
(327,104,o),
(330,106,c),
(330,114,ls),
(330,126,o),
(328,150,o),
(312,184,c),
(312,186,l),
(248,342,o),
(142,506,o),
(64,606,cs),
(52,622,o),
(46,642,o),
(46,660,cs)
);
}
);
userData = {
com.fontlab.hintData = {
hhints = (
{
position = -52;
width = 178;
},
{
position = 732;
width = 20;
}
);
};
};
width = 530;
}
);
unicode = (74,1032);
},
{
glyphname = K;
layers = (
{
layerId = master01;
shapes = (
{
closed = 1;
nodes = (
(600,848,o),
(634,804,o),
(634,758,cs),
(634,750,o),
(632,740,o),
(630,732,cs),
(600,624,o),
(554,524,o),
(492,428,c),
(690,364,o),
(826,300,o),
(926,228,cs),
(950,212,o),
(962,184,o),
(962,156,cs),
(962,136,o),
(958,118,o),
(946,102,cs),
(928,78,o),
(900,66,o),
(872,66,cs),
(854,66,o),
(836,70,o),
(820,82,cs),
(726,150,o),
(586,212,o),
(370,280,c),
(380,218,o),
(390,154,o),
(400,94,cs),
(400,88,o),
(402,84,o),
(402,78,cs),
(402,34,o),
(370,-2,o),
(326,-10,c),
(312,-10,ls),
(268,-10,o),
(230,22,o),
(222,66,cs),
(186,296,o),
(140,582,o),
(40,708,cs),
(26,724,o),
(20,744,o),
(20,764,cs),
(20,810,o),
(60,854,o),
(110,854,cs),
(136,854,o),
(162,842,o),
(180,820,cs),
(244,738,o),
(288,624,o),
(322,498,c),
(384,586,o),
(428,682,o),
(458,784,cs),
(470,822,o),
(506,848,o),
(544,848,cs)
);
}
);
userData = {
com.fontlab.hintData = {
hhints = (
{
position = -10;
width = 21;
}
);
vhints = (
{
position = 458;
width = 176;
}
);
};
};
width = 982;
}
);
unicode = (75,1050,922);
},
{
glyphname = L;
layers = (
{
layerId = master01;
shapes = (
{
closed = 1;
nodes = (
(592,295,o),
(628,251,o),
(628,207,cs),
(628,195,o),
(626,183,o),
(620,171,cs),
(580,71,o),
(504,15,o),
(370,15,cs),
(302,15,o),
(220,31,o),
(124,61,cs),
(92,71,o),
(68,99,o),
(64,131,cs),
(34,297,o),
(20,417,o),
(20,567,cs),
(20,601,o),
(22,633,o),
(24,663,cs),
(28,709,o),
(68,745,o),
(114,745,cs),
(122,745,l),
(168,741,o),
(204,701,o),
(204,655,cs),
(204,647,l),
(202,621,o),
(200,593,o),
(200,565,cs),
(200,445,o),
(210,357,o),
(232,217,c),
(296,201,o),
(340,195,o),
(370,195,cs),
(390,195,o),
(404,197,o),
(414,201,cs),
(436,207,o),
(444,215,o),
(454,239,cs),
(470,275,o),
(504,295,o),
(538,295,cs)
);
}
);
userData = {
com.fontlab.hintData = {
hhints = (
{
position = 15;
width = 180;
},
{
position = 725;
width = 20;
}
);
vhints = (
{
position = 20;
width = 180;
}
);
};
};
width = 648;
}
);
unicode = 76;
},
{
glyphname = M;
layers = (
{
layerId = master01;
shapes = (
{
closed = 1;
nodes = (
(898,147,o),
(861,104,o),
(808,104,cs),
(766,104,o),
(728,134,o),
(720,178,cs),
(701,271,o),
(683,369,o),
(660,450,c),
(638,400,o),
(600,330,o),
(550,276,cs),
(532,256,o),
(506,246,o),
(480,246,cs),
(454,248,o),
(430,260,o),
(414,282,cs),
(376,328,o),
(334,374,o),
(290,412,c),
(286,368,o),
(282,322,o),
(276,282,cs),
(258,178,o),
(228,96,o),
(184,34,cs),
(166,10,o),
(138,-4,o),
(110,-4,cs),
(60,-4,o),
(20,43,o),
(20,88,cs),
(20,106,o),
(26,124,o),
(36,140,cs),
(102,232,o),
(112,402,o),
(118,582,cs),
(118,629,o),
(156,670,o),
(208,670,cs),
(222,670,o),
(236,666,o),
(250,660,cs),
(324,620,o),
(404,558,o),
(476,484,c),
(506,542,o),
(532,614,o),
(544,682,cs),
(549,722,o),
(585,756,o),
(634,756,cs),
(650,756,o),
(666,752,o),
(680,742,cs),
(817,653,o),
(854,424,o),
(896,212,cs),
(898,206,o),
(898,200,o),
(898,194,cs)
);
}
);
userData = {
com.fontlab.hintData = {
hhints = (
{
position = -4;
width = 21;
},
{
position = 736;
width = 20;
}
);
vhints = (
{
position = 720;
width = 178;
}
);
};
};
width = 918;
}
);
unicode = (77,1052,924);
},
{
glyphname = N;
layers = (
{
layerId = master01;
shapes = (
{
closed = 1;
nodes = (
(524,763,o),
(570,802,o),
(614,802,cs),
(632,802,o),
(648,796,o),
(664,786,cs),
(716,750,o),
(756,708,o),
(782,656,cs),
(812,602,o),
(830,536,o),
(836,456,cs),
(838,452,o),
(838,450,o),
(838,446,cs),
(834,312,o),
(796,216,o),
(724,160,cs),
(683,128,o),
(636,112,o),
(572,112,cs),
(540,112,o),
(506,116,o),
(470,126,cs),
(468,128,o),
(464,128,o),
(460,130,cs),
(402,152,o),
(348,204,o),
(284,296,cs),
(278,306,o),
(270,318,o),
(262,330,c),
(248,234,o),
(228,140,o),
(190,64,cs),
(176,32,o),
(144,14,o),
(110,14,cs),
(55,14,o),
(20,58,o),
(20,102,cs),
(20,116,o),
(24,130,o),
(30,142,cs),
(84,256,o),
(96,484,o),
(104,642,c),
(104,656,l),
(106,700,o),
(141,742,o),
(194,742,cs),
(224,742,o),
(256,726,o),
(272,696,cs),
(278,688,o),
(282,678,o),
(288,668,cs),
(340,578,o),
(388,462,o),
(432,398,cs),
(482,326,o),
(510,306,o),
(522,298,c),
(538,296,o),
(556,292,o),
(572,292,cs),
(588,292,o),
(604,296,o),
(616,304,cs),
(640,322,o),
(656,374,o),
(658,446,c),
(646,558,o),
(614,602,o),
(562,638,cs),
(538,656,o),
(524,684,o),
(524,712,cs)
);
}
);
userData = {
com.fontlab.hintData = {
hhints = (
{
position = 14;
width = 21;
},
{
position = 112;
width = 180;
},
{
position = 722;
width = 20;
}
);
vhints = (
{
position = 20;
width = 170;
},
{
position = 658;
width = 180;
}
);
};
};
width = 858;
}
);
unicode = (78,925);
},
{
glyphname = O;
layers = (
{
anchors = (
{
name = bottom;
pos = (408,86);
},
{
name = top;
pos = (382,736);
}
);
layerId = master01;
shapes = (
{
closed = 1;
nodes = (
(591,692,o),
(714,595,o),
(742,450,c),
(742,335,o),
(715,252,o),
(648,192,cs),
(592,142,o),
(518,118,o),
(424,94,cs),
(418,94,o),
(410,92,o),
(404,92,cs),
(400,92,l),
(294,96,o),
(212,114,o),
(150,152,cs),
(68,202,o),
(22,282,o),
(20,384,cs),
(20,390,o),
(20,396,o),
(22,404,cs),
(54,557,o),
(134,682,o),
(262,732,cs),
(272,736,o),
(284,738,o),
(294,738,cs),
(326,738,o),
(358,720,o),
(374,692,c),
(414,692,ls)
);
},
{
closed = 1;
nodes = (
(549,488,o),
(484,512,o),
(408,512,cs),
(364,512,o),
(316,504,o),
(268,488,cs),
(260,486,o),
(250,484,o),
(242,484,c),
(226,458,o),
(210,424,o),
(200,378,c),
(204,336,o),
(222,318,o),
(242,306,cs),
(274,286,o),
(326,276,o),
(394,272,c),
(530,306,o),
(558,332,o),
(562,426,c)
);
}
);
userData = {
com.fontlab.hintData = {
hhints = (
{
position = 484;
width = 254;
},
{
position = 512;
width = 180;
}
);
vhints = (
{
position = 562;
width = 180;
}
);
};
};
width = 762;
}
);
unicode = (79,1054,927);
},
{
glyphname = Oslash;
layers = (
{
layerId = master01;
shapes = (
{
closed = 1;
nodes = (
(576,826,o),
(616,782,o),
(616,736,cs),
(616,720,o),
(610,704,o),
(602,690,cs),
(592,674,o),
(582,658,o),
(574,642,c),
(584,638,o),
(594,632,o),
(604,626,cs),
(702,566,o),
(756,476,o),
(756,370,cs),
(756,282,o),
(710,194,o),
(628,126,cs),
(554,64,o),
(460,28,o),
(372,28,cs),
(348,28,o),
(320,32,o),
(294,38,c),
(282,12,o),
(270,-16,o),
(258,-42,cs),
(244,-76,o),
(210,-96,o),
(176,-96,cs),
(122,-96,o),
(86,-52,o),
(86,-6,cs),
(86,6,o),
(88,18,o),
(94,30,cs),
(108,60,o),
(120,92,o),
(134,122,c),
(60,186,o),
(20,272,o),
(20,370,cs),
(20,504,o),
(98,610,o),
(232,664,c),
(246,694,o),
(278,712,o),
(312,712,cs),
(322,712,l),
(348,708,o),
(374,704,o),
(400,700,c),
(414,728,o),
(430,754,o),
(448,782,cs),
(464,810,o),
(494,826,o),
(524,826,cs)
);
},
{
closed = 1;
nodes = (
(244,474,o),
(200,436,o),
(200,370,cs),
(200,348,o),
(204,328,o),
(212,308,c),
(238,370,o),
(266,432,o),
(296,496,c)
);
},
{
closed = 1;
nodes = (
(466,208,o),
(576,296,o),
(576,370,cs),
(576,398,o),
(568,436,o),
(510,472,cs),
(504,476,o),
(496,480,o),
(490,484,c),
(444,392,o),
(404,302,o),
(366,208,c),
(368,208,o),
(370,208,o),
(372,208,cs)
);
}
);
userData = {
com.fontlab.hintData = {
hhints = (
{
position = 28;
width = 180;
}
);
vhints = (
{
position = 20;
width = 180;
},
{
position = 86;
width = 172;
},
{
position = 576;
width = 180;
}
);
};
};
width = 776;
}
);
unicode = 216;
},
{
glyphname = P;
layers = (
{
layerId = master01;
shapes = (
{
closed = 1;
nodes = (
(350,37,o),
(313,-8,o),
(260,-8,cs),
(226,-8,o),
(198,10,o),
(182,40,cs),
(102,190,o),
(56,278,o),
(28,392,cs),
(28,398,o),
(26,402,o),
(26,408,cs),
(26,414,o),
(24,422,o),
(24,432,cs),
(22,452,o),
(20,472,o),
(20,492,cs),
(20,524,o),
(24,554,o),
(38,584,cs),
(64,648,o),
(122,694,o),
(210,722,cs),
(250,734,o),
(288,742,o),
(326,742,cs),
(386,742,o),
(444,724,o),
(494,692,cs),
(562,646,o),
(604,574,o),
(610,498,c),
(610,484,l),
(600,370,o),
(554,292,o),
(472,256,cs),
(426,236,o),
(376,230,o),
(330,230,cs),
(312,230,o),
(296,232,o),
(280,232,c),
(302,190,o),
(314,174,o),
(340,124,cs),
(348,110,o),
(350,96,o),
(350,82,cs)
);
},
{
closed = 1;
nodes = (
(200,468,o),
(202,444,o),
(206,428,cs),
(206,416,o),
(228,414,o),
(248,414,cs),
(280,414,l),
(300,412,o),
(320,410,o),
(338,410,cs),
(362,410,o),
(384,414,o),
(398,420,cs),
(404,422,o),
(424,430,o),
(430,490,c),
(426,506,o),
(414,528,o),
(392,542,cs),
(374,554,o),
(352,562,o),
(326,562,cs),
(286,562,o),
(211,536,o),
(204,514,cs),
(200,506,o),
(200,498,o),
(200,486,cs)
);
}
);
userData = {
com.fontlab.hintData = {
hhints = (
{
position = -8;
width = 21;
},
{
position = 230;
width = 180;
},
{
position = 562;
width = 180;
}
);
vhints = (
{
position = 20;
width = 180;
}
);
};
};
width = 630;
}
);
unicode = (80,1056,929);
},
{
glyphname = Thorn;
layers = (
{
layerId = master01;
shapes = (
{
closed = 1;
nodes = (
(20,714,o),
(57,757,o),
(112,757,cs),
(150,757,o),
(186,731,o),
(196,691,cs),
(208,649,o),
(218,607,o),
(228,567,c),
(290,609,o),
(356,631,o),
(424,631,cs),
(512,631,o),
(586,607,o),
(642,563,cs),
(686,525,o),
(738,459,o),
(738,343,cs),
(738,261,o),
(708,177,o),
(658,113,cs),
(600,39,o),
(518,-1,o),
(432,-1,cs),
(394,-1,o),
(362,1,o),
(330,9,c),
(334,-17,o),
(336,-43,o),
(338,-69,cs),
(338,-71,o),
(338,-73,o),
(338,-75,cs),
(338,-121,o),
(302,-161,o),
(254,-165,cs),
(252,-165,o),
(250,-165,o),
(248,-165,cs),
(202,-165,o),
(162,-129,o),
(158,-81,cs),
(142,129,o),
(98,367,o),
(24,643,cs),
(22,651,o),
(20,659,o),
(20,669,cs)
);
},
{
closed = 1;
nodes = (
(504,179,o),
(558,265,o),
(558,343,cs),
(558,371,o),
(558,451,o),
(424,451,cs),
(374,451,o),
(324,423,o),
(274,367,c),
(284,317,o),
(294,269,o),
(302,221,c),
(325,198,o),
(343,179,o),
(432,179,cs)
);
}
);
userData = {
com.fontlab.hintData = {
hhints = (
{
position = -1;
width = 180;
},
{
position = 451;
width = 180;
},
{
position = 737;
width = 20;
}
);
vhints = (
{
position = 20;
width = 176;
},
{
position = 158;
width = 180;
},
{
position = 558;
width = 180;
}
);
};
};
width = 758;
}
);
unicode = 222;
},
{
glyphname = Q;
layers = (
{
layerId = master01;
shapes = (
{
closed = 1;
nodes = (
(765,70,o),
(802,27,o),
(802,-20,cs),
(802,-38,o),
(796,-58,o),
(784,-74,cs),
(742,-128,o),
(684,-160,o),
(622,-162,cs),
(564,-162,o),
(508,-134,o),
(464,-84,cs),
(459,-81,o),
(456,-79,o),
(453,-79,cs),
(448,-79,o),
(442,-85,o),
(424,-98,cs),
(396,-120,o),
(362,-156,o),
(332,-190,cs),
(316,-210,o),
(290,-220,o),
(266,-220,cs),
(217,-220,o),
(176,-176,o),
(176,-130,cs),
(176,-108,o),
(184,-86,o),
(198,-70,cs),
(244,-20,o),
(282,20,o),
(320,48,c),
(228,58,o),
(138,80,o),
(78,148,cs),
(40,192,o),
(20,246,o),
(20,310,cs),
(20,322,o),
(20,332,o),
(22,344,cs),
(36,486,o),
(122,606,o),
(260,674,cs),
(272,680,o),
(286,684,o),
(300,684,cs),
(330,684,o),
(360,668,o),
(376,640,c),
(420,656,o),
(475,666,o),
(528,666,cs),
(564,666,o),
(598,660,o),
(632,646,cs),
(702,616,o),
(754,560,o),
(784,476,cs),
(788,470,o),
(790,462,o),
(790,454,cs),
(792,442,o),
(792,430,o),
(792,418,cs),
(792,328,o),
(754,236,o),
(696,174,cs),
(656,132,o),
(604,100,o),
(544,76,c),
(556,70,o),
(566,64,o),
(578,56,cs),
(584,50,o),
(590,44,o),
(596,38,cs),
(606,26,o),
(612,20,o),
(619,20,cs),
(625,20,o),
(632,25,o),
(642,34,cs),
(664,54,o),
(686,70,o),
(714,70,cs)
);
},
{
closed = 1;
nodes = (
(234,242,o),
(294,228,o),
(390,224,c),
(530,240,o),
(612,312,o),
(612,418,cs),
(612,426,l),
(596,462,o),
(576,476,o),
(564,480,cs),
(550,486,o),
(534,488,o),
(518,488,cs),
(464,488,o),
(400,462,o),
(324,426,cs),
(312,420,o),
(300,418,o),
(286,418,cs),
(270,418,o),
(254,422,o),
(240,430,c),
(218,400,o),
(204,364,o),
(200,326,cs),
(199,320,o),
(199,316,o),
(199,311,cs),
(199,283,o),
(209,271,o),
(212,268,cs)
);
}
);
userData = {
com.fontlab.hintData = {
hhints = (
{
position = -220;
width = 444;
},
{
position = 418;
width = 266;
},
{
position = 488;
width = 178;
}
);
vhints = (
{
position = 20;
width = 179;
},
{
position = 612;
width = 180;
}
);
};
};
width = 822;
}
);
unicode = 81;
},
{
glyphname = R;
layers = (
{
layerId = master01;
shapes = (
{
closed = 1;
nodes = (
(848,11,o),
(805,-32,o),
(758,-32,cs),
(734,-32,o),
(710,-24,o),
(694,-6,cs),
(606,84,o),
(490,138,o),
(376,146,cs),
(366,146,o),
(358,148,o),
(350,152,c),
(350,140,o),
(352,128,o),
(354,116,cs),
(354,112,o),
(354,108,o),
(354,104,cs),
(354,62,o),
(322,22,o),
(276,16,cs),
(272,16,o),
(268,16,o),
(264,16,cs),
(220,16,o),
(182,48,o),
(176,94,cs),
(154,260,o),
(100,404,o),
(38,562,cs),
(29,579,o),
(20,597,o),
(20,622,cs),
(20,671,o),
(60,712,o),
(106,712,cs),
(210,712,ls),
(288,712,o),
(364,710,o),
(428,696,cs),
(516,676,o),
(576,632,o),
(614,562,cs),
(618,556,o),
(622,550,o),
(624,542,cs),
(634,502,o),
(640,464,o),
(640,428,cs),
(640,376,o),
(628,322,o),
(604,282,cs),
(602,280,o),
(602,276,o),
(600,274,c),
(610,270,o),
(620,264,o),
(628,260,cs),
(700,226,o),
(766,178,o),
(822,120,cs),
(838,104,o),
(848,80,o),
(848,58,cs)
);
},
{
closed = 1;
nodes = (
(272,458,o),
(298,376,o),
(318,300,c),
(328,310,o),
(342,318,o),
(358,322,cs),
(406,336,o),
(438,354,o),
(450,374,cs),
(456,386,o),
(460,412,o),
(460,428,cs),
(460,446,o),
(456,466,o),
(452,484,c),
(424,524,o),
(366,530,o),
(244,532,c)
);
}
);
userData = {
com.fontlab.hintData = {
hhints = (
{
position = 16;
width = 21;
},
{
position = 532;
width = 180;
}
);
vhints = (
{
position = 460;
width = 180;
}
);
};
};
width = 868;
}
);
unicode = 82;
},
{
glyphname = S;
layers = (
{
layerId = master01;
shapes = (
{
closed = 1;
nodes = (
(643,501,o),
(769,341,o),
(794,173,c),
(794,153,ls),
(794,99,o),
(772,53,o),
(732,17,cs),
(684,-23,o),
(614,-43,o),
(520,-45,cs),
(516,-45,o),
(512,-45,o),
(508,-45,cs),
(434,-45,o),
(346,-33,o),
(252,-11,cs),
(210,-1,o),
(182,35,o),
(182,75,cs),
(182,132,o),
(226,167,o),
(274,167,cs),
(280,167,o),
(286,167,o),
(292,165,cs),
(374,145,o),
(448,135,o),
(510,135,cs),
(526,135,l),
(586,137,o),
(608,149,o),
(614,155,c),
(604,213,o),
(576,263,o),
(536,291,cs),
(510,311,o),
(482,321,o),
(450,321,cs),
(442,321,o),
(434,321,o),
(426,319,cs),
(422,319,o),
(418,317,o),
(414,317,cs),
(342,317,o),
(266,331,o),
(202,361,cs),
(122,397,o),
(64,453,o),
(30,521,cs),
(24,533,o),
(20,549,o),
(20,563,cs),
(20,612,o),
(59,645,o),
(98,651,cs),
(184,661,o),
(240,689,o),
(254,703,c),
(270,731,o),
(300,747,o),
(330,747,cs),
(384,747,o),
(422,705,o),
(422,659,cs),
(422,643,o),
(418,629,o),
(410,615,cs),
(388,571,o),
(342,539,o),
(292,519,c),
(328,505,o),
(368,497,o),
(404,497,cs),
(420,499,o),
(434,501,o),
(450,501,cs)
);
},
{
closed = 1;
nodes = (
(252,699,l)
);
}
);
userData = {
com.fontlab.hintData = {
hhints = (
{
position = -45;
width = 180;
},
{
position = 321;
width = 180;
},
{
position = 727;
width = 20;
}
);
};
};
width = 814;
}
);
unicode = (83,1029);
},
{
glyphname = T;
layers = (
{
layerId = master01;
shapes = (
{
closed = 1;
nodes = (
(580,594,o),
(548,592,o),
(518,588,c),
(532,478,o),
(540,374,o),
(540,276,cs),
(540,206,o),
(536,138,o),
(528,72,cs),
(524,26,o),
(484,-8,o),
(440,-8,cs),
(430,-8,l),
(384,-2,o),
(350,36,o),
(350,80,cs),
(350,90,l),
(356,150,o),
(360,210,o),
(360,274,cs),
(360,370,o),
(352,470,o),
(338,578,c),
(310,576,o),
(280,576,o),
(254,576,cs),
(202,576,o),
(152,578,o),
(104,580,cs),
(56,584,o),
(20,624,o),
(20,672,cs),
(20,676,l),
(24,724,o),
(62,760,o),
(108,760,cs),
(116,760,l),
(158,758,o),
(200,756,o),
(244,756,cs),
(350,756,o),
(466,764,o),
(592,776,cs),
(596,776,o),
(600,776,o),
(604,776,cs),
(646,776,o),
(686,744,o),
(690,698,c),
(690,688,ls),
(690,642,o),
(656,604,o),
(612,598,cs)
);
}
);
userData = {
com.fontlab.hintData = {
hhints = (
{
position = -8;
width = 21;
},
{
position = 580;
width = 180;
},
{
position = 598;
width = 178;
}
);
vhints = (
{
position = 350;
width = 178;
},
{
position = 360;
width = 180;
}
);
};
};
width = 710;
}
);
unicode = (84,1058,932);
},
{
glyphname = U;
layers = (
{
anchors = (
{
name = bottom;
pos = (458,9);
},
{
name = top;
pos = (292,759);
}
);
layerId = master01;
shapes = (
{
closed = 1;
nodes = (
(390,759,o),
(434,801,o),
(480,801,cs),
(500,801,o),
(520,793,o),
(538,779,cs),
(644,689,o),
(676,589,o),
(690,539,cs),
(692,535,o),
(694,529,o),
(696,527,cs),
(698,519,o),
(700,511,o),
(702,503,cs),
(714,433,o),
(720,373,o),
(720,321,cs),
(720,231,o),
(702,167,o),
(666,117,cs),
(614,45,o),
(532,23,o),
(468,13,c),
(450,13,l),
(298,17,o),
(198,99,o),
(134,205,cs),
(72,309,o),
(36,455,o),
(20,653,cs),
(20,655,o),
(20,657,o),
(20,659,cs),
(20,705,o),
(56,745,o),
(104,749,cs),
(106,749,o),
(108,749,o),
(110,749,cs),
(156,749,o),
(196,713,o),
(200,665,cs),
(212,499,o),
(242,375,o),
(288,297,cs),
(328,229,o),
(378,197,o),
(448,193,c),
(498,201,o),
(514,213,o),
(520,223,cs),
(530,237,o),
(538,265,o),
(538,321,cs),
(538,356,o),
(537,434,o),
(520,485,cs),
(508,523,o),
(488,585,o),
(422,641,cs),
(402,659,o),
(390,685,o),
(390,711,cs)
);
},
{
closed = 1;
nodes = (
(694,527,l)
);
}
);
userData = {
com.fontlab.hintData = {
hhints = (
{
position = 13;
width = 21;
},
{
position = 729;
width = 20;
}
);
vhints = (
{
position = 20;
width = 180;
},
{
position = 538;
width = 182;
}
);
};
};
width = 740;
}
);
unicode = 85;
},
{
glyphname = V;
layers = (
{
layerId = master01;
shapes = (
{
closed = 1;
nodes = (
(226,296,o),
(104,430,o),
(58,462,cs),
(34,480,o),
(20,508,o),
(20,538,cs),
(20,554,o),
(26,572,o),
(36,588,cs),
(54,612,o),
(82,626,o),
(110,626,cs),
(128,626,o),
(146,620,o),
(162,608,cs),
(242,552,o),
(368,394,o),
(464,266,c),
(514,412,o),
(538,530,o),
(538,658,cs),
(538,708,o),
(578,748,o),
(628,748,cs),
(676,748,o),
(718,708,o),
(718,658,cs),
(718,462,o),
(668,268,o),
(570,44,cs),
(556,8,o),
(522,-10,o),
(488,-10,cs),
(462,-10,o),
(432,2,o),
(414,28,cs)
);
}
);
userData = {
com.fontlab.hintData = {
hhints = (
{
position = -10;
width = 21;
},
{
position = 728;
width = 20;
}
);
vhints = (
{
position = 538;
width = 180;
}
);
};
};
width = 738;
}
);
unicode = 86;
},
{
glyphname = W;
layers = (
{
layerId = master01;
shapes = (
{
closed = 1;
nodes = (
(222,82,o),
(196,94,o),
(178,118,cs),
(122,196,o),
(62,302,o),
(22,558,cs),
(22,564,o),
(20,568,o),
(20,574,cs),
(20,618,o),
(52,654,o),
(96,662,cs),
(100,662,o),
(106,664,o),
(110,664,cs),
(152,664,o),
(190,632,o),
(198,588,cs),
(224,426,o),
(256,336,o),
(290,278,c),
(348,302,o),
(398,350,o),
(446,418,cs),
(462,444,o),
(492,458,o),
(524,458,cs),
(554,456,o),
(582,440,o),
(598,412,cs),
(630,356,o),
(684,324,o),
(726,306,c),
(778,336,o),
(800,382,o),
(806,468,c),
(794,544,o),
(762,556,o),
(722,556,cs),
(718,556,o),
(714,556,o),
(710,556,cs),
(662,556,o),
(620,594,o),
(618,644,cs),
(618,694,o),
(656,736,o),
(706,736,cs),
(716,736,ls),
(788,736,o),
(846,716,o),
(892,676,cs),
(944,634,o),
(974,568,o),
(984,484,cs),
(986,478,o),
(986,472,o),
(986,468,cs),
(980,356,o),
(950,200,o),
(764,124,cs),
(753,120,o),
(742,118,o),
(731,118,cs),
(721,118,o),
(711,119,o),
(702,122,cs),
(632,146,o),
(570,180,o),
(520,226,c),
(448,150,o),
(364,102,o),
(268,82,cs),
(262,82,o),
(256,82,o),
(250,82,cs)
);
}
);
userData = {
com.fontlab.hintData = {
hhints = (
{
position = 556;
width = 180;
}
);
};
};
width = 1006;
}
);
unicode = 87;
},
{
glyphname = X;
layers = (
{
layerId = master01;
shapes = (
{
closed = 1;
nodes = (
(697,-11,o),
(659,-53,o),
(608,-53,cs),
(572,-53,o),
(545,-35,o),
(529,-9,cs),
(488,59,o),
(430,154,o),
(358,254,c),
(298,170,o),
(243,81,o),
(189,-11,cs),
(172,-40,o),
(143,-55,o),
(112,-55,cs),
(55,-55,o),
(20,-11,o),
(20,35,cs),
(20,53,o),
(26,69,o),
(32,80,cs),
(99,193,o),
(167,300,o),
(242,401,c),
(186,466,o),
(123,528,o),
(57,579,cs),
(34,596,o),
(22,623,o),
(22,649,cs),
(22,703,o),
(67,741,o),
(114,741,cs),
(137,741,o),
(153,734,o),
(167,722,cs),
(231,671,o),
(291,615,o),
(353,548,c),
(401,608,o),
(453,666,o),
(504,723,cs),
(522,743,o),
(546,754,o),
(571,754,cs),
(622,754,o),
(661,708,o),
(661,662,cs),
(661,635,o),
(650,617,o),
(636,601,cs),
(579,537,o),
(524,473,o),
(470,406,c),
(552,297,o),
(621,186,o),
(684,84,cs),
(693,69,o),
(697,54,o),
(697,39,cs)
);
}
);
userData = {
com.fontlab.hintData = {
hhints = (
{
position = 721;
width = 20;
}
);
};
};
width = 717;
}
);
unicode = (88,1061,935);
},
{
glyphname = Y;
layers = (
{
layerId = master01;
shapes = (
{
closed = 1;
nodes = (
(480,704,o),
(515,748,o),
(570,748,cs),
(608,748,o),
(642,724,o),
(654,686,cs),
(672,630,o),
(682,580,o),
(682,536,cs),
(682,486,o),
(670,442,o),
(648,406,cs),
(610,344,o),
(548,310,o),
(488,292,c),
(496,230,o),
(499,202,o),
(499,132,cs),
(499,84,o),
(499,46,o),
(495,-6,cs),
(493,-54,o),
(453,-90,o),
(405,-90,cs),
(403,-90,o),
(401,-90,o),
(399,-90,cs),
(353,-88,o),
(315,-46,o),
(315,2,cs),
(315,6,l),
(319,54,o),
(319,88,o),
(319,132,cs),
(319,196,o),
(316,216,o),
(308,272,c),
(242,278,o),
(170,296,o),
(112,354,cs),
(48,418,o),
(20,513,o),
(20,642,cs),
(20,668,l),
(22,714,o),
(62,754,o),
(110,754,cs),
(114,754,l),
(160,752,o),
(200,714,o),
(200,666,cs),
(200,642,ls),
(200,562,o),
(212,508,o),
(240,482,cs),
(262,460,o),
(300,450,o),
(360,450,cs),
(376,450,l),
(456,464,o),
(484,484,o),
(494,500,cs),
(500,508,o),
(502,522,o),
(502,538,cs),
(502,562,o),
(496,592,o),
(484,630,cs),
(480,640,o),
(480,650,o),
(480,658,cs)
);
}
);
userData = {
com.fontlab.hintData = {
hhints = (
{
position = 728;
width = 26;
}
);
vhints = (
{
position = 20;
width = 180;
},
{
position = 315;
width = 184;
},
{
position = 480;
width = 174;
},
{
position = 502;
width = 180;
}
);
};
};
width = 702;
}
);
unicode = (89,933);
},
{
glyphname = Z;
layers = (
{
layerId = master01;
shapes = (
{
closed = 1;
nodes = (
(674,530,o),
(718,499,o),
(718,443,cs),
(718,401,o),
(694,367,o),
(656,355,cs),
(538,315,o),
(442,286,o),
(365,266,c),
(353,235,o),
(348,209,o),
(345,189,cs),
(344,179,o),
(342,171,o),
(342,163,cs),
(342,161,o),
(342,159,o),
(342,157,cs),
(342,135,o),
(347,119,o),
(353,110,c),
(359,112,o),
(371,113,o),
(389,120,cs),
(417,129,o),
(453,145,o),
(494,163,cs),
(531,177,o),
(574,194,o),
(619,212,cs),
(629,216,o),
(639,218,o),
(649,218,cs),
(687,216,o),
(721,198,o),
(734,160,cs),
(738,150,o),
(740,140,o),
(740,130,cs),
(740,90,o),
(718,57,o),
(682,45,cs),
(641,29,o),
(602,13,o),
(565,-3,cs),
(479,-40,o),
(406,-71,o),
(342,-71,cs),
(313,-71,o),
(290,-64,o),
(266,-52,cs),
(260,-50,o),
(255,-45,o),
(249,-41,cs),
(191,10,o),
(162,75,o),
(162,158,cs),
(162,179,o),
(162,196,o),
(166,216,cs),
(168,220,o),
(169,226,o),
(169,230,c),
(165,230,o),
(161,231,o),
(157,231,cs),
(133,232,o),
(114,237,o),
(94,246,cs),
(55,266,o),
(40,299,o),
(35,313,cs),
(25,329,o),
(20,346,o),
(20,363,cs),
(20,390,o),
(31,414,o),
(51,432,cs),
(69,446,o),
(89,453,o),
(110,453,cs),
(137,453,o),
(161,442,o),
(177,422,cs),
(182,417,o),
(181,411,o),
(189,411,cs),
(199,411,o),
(215,415,o),
(235,419,c),
(255,460,o),
(280,502,o),
(306,547,c),
(225,547,o),
(153,549,o),
(90,568,cs),
(50,580,o),
(25,617,o),
(25,657,cs),
(25,659,o),
(25,660,o),
(25,662,cs),
(25,668,o),
(26,674,o),
(28,680,cs),
(40,720,o),
(78,745,o),
(118,745,cs),
(120,745,o),
(120,745,o),
(122,745,cs),
(128,745,o),
(134,744,o),
(140,742,cs),
(176,733,o),
(215,726,o),
(261,726,cs),
(321,726,o),
(391,735,o),
(471,753,cs),
(477,754,o),
(482,755,o),
(489,755,cs),
(522,755,o),
(551,743,o),
(567,716,cs),
(577,700,o),
(582,683,o),
(582,666,cs),
(582,647,o),
(577,628,o),
(565,614,cs),
(531,568,o),
(505,525,o),
(481,486,c),
(518,498,o),
(556,512,o),
(599,526,cs),
(607,528,o),
(617,530,o),
(627,530,cs)
);
}
);
userData = {
com.fontlab.hintData = {
hhints = (
{
position = 45;
width = 173;
},
{
position = 355;
width = 175;
},
{
position = 547;
width = 179;
},
{
position = 568;
width = 177;
},
{
position = 735;
width = 20;
}
);
vhints = (
{
position = 162;
width = 180;
}
);
};
};
width = 760;
}
);
unicode = 90;
},
{
glyphname = a;
layers = (
{
anchors = (
{
name = bottom;
pos = (296,-20);
},
{
name = top;
pos = (330,522);
}
);
layerId = master01;
shapes = (
{
closed = 1;
nodes = (
(544,387,o),
(532,366,o),
(520,350,c),
(524,350,o),
(528,352,o),
(532,352,cs),
(564,352,o),
(596,334,o),
(612,306,cs),
(642,254,o),
(704,196,o),
(776,184,cs),
(820,176,o),
(852,138,o),
(852,94,cs),
(852,90,o),
(850,84,o),
(850,80,cs),
(842,36,o),
(806,4,o),
(762,4,cs),
(756,4,o),
(752,6,o),
(746,6,cs),
(666,18,o),
(598,58,o),
(546,106,c),
(536,94,o),
(526,82,o),
(514,70,cs),
(466,28,o),
(404,2,o),
(322,-12,cs),
(320,-12,o),
(318,-12,o),
(316,-12,cs),
(300,-14,o),
(286,-16,o),
(270,-16,cs),
(188,-16,o),
(118,10,o),
(74,60,cs),
(48,88,o),
(20,134,o),
(20,204,cs),
(20,222,o),
(22,240,o),
(26,262,cs),
(46,360,o),
(108,444,o),
(192,490,cs),
(234,512,o),
(280,524,o),
(330,526,cs),
(382,526,o),
(434,516,o),
(488,494,cs),
(522,480,o),
(544,446,o),
(544,412,cs)
);
},
{
closed = 1;
nodes = (
(264,346,o),
(216,289,o),
(202,226,cs),
(201,221,o),
(200,212,o),
(200,204,cs),
(200,196,o),
(201,187,o),
(206,182,cs),
(214,172,o),
(238,164,o),
(270,164,cs),
(278,164,o),
(286,166,o),
(294,166,cs),
(392,182,o),
(406,210,o),
(440,278,cs),
(446,286,o),
(450,294,o),
(454,304,cs),
(458,310,o),
(462,316,o),
(466,322,c),
(461,321,o),
(455,320,o),
(450,320,cs),
(418,328,ls),
(390,340,o),
(362,346,o),
(338,346,cs)
);
}
);
userData = {
com.fontlab.hintData = {
hhints = (
{
position = -12;
width = 176;
},
{
position = 4;
width = 180;
},
{
position = 346;
width = 180;
}
);
};
};
width = 872;
}
);
unicode = (97,1072);
},
{
glyphname = aring;
layers = (
{
layerId = master01;
shapes = (
{
closed = 1;
nodes = (
(350,807,o),
(300,781,o),
(264,749,cs),
(230,717,o),
(222,695,o),
(222,691,cs),
(222,675,o),
(224,667,o),
(226,665,c),
(226,665,o),
(240,653,o),
(302,653,cs),
(314,653,l),
(402,663,o),
(438,701,o),
(438,789,cs),
(438,803,o),
(426,815,o),
(408,825,c)
);
},
{
closed = 1;
nodes = (
(264,357,o),
(216,300,o),
(202,237,cs),
(201,232,o),
(200,223,o),
(200,215,cs),
(200,207,o),
(201,198,o),
(206,193,cs),
(214,183,o),
(238,175,o),
(270,175,cs),
(278,175,o),
(286,177,o),
(294,177,cs),
(392,193,o),
(406,221,o),
(440,289,cs),
(446,297,o),
(450,305,o),
(454,315,cs),
(458,321,o),
(462,327,o),
(466,333,c),
(461,332,o),
(455,331,o),
(450,331,cs),
(418,339,ls),
(390,351,o),
(362,357,o),
(338,357,cs)
);
},
{
closed = 1;
nodes = (
(544,398,o),
(532,377,o),
(520,361,c),
(524,361,o),
(528,363,o),
(532,363,cs),
(564,363,o),
(596,345,o),
(612,317,cs),
(642,265,o),
(704,207,o),
(776,195,cs),
(820,187,o),
(852,149,o),
(852,105,cs),
(852,101,o),
(850,95,o),
(850,91,cs),
(842,47,o),
(806,15,o),
(762,15,cs),
(756,15,o),
(752,17,o),
(746,17,cs),
(666,29,o),
(598,69,o),
(546,117,c),
(536,105,o),
(526,93,o),
(514,81,cs),
(466,39,o),
(404,13,o),
(322,-1,cs),
(320,-1,o),
(318,-1,o),
(316,-1,cs),
(300,-3,o),
(286,-5,o),
(270,-5,cs),
(188,-5,o),
(118,21,o),
(74,71,cs),
(48,99,o),
(20,145,o),
(20,215,cs),
(20,233,o),
(22,251,o),
(26,273,cs),
(46,369,o),
(106,451,o),
(186,499,c),
(158,507,o),
(128,521,o),
(104,543,cs),
(68,579,o),
(48,629,o),
(48,691,cs),
(48,773,o),
(112,861,o),
(210,923,c),
(210,931,ls),
(210,975,o),
(250,1015,o),
(298,1015,cs),
(382,1015,o),
(456,997,o),
(510,963,cs),
(576,921,o),
(612,861,o),
(612,789,cs),
(612,709,o),
(590,643,o),
(550,591,cs),
(526,559,o),
(494,535,o),
(456,517,c),
(466,513,o),
(478,509,o),
(488,505,cs),
(522,491,o),
(544,457,o),
(544,423,cs)
);
}
);
userData = {
com.fontlab.hintData = {
hhints = (
{
position = -5;
width = 180;
},
{
position = 15;
width = 180;
},
{
position = 357;
width = 296;
}
);
vhints = (
{
position = 20;
width = 180;
},
{
position = 48;
width = 174;
},
{
position = 438;
width = 174;
}
);
};
};
width = 872;
}
);
unicode = 229;
},
{
glyphname = ae;
layers = (
{
layerId = master01;
shapes = (
{
closed = 1;
nodes = (
(981,174,o),
(1026,136,o),
(1026,84,cs),
(1026,56,o),
(1012,28,o),
(988,12,cs),
(920,-38,o),
(842,-64,o),
(766,-64,cs),
(730,-64,o),
(696,-58,o),
(662,-46,cs),
(602,-26,o),
(552,10,o),
(518,58,c),
(482,-13,o),
(410,-56,o),
(330,-56,cs),
(292,-56,o),
(236,-52,o),
(188,-26,cs),
(122,6,o),
(86,64,o),
(86,136,cs),
(86,174,o),
(100,232,o),
(162,280,cs),
(196,304,o),
(238,324,o),
(294,340,c),
(298,340,l),
(298,342,l),
(238,370,o),
(170,386,o),
(110,386,cs),
(60,386,o),
(20,426,o),
(20,476,cs),
(20,526,o),
(60,566,o),
(110,566,cs),
(206,566,o),
(312,540,o),
(400,492,cs),
(432,474,o),
(462,454,o),
(484,434,c),
(500,476,o),
(520,512,o),
(548,540,cs),
(552,544,o),
(556,546,o),
(560,550,cs),
(618,592,o),
(674,614,o),
(728,614,cs),
(736,614,l),
(776,612,o),
(838,598,o),
(894,536,cs),
(916,514,o),
(926,474,o),
(926,440,cs),
(926,416,o),
(920,390,o),
(910,364,cs),
(876,288,o),
(804,236,o),
(712,220,cs),
(694,216,o),
(674,214,o),
(648,210,c),
(650,202,o),
(652,192,o),
(654,182,cs),
(666,146,o),
(711,116,o),
(768,116,cs),
(800,116,o),
(838,126,o),
(882,158,cs),
(898,170,o),
(916,174,o),
(934,174,cs)
);
},
{
closed = 1;
nodes = (
(278,130,o),
(298,124,o),
(330,124,cs),
(354,124,o),
(365,147,o),
(374,174,c),
(304,158,o),
(276,142,o),
(268,134,c)
);
},
{
closed = 1;
nodes = (
(668,404,o),
(666,400,o),
(662,394,c),
(668,394,o),
(674,396,o),
(678,396,cs),
(680,396,o),
(680,398,o),
(682,398,cs),
(716,402,o),
(734,420,o),
(742,430,c),
(736,434,o),
(734,434,o),
(732,434,cs),
(724,434,o),
(706,432,o),
(672,408,cs)
);
}
);
userData = {
com.fontlab.hintData = {
hhints = (
{
position = -64;
width = 180;
},
{
position = -56;
width = 180;
},
{
position = 386;
width = 180;
},
{
position = 434;
width = 180;
}
);
};
};
width = 1046;
}
);
unicode = 230;
},
{
glyphname = b;
layers = (
{
layerId = master01;
shapes = (
{
closed = 1;
nodes = (
(20,915,o),
(57,959,o),
(110,959,cs),
(142,959,o),
(172,943,o),
(188,913,cs),
(254,797,o),
(320,665,o),
(380,525,c),
(420,555,o),
(466,571,o),
(512,573,c),
(514,573,ls),
(590,573,o),
(666,553,o),
(732,519,cs),
(804,479,o),
(856,423,o),
(878,359,cs),
(890,323,o),
(896,289,o),
(896,257,cs),
(896,223,o),
(888,193,o),
(874,163,cs),
(844,101,o),
(786,55,o),
(698,25,cs),
(692,25,o),
(688,23,o),
(682,23,cs),
(652,17,o),
(624,15,o),
(594,15,cs),
(570,15,o),
(544,17,o),
(520,19,c),
(504,3,o),
(484,-7,o),
(454,-7,cs),
(418,-7,o),
(382,15,o),
(370,53,c),
(360,55,o),
(348,59,o),
(338,63,cs),
(302,75,o),
(278,111,o),
(278,147,cs),
(278,157,o),
(280,167,o),
(284,177,cs),
(288,193,o),
(298,207,o),
(312,217,c),
(228,439,o),
(132,649,o),
(32,825,cs),
(24,839,o),
(20,855,o),
(20,869,cs)
);
},
{
closed = 1;
nodes = (
(715,246,o),
(716,252,o),
(716,259,cs),
(716,273,o),
(711,290,o),
(706,303,cs),
(689,355,o),
(584,393,o),
(516,393,cs),
(494,391,o),
(472,373,o),
(456,345,c),
(474,297,o),
(492,251,o),
(508,203,c),
(538,199,o),
(566,195,o),
(594,195,cs),
(612,195,o),
(630,197,o),
(648,199,c),
(682,211,o),
(706,227,o),
(712,241,cs)
);
}
);
userData = {
com.fontlab.hintData = {
hhints = (
{
position = -7;
width = 21;
},
{
position = 15;
width = 180;
},
{
position = 393;
width = 180;
},
{
position = 939;
width = 20;
}
);
vhints = (
{
position = 716;
width = 180;
}
);
};
};
width = 916;
}
);
unicode = 98;
},
{
glyphname = c;
layers = (
{
layerId = master01;
shapes = (
{
closed = 1;
nodes = (
(342,-11,ls),
(203,-11,o),
(20,107,o),
(20,259,cs),
(20,261,o),
(20,263,o),
(20,265,cs),
(20,331,o),
(60,403,o),
(130,459,cs),
(170,489,o),
(214,513,o),
(258,529,cs),
(292,539,o),
(326,545,o),
(360,545,cs),
(378,545,o),
(396,543,o),
(414,539,cs),
(456,529,o),
(484,493,o),
(484,451,cs),
(484,396,o),
(442,361,o),
(394,361,cs),
(379,361,o),
(369,365,o),
(356,365,cs),
(326,365,o),
(284,349,o),
(250,323,cs),
(214,297,o),
(200,269,o),
(200,263,cs),
(200,261,ls),
(200,255,o),
(206,241,o),
(222,225,cs),
(254,193,o),
(304,169,o),
(342,169,cs),
(388,171,o),
(448,183,o),
(480,221,cs),
(498,243,o),
(524,255,o),
(550,255,cs),
(600,255,o),
(640,211,o),
(640,165,cs),
(640,145,o),
(632,125,o),
(620,109,cs),
(561,38,o),
(472,-3,o),
(350,-11,c)
);
}
);
userData = {
com.fontlab.hintData = {
hhints = (
{
position = -11;
width = 180;
},
{
position = 365;
width = 180;
}
);
};
};
width = 660;
}
);
unicode = (99,1089);
},
{
glyphname = ccedilla;
layers = (
{
layerId = master01;
shapes = (
{
closed = 1;
nodes = (
(600,238,o),
(640,194,o),
(640,148,cs),
(640,128,o),
(632,108,o),
(620,92,cs),
(590,56,o),
(552,26,o),
(504,6,cs),
(490,0,o),
(476,-6,o),
(460,-10,c),
(478,-50,o),
(486,-86,o),
(490,-120,c),
(510,-120,ls),
(582,-120,o),
(650,-140,o),
(706,-176,cs),
(778,-224,o),
(820,-294,o),
(820,-370,cs),
(820,-462,o),
(792,-530,o),
(736,-576,cs),
(680,-624,o),
(604,-638,o),
(530,-638,cs),
(492,-638,o),
(456,-634,o),
(418,-630,cs),
(372,-624,o),
(338,-588,o),
(338,-546,cs),
(338,-542,o),
(338,-538,o),
(340,-534,cs),
(344,-490,o),
(386,-458,o),
(430,-458,cs),
(434,-458,o),
(438,-458,o),
(442,-460,cs),
(476,-464,o),
(506,-466,o),
(532,-466,cs),
(574,-466,o),
(600,-460,o),
(614,-448,cs),
(634,-432,o),
(636,-398,o),
(636,-370,cs),
(636,-346,o),
(614,-326,o),
(602,-318,cs),
(582,-304,o),
(548,-294,o),
(508,-294,cs),
(484,-294,o),
(458,-298,o),
(430,-308,cs),
(418,-310,o),
(408,-312,o),
(396,-312,cs),
(348,-312,o),
(306,-272,o),
(306,-228,cs),
(306,-220,l),
(308,-198,o),
(310,-182,o),
(310,-166,cs),
(310,-120,o),
(300,-88,o),
(268,-26,cs),
(266,-24,o),
(264,-20,o),
(264,-18,cs),
(202,0,o),
(140,34,o),
(94,80,cs),
(46,130,o),
(20,184,o),
(20,242,cs),
(20,244,o),
(20,246,o),
(20,248,cs),
(20,314,o),
(60,386,o),
(130,442,cs),
(170,472,o),
(214,496,o),
(258,512,cs),
(292,522,o),
(326,528,o),
(360,528,cs),
(378,528,o),
(396,526,o),
(414,522,cs),
(456,512,o),
(484,476,o),
(484,434,cs),
(484,379,o),
(442,344,o),
(394,344,cs),
(379,344,o),
(369,348,o),
(356,348,cs),
(326,348,o),
(284,332,o),
(250,306,cs),
(214,280,o),
(200,252,o),
(200,246,cs),
(200,244,ls),
(200,238,o),
(206,224,o),
(222,208,cs),
(254,176,o),
(304,152,o),
(342,152,cs),
(388,154,o),
(448,166,o),
(480,204,cs),
(498,226,o),
(524,238,o),
(550,238,cs)
);
}
);
userData = {
com.fontlab.hintData = {
hhints = (
{
position = -638;
width = 172;
},
{
position = -630;
width = 172;
},
{
position = -312;
width = 464;
},
{
position = -294;
width = 174;
},
{
position = 348;
width = 180;
}
);
vhints = (
{
position = 636;
width = 184;
}
);
};
};
width = 840;
}
);
unicode = 231;
},
{
glyphname = d;
layers = (
{
layerId = master01;
shapes = (
{
closed = 1;
nodes = (
(674,141,o),
(523,22,o),
(330,18,c),
(328,18,ls),
(246,18,o),
(174,40,o),
(120,80,cs),
(56,128,o),
(20,200,o),
(20,282,cs),
(20,433,o),
(145,536,o),
(284,564,cs),
(286,564,o),
(288,566,o),
(290,566,cs),
(314,568,o),
(336,570,o),
(360,570,cs),
(374,570,o),
(388,570,o),
(402,568,c),
(394,586,o),
(384,604,o),
(376,622,cs),
(308,762,o),
(284,816,o),
(282,856,c),
(282,860,ls),
(282,908,o),
(320,948,o),
(368,952,c),
(372,952,ls),
(418,952,o),
(458,916,o),
(462,870,cs),
(468,846,o),
(508,762,o),
(538,700,cs),
(620,530,o),
(674,412,o),
(674,338,cs),
(674,330,ls)
);
},
{
closed = 1;
nodes = (
(262,376,o),
(200,340,o),
(200,282,cs),
(200,256,o),
(208,238,o),
(226,224,cs),
(246,210,o),
(278,198,o),
(316,198,cs),
(326,198,l),
(372,200,o),
(496,224,o),
(496,318,cs),
(496,328,o),
(494,338,o),
(492,348,c),
(476,352,o),
(460,360,o),
(448,372,cs),
(440,378,o),
(406,390,o),
(356,390,cs),
(344,390,o),
(332,390,o),
(318,388,cs)
);
}
);
userData = {
com.fontlab.hintData = {
hhints = (
{
position = 18;
width = 180;
},
{
position = 390;
width = 180;
},
{
position = 932;
width = 20;
}
);
vhints = (
{
position = 20;
width = 180;
},
{
position = 282;
width = 180;
},
{
position = 496;
width = 178;
}
);
};
};
width = 694;
}
);
unicode = 100;
},
{
glyphname = eth;
layers = (
{
layerId = master01;
shapes = (
{
closed = 1;
nodes = (
(609,920,o),
(654,886,o),
(654,830,cs),
(654,796,o),
(636,764,o),
(604,748,cs),
(598,746,o),
(592,744,o),
(586,740,c),
(670,664,o),
(718,536,o),
(718,370,cs),
(718,268,o),
(674,174,o),
(594,106,cs),
(528,50,o),
(442,16,o),
(364,16,cs),
(294,16,o),
(232,46,o),
(188,100,cs),
(150,146,o),
(128,206,o),
(128,266,cs),
(128,326,o),
(156,388,o),
(206,436,cs),
(220,450,o),
(238,464,o),
(254,474,c),
(252,476,o),
(250,476,o),
(248,478,cs),
(216,494,o),
(198,524,o),
(198,556,cs),
(198,568,o),
(200,578,o),
(204,588,c),
(194,580,o),
(184,572,o),
(172,562,cs),
(156,544,o),
(132,536,o),
(108,536,cs),
(86,536,o),
(64,544,o),
(46,562,cs),
(28,580,o),
(20,602,o),
(20,624,cs),
(20,648,o),
(30,672,o),
(48,690,cs),
(126,768,o),
(212,818,o),
(372,818,cs),
(374,818,o),
(376,818,o),
(378,818,cs),
(420,854,o),
(468,884,o),
(526,912,cs),
(538,918,o),
(550,920,o),
(564,920,cs)
);
},
{
closed = 1;
nodes = (
(410,196,o),
(482,228,o),
(518,292,c),
(516,294,l),
(512,304,o),
(496,334,o),
(398,336,cs),
(340,336,o),
(308,284,o),
(308,266,cs),
(308,240,o),
(324,196,o),
(364,196,cs)
);
},
{
closed = 1;
nodes = (
(448,516,o),
(488,510,o),
(524,498,c),
(510,552,o),
(484,602,o),
(436,624,c),
(412,594,o),
(390,560,o),
(368,518,cs),
(368,516,o),
(368,516,o),
(366,514,c),
(378,516,o),
(388,516,o),
(400,516,cs),
(402,516,ls)
);
}
);
userData = {
com.fontlab.hintData = {
hhints = (
{
position = 16;
width = 180;
},
{
position = 336;
width = 180;
}
);
vhints = (
{
position = 128;
width = 180;
}
);
};
};
width = 738;
}
);
unicode = 240;
},
{
glyphname = e;
layers = (
{
anchors = (
{
name = bottom;
pos = (376,-64);
},
{
name = top;
pos = (392,598);
}
);
layerId = master01;
shapes = (
{
closed = 1;
nodes = (
(673,172,o),
(716,133,o),
(716,80,cs),
(716,50,o),
(700,20,o),
(670,2,cs),
(594,-40,o),
(492,-62,o),
(362,-62,cs),
(272,-62,o),
(186,-30,o),
(122,28,cs),
(58,86,o),
(20,166,o),
(20,250,cs),
(20,324,o),
(50,402,o),
(102,464,cs),
(164,536,o),
(252,582,o),
(356,600,cs),
(360,600,o),
(362,602,o),
(366,602,cs),
(388,602,ls),
(442,602,o),
(484,596,o),
(518,580,cs),
(570,558,o),
(606,518,o),
(618,468,cs),
(618,460,o),
(620,452,o),
(620,444,cs),
(618,410,o),
(614,358,o),
(584,314,cs),
(560,278,o),
(512,236,o),
(422,236,cs),
(420,236,o),
(418,236,o),
(416,236,cs),
(216,238,l),
(200,238,l),
(208,172,o),
(278,118,o),
(362,118,cs),
(460,118,o),
(534,132,o),
(582,160,cs),
(596,168,o),
(610,172,o),
(626,172,cs)
);
},
{
closed = 1;
nodes = (
(418,416,ls),
(428,416,o),
(432,416,o),
(436,418,c),
(424,420,o),
(408,422,o),
(380,422,cs),
(372,420,o),
(362,418,o),
(354,416,c)
);
}
);
userData = {
com.fontlab.hintData = {
hhints = (
{
position = -62;
width = 180;
},
{
position = 422;
width = 180;
}
);
};
};
width = 736;
}
);
unicode = (101,1077);
},
{
glyphname = f;
layers = (
{
layerId = master01;
shapes = (
{
closed = 1;
nodes = (
(666,236,o),
(624,202,o),
(576,202,cs),
(550,202,o),
(532,211,o),
(506,214,c),
(522,184,o),
(538,152,o),
(550,118,cs),
(556,106,o),
(558,94,o),
(558,82,cs),
(558,48,o),
(536,16,o),
(502,2,cs),
(490,-4,o),
(480,-6,o),
(468,-6,cs),
(432,-6,o),
(398,16,o),
(384,50,cs),
(358,112,o),
(328,170,o),
(294,226,c),
(272,224,o),
(250,222,o),
(228,220,cs),
(224,220,o),
(220,220,o),
(216,220,cs),
(172,220,o),
(132,252,o),
(126,298,c),
(126,308,ls),
(126,346,o),
(148,380,o),
(182,392,c),
(162,420,o),
(144,444,o),
(126,466,cs),
(118,480,o),
(108,490,o),
(100,502,cs),
(100,502,o),
(100,504,o),
(98,504,cs),
(78,534,o),
(50,582,o),
(34,640,cs),
(24,672,o),
(20,702,o),
(20,730,cs),
(20,758,o),
(24,784,o),
(32,808,cs),
(50,854,o),
(90,918,o),
(186,948,c),
(188,948,l),
(216,956,o),
(242,960,o),
(266,960,cs),
(354,960,o),
(422,910,o),
(460,820,cs),
(460,816,o),
(462,812,o),
(462,808,cs),
(466,790,o),
(468,774,o),
(468,758,cs),
(468,718,o),
(454,688,o),
(440,668,cs),
(418,636,o),
(372,594,o),
(278,582,cs),
(274,582,o),
(270,582,o),
(266,582,c),
(266,580,o),
(268,578,o),
(270,576,cs),
(304,532,o),
(348,474,o),
(392,406,c),
(468,404,o),
(538,394,o),
(600,378,cs),
(640,368,o),
(666,332,o),
(666,292,cs)
);
},
{
closed = 1;
nodes = (
(202,744,o),
(200,738,o),
(200,732,c),
(214,748,o),
(234,758,o),
(256,762,cs),
(270,764,o),
(278,766,o),
(284,768,c),
(280,774,o),
(278,778,o),
(276,778,cs),
(274,779,o),
(270,780,o),
(264,780,cs),
(258,780,o),
(250,779,o),
(240,776,cs),
(208,766,o),
(204,754,o),
(202,748,cs)
);
}
);
userData = {
com.fontlab.hintData = {
hhints = (
{
position = -6;
width = 21;
},
{
position = 202;
width = 204;
},
{
position = 940;
width = 20;
}
);
vhints = (
{
position = 384;
width = 174;
}
);
};
};
width = 686;
}
);
unicode = 102;
},
{
glyphname = g;
layers = (
{
layerId = master01;
shapes = (
{
closed = 1;
nodes = (
(606,-742,o),
(484,-704,o),
(396,-666,cs),
(246,-600,o),
(174,-528,o),
(174,-446,cs),
(174,-392,o),
(214,-350,o),
(242,-322,cs),
(270,-298,o),
(308,-270,o),
(350,-246,cs),
(390,-220,o),
(486,-168,o),
(572,-156,c),
(524,64,l),
(458,18,o),
(374,-8,o),
(284,-8,cs),
(110,-8,o),
(20,102,o),
(20,212,cs),
(20,294,o),
(98,374,o),
(142,414,cs),
(188,454,o),
(278,520,o),
(372,520,cs),
(550,520,o),
(644,375,o),
(676,210,c),
(774,-234,l),
(814,-382,o),
(828,-480,o),
(828,-550,cs),
(828,-626,o),
(810,-664,o),
(790,-690,cs),
(764,-724,o),
(728,-742,o),
(686,-742,cs)
);
},
{
closed = 1;
nodes = (
(394,-464,o),
(434,-486,o),
(496,-512,cs),
(554,-536,o),
(610,-550,o),
(648,-558,c),
(648,-524,o),
(644,-458,o),
(612,-332,c),
(610,-334,o),
(608,-334,o),
(604,-334,cs),
(586,-334,o),
(534,-348,o),
(464,-386,cs),
(422,-410,o),
(392,-432,o),
(372,-448,c)
);
},
{
closed = 1;
nodes = (
(206,186,o),
(238,172,o),
(284,172,cs),
(358,172,o),
(428,202,o),
(456,248,cs),
(460,256,o),
(464,262,o),
(470,268,c),
(436,340,o),
(392,340,o),
(372,340,cs),
(358,340,o),
(320,326,o),
(274,288,cs),
(232,254,o),
(208,222,o),
(200,208,c)
);
}
);
userData = {
com.fontlab.hintData = {
hhints = (
{
position = -8;
width = 180;
},
{
position = 340;
width = 180;
}
);
vhints = (
{
position = 648;
width = 180;
}
);
};
};
width = 848;
}
);
unicode = 103;
},
{
glyphname = h;
layers = (
{
layerId = master01;
shapes = (
{
closed = 1;
nodes = (
(928,37,o),
(891,-6,o),
(838,-6,cs),
(806,-6,o),
(774,10,o),
(758,42,cs),
(684,184,o),
(612,236,o),
(582,236,cs),
(580,236,ls),
(572,236,o),
(556,236,o),
(530,202,cs),
(506,170,o),
(482,122,o),
(458,52,cs),
(444,18,o),
(412,-6,o),
(374,-6,cs),
(370,-6,ls),
(332,-6,o),
(298,20,o),
(286,58,cs),
(210,320,o),
(148,466,o),
(40,602,cs),
(26,618,o),
(20,638,o),
(20,658,cs),
(20,706,o),
(57,748,o),
(110,748,cs),
(136,748,o),
(162,738,o),
(180,714,cs),
(270,602,o),
(328,486,o),
(392,318,c),
(433,370,o),
(495,416,o),
(578,416,cs),
(580,416,ls),
(742,416,o),
(860,234,o),
(918,124,cs),
(926,110,o),
(928,96,o),
(928,82,cs)
);
}
);
userData = {
com.fontlab.hintData = {
hhints = (
{
position = -6;
width = 21;
},
{
position = 728;
width = 20;
}
);
};
};
width = 948;
}
);
unicode = 104;
},
{
glyphname = i;
layers = (
{
layerId = master01;
shapes = (
{
closed = 1;
nodes = (
(567,266,o),
(612,225,o),
(612,178,cs),
(612,152,o),
(602,128,o),
(582,110,cs),
(502,38,o),
(444,-10,o),
(340,-10,cs),
(316,-10,o),
(272,-2,o),
(238,52,cs),
(224,72,o),
(214,100,o),
(204,136,cs),
(188,190,o),
(172,272,o),
(150,406,cs),
(150,410,o),
(148,416,o),
(148,420,cs),
(148,462,o),
(180,500,o),
(224,508,cs),
(228,508,o),
(234,510,o),
(238,510,cs),
(282,510,o),
(320,478,o),
(328,434,cs),
(342,340,o),
(354,274,o),
(366,228,cs),
(370,206,o),
(374,190,o),
(378,178,c),
(396,186,o),
(418,204,o),
(460,242,cs),
(478,258,o),
(500,266,o),
(522,266,cs)
);
},
{
closed = 1;
nodes = (
(294,593,o),
(250,558,o),
(204,558,cs),
(196,558,o),
(186,560,o),
(176,562,cs),
(150,570,o),
(130,574,o),
(110,574,cs),
(60,574,o),
(20,614,o),
(20,664,cs),
(20,714,o),
(60,754,o),
(110,754,cs),
(150,754,o),
(188,748,o),
(232,734,cs),
(270,722,o),
(294,686,o),
(294,648,cs)
);
}
);
userData = {
com.fontlab.hintData = {
hhints = (
{
position = -10;
width = 21;
},
{
position = 490;
width = 20;
},
{
position = 558;
width = 176;
},
{
position = 574;
width = 180;
}
);
vhints = (
{
position = 20;
width = 274;
}
);
};
};
width = 632;
}
);
unicode = (105,1110);
},
{
glyphname = dotlessi;
layers = (
{
anchors = (
{
name = bottom;
pos = (212,-13);
},
{
name = top;
pos = (104,509);
}
);
layerId = master01;
shapes = (
{
closed = 1;
nodes = (
(439,271,o),
(484,230,o),
(484,183,cs),
(484,157,o),
(474,133,o),
(454,115,cs),
(374,43,o),
(316,-5,o),
(212,-5,cs),
(188,-5,o),
(144,3,o),
(110,57,cs),
(96,77,o),
(86,105,o),
(76,141,cs),
(60,195,o),
(44,277,o),
(22,411,cs),
(22,415,o),
(20,421,o),
(20,425,cs),
(20,467,o),
(52,505,o),
(96,513,cs),
(100,513,o),
(106,515,o),
(110,515,cs),
(154,515,o),
(192,483,o),
(200,439,cs),
(214,345,o),
(226,279,o),
(238,233,cs),
(242,211,o),
(246,195,o),
(250,183,c),
(268,191,o),
(290,209,o),
(332,247,cs),
(350,263,o),
(372,271,o),
(394,271,cs)
);
}
);
userData = {
com.fontlab.hintData = {
hhints = (
{
position = -5;
width = 21;
},
{
position = 495;
width = 20;
}
);
};
};
width = 504;
}
);
unicode = 305;
},
{
glyphname = j;
layers = (
{
layerId = master01;
shapes = (
{
closed = 1;
nodes = (
(168,469,o),
(205,512,o),
(260,512,cs),
(302,512,o),
(340,482,o),
(348,438,cs),
(370,320,o),
(452,120,o),
(518,-42,cs),
(564,-156,o),
(606,-254,o),
(622,-316,cs),
(624,-318,o),
(624,-320,o),
(624,-320,c),
(630,-346,o),
(632,-372,o),
(632,-398,cs),
(632,-470,o),
(610,-538,o),
(568,-592,cs),
(512,-662,o),
(428,-702,o),
(336,-702,cs),
(256,-702,o),
(180,-676,o),
(122,-630,cs),
(56,-578,o),
(20,-504,o),
(20,-428,cs),
(20,-304,o),
(74,-230,o),
(118,-190,cs),
(170,-146,o),
(238,-120,o),
(304,-120,cs),
(356,-120,l),
(354,-118,o),
(354,-114,o),
(352,-110,cs),
(278,68,o),
(196,268,o),
(170,406,cs),
(170,410,o),
(168,416,o),
(168,420,cs)
);
},
{
closed = 1;
nodes = (
(452,-366,o),
(444,-347,o),
(434,-318,c),
(418,-318,o),
(402,-312,o),
(388,-302,c),
(378,-300,o),
(358,-300,o),
(340,-300,cs),
(304,-300,ls),
(288,-300,o),
(200,-306,o),
(200,-428,cs),
(200,-478,o),
(264,-522,o),
(336,-522,cs),
(384,-522,o),
(412,-500,o),
(426,-480,cs),
(444,-458,o),
(452,-430,o),
(452,-400,cs)
);
},
{
closed = 1;
nodes = (
(380,-296,l)
);
},
{
closed = 1;
nodes = (
(276,607,o),
(231,568,o),
(186,568,cs),
(168,568,o),
(150,572,o),
(136,584,c),
(84,618,ls),
(58,636,o),
(44,664,o),
(44,692,cs),
(44,710,o),
(50,728,o),
(60,744,cs),
(78,768,o),
(106,782,o),
(134,782,cs),
(152,782,o),
(170,776,o),
(186,766,cs),
(236,732,ls),
(262,714,o),
(276,686,o),
(276,658,cs)
);
}
);
userData = {
com.fontlab.hintData = {
hhints = (
{
position = -702;
width = 180;
},
{
position = -300;
width = 180;
},
{
position = 492;
width = 20;
},
{
position = 568;
width = 214;
}
);
vhints = (
{
position = 20;
width = 180;
},
{
position = 44;
width = 232;
},
{
position = 168;
width = 180;
},
{
position = 452;
width = 180;
}
);
};
};
width = 652;
}
);
unicode = (106,1112);
},
{
glyphname = k;
layers = (
{
layerId = master01;
shapes = (
{
closed = 1;
nodes = (
(20,906,o),
(56,952,o),
(108,952,cs),
(138,952,o),
(168,938,o),
(186,912,cs),
(232,838,o),
(282,706,o),
(332,562,c),
(394,570,o),
(450,574,o),
(500,574,cs),
(570,574,o),
(630,566,o),
(682,554,cs),
(716,546,o),
(744,516,o),
(750,482,cs),
(750,476,o),
(752,468,o),
(752,460,cs),
(752,418,o),
(736,366,o),
(704,298,cs),
(690,268,o),
(672,236,o),
(652,202,c),
(770,176,o),
(846,142,o),
(892,96,cs),
(908,78,o),
(918,56,o),
(918,32,cs),
(918,8,o),
(908,-14,o),
(890,-32,cs),
(874,-50,o),
(850,-58,o),
(828,-58,cs),
(804,-58,o),
(780,-50,o),
(764,-32,cs),
(750,-16,o),
(694,20,o),
(490,48,cs),
(478,50,o),
(468,54,o),
(460,58,c),
(445,28,o),
(419,4,o),
(376,4,cs),
(336,4,o),
(298,30,o),
(288,72,cs),
(208,402,o),
(112,692,o),
(34,812,cs),
(24,828,o),
(20,844,o),
(20,860,cs)
);
},
{
closed = 1;
nodes = (
(496,286,o),
(530,348,o),
(550,392,c),
(534,392,o),
(516,394,o),
(496,394,cs),
(464,394,o),
(428,392,o),
(390,388,c),
(406,330,o),
(424,270,o),
(440,206,c)
);
}
);
userData = {
com.fontlab.hintData = {
hhints = (
{
position = 4;
width = 21;
},
{
position = 394;
width = 180;
},
{
position = 932;
width = 20;
}
);
};
};
width = 938;
}
);
unicode = 107;
},
{
glyphname = l;
layers = (
{
layerId = master01;
shapes = (
{
closed = 1;
nodes = (
(534,269,o),
(580,234,o),
(580,179,cs),
(580,143,o),
(558,109,o),
(522,95,cs),
(449,67,o),
(356,19,o),
(282,19,cs),
(266,19,o),
(248,23,o),
(230,27,cs),
(224,29,o),
(218,31,o),
(212,33,cs),
(154,63,o),
(122,135,o),
(88,303,cs),
(68,409,o),
(44,663,o),
(20,863,c),
(20,873,ls),
(20,919,o),
(54,957,o),
(100,963,c),
(110,963,ls),
(154,963,o),
(194,929,o),
(200,883,cs),
(220,711,o),
(240,469,o),
(258,373,cs),
(276,275,o),
(290,227,o),
(300,203,c),
(339,212,o),
(411,246,o),
(458,263,cs),
(468,267,o),
(480,269,o),
(490,269,cs)
);
}
);
userData = {
com.fontlab.hintData = {
hhints = (
{
position = 19;
width = 21;
},
{
position = 943;
width = 20;
}
);
vhints = (
{
position = 20;
width = 180;
}
);
};
};
width = 600;
}
);
unicode = 108;
},
{
glyphname = m;
layers = (
{
layerId = master01;
shapes = (
{
closed = 1;
nodes = (
(958,28,o),
(923,-14,o),
(868,-14,cs),
(828,-14,o),
(790,14,o),
(780,56,cs),
(776,76,o),
(772,96,o),
(768,116,cs),
(752,186,o),
(738,254,o),
(718,314,c),
(677,263,o),
(648,213,o),
(594,162,cs),
(578,146,o),
(554,136,o),
(530,136,cs),
(526,136,o),
(520,138,o),
(516,138,cs),
(488,142,o),
(464,162,o),
(450,188,cs),
(434,222,o),
(412,260,o),
(388,294,c),
(360,225,o),
(336,141,o),
(314,64,cs),
(304,24,o),
(268,0,o),
(226,0,cs),
(218,0,l),
(176,4,o),
(142,40,o),
(138,84,cs),
(132,184,o),
(116,324,o),
(48,386,cs),
(30,404,o),
(20,428,o),
(20,452,cs),
(20,474,o),
(28,496,o),
(44,514,cs),
(62,532,o),
(86,542,o),
(110,542,cs),
(132,542,o),
(154,534,o),
(172,518,cs),
(202,490,o),
(228,454,o),
(246,416,c),
(254,432,o),
(264,446,o),
(272,458,cs),
(312,512,o),
(358,522,o),
(388,522,cs),
(402,520,o),
(416,516,o),
(428,508,cs),
(468,486,o),
(510,434,o),
(544,384,c),
(546,384,o),
(548,386,o),
(548,388,cs),
(590,444,o),
(632,502,o),
(696,534,cs),
(708,540,o),
(720,544,o),
(734,544,cs),
(748,544,o),
(760,540,o),
(772,534,cs),
(838,504,o),
(870,428,o),
(892,364,cs),
(917,283,o),
(936,186,o),
(956,96,cs),
(958,88,o),
(958,82,o),
(958,74,cs)
);
},
{
closed = 1;
nodes = (
(336,354,l)
);
}
);
userData = {
com.fontlab.hintData = {
hhints = (
{
position = 0;
width = 7;
}
);
vhints = (
{
position = 138;
width = 176;
}
);
};
};
width = 978;
}
);
unicode = 109;
},
{
glyphname = n;
layers = (
{
layerId = master01;
shapes = (
{
closed = 1;
nodes = (
(186,-44,o),
(150,-14,o),
(140,28,cs),
(123,106,o),
(83,293,o),
(48,328,cs),
(30,346,o),
(20,370,o),
(20,392,cs),
(20,416,o),
(28,438,o),
(46,454,cs),
(64,472,o),
(88,482,o),
(112,482,cs),
(132,482,o),
(154,474,o),
(172,458,cs),
(196,434,o),
(216,402,o),
(236,358,c),
(263,412,o),
(307,460,o),
(346,494,cs),
(388,526,o),
(430,546,o),
(476,552,cs),
(480,554,o),
(484,554,o),
(490,554,cs),
(520,554,o),
(568,542,o),
(608,484,cs),
(628,456,o),
(646,420,o),
(662,376,cs),
(688,300,o),
(710,200,o),
(722,96,cs),
(722,92,o),
(722,88,o),
(722,84,cs),
(722,40,o),
(690,2,o),
(644,-4,cs),
(640,-6,o),
(636,-6,o),
(634,-6,cs),
(588,-6,o),
(550,28,o),
(544,74,cs),
(530,176,o),
(508,291,o),
(472,362,c),
(448,348,o),
(424,320,o),
(402,286,cs),
(360,220,o),
(330,132,o),
(318,34,cs),
(312,-8,o),
(276,-42,o),
(232,-44,c),
(228,-44,ls)
);
}
);
userData = {
com.fontlab.hintData = {
hhints = (
{
position = -6;
width = 21;
}
);
vhints = (
{
position = 140;
width = 178;
},
{
position = 544;
width = 178;
}
);
};
};
width = 742;
}
);
unicode = 110;
},
{
glyphname = o;
layers = (
{
anchors = (
{
name = bottom;
pos = (358,-20);
},
{
name = top;
pos = (362,594);
}
);
layerId = master01;
shapes = (
{
closed = 1;
nodes = (
(280,-12,o),
(198,16,o),
(136,66,cs),
(62,124,o),
(20,206,o),
(20,294,cs),
(20,372,o),
(62,450,o),
(134,512,cs),
(200,566,o),
(282,598,o),
(358,598,cs),
(382,598,o),
(404,588,o),
(420,572,c),
(422,574,o),
(422,574,o),
(424,574,cs),
(432,574,ls),
(496,574,o),
(564,538,o),
(620,478,cs),
(676,416,o),
(708,344,o),
(708,276,cs),
(708,198,o),
(664,122,o),
(588,66,cs),
(522,18,o),
(438,-12,o),
(358,-12,cs)
);
},
{
closed = 1;
nodes = (
(320,344,o),
(291,367,o),
(276,392,c),
(266,386,o),
(258,380,o),
(250,372,cs),
(218,348,o),
(200,318,o),
(200,294,cs),
(200,216,o),
(292,168,o),
(358,168,cs),
(400,168,o),
(446,184,o),
(482,212,cs),
(510,232,o),
(528,256,o),
(528,276,cs),
(528,296,o),
(514,326,o),
(490,352,cs),
(470,376,o),
(450,388,o),
(438,392,cs),
(436,390,o),
(432,386,o),
(426,378,cs),
(408,356,o),
(382,344,o),
(356,344,cs)
);
},
{
closed = 1;
nodes = (
(432,394,l)
);
}
);
userData = {
com.fontlab.hintData = {
hhints = (
{
position = -12;
width = 180;
}
);
vhints = (
{
position = 20;
width = 180;
},
{
position = 528;
width = 180;
}
);
};
};
width = 728;
}
);
unicode = (111,1086,959);
},
{
glyphname = oslash;
layers = (
{
layerId = master01;
shapes = (
{
closed = 1;
nodes = (
(577,744,o),
(614,701,o),
(614,652,cs),
(614,648,o),
(612,642,o),
(612,638,cs),
(606,604,o),
(596,570,o),
(586,532,c),
(644,504,o),
(688,458,o),
(710,402,cs),
(710,398,o),
(712,396,o),
(712,392,cs),
(722,354,o),
(726,318,o),
(726,284,cs),
(726,222,o),
(710,166,o),
(680,118,cs),
(628,44,o),
(542,-4,o),
(424,-18,cs),
(412,-20,o),
(400,-22,o),
(388,-22,c),
(380,-44,o),
(370,-66,o),
(362,-86,cs),
(344,-134,l),
(330,-168,o),
(296,-190,o),
(260,-190,cs),
(205,-190,o),
(170,-144,o),
(170,-100,cs),
(170,-88,o),
(172,-78,o),
(176,-66,cs),
(194,-20,l),
(198,-14,o),
(200,-8,o),
(202,-2,c),
(194,2,o),
(186,6,o),
(178,8,cs),
(100,47,o),
(40,114,o),
(24,212,cs),
(22,226,o),
(20,242,o),
(20,256,cs),
(20,314,o),
(38,372,o),
(74,422,cs),
(122,488,o),
(194,534,o),
(286,556,cs),
(293,558,o),
(300,558,o),
(306,558,cs),
(316,558,o),
(326,556,o),
(336,554,c),
(360,560,o),
(384,564,o),
(408,564,c),
(420,602,o),
(428,638,o),
(434,670,cs),
(442,714,o),
(480,744,o),
(522,744,cs)
);
},
{
closed = 1;
nodes = (
(200,217,o),
(220,188,o),
(254,172,cs),
(258,170,o),
(264,168,o),
(268,166,c),
(296,238,o),
(322,304,o),
(344,368,c),
(314,356,o),
(284,334,o),
(266,306,cs),
(250,282,o),
(226,268,o),
(200,264,c)
);
},
{
closed = 1;
nodes = (
(512,191,o),
(548,222,o),
(548,284,cs),
(548,304,o),
(544,324,o),
(540,340,cs),
(538,346,o),
(534,350,o),
(530,354,c),
(510,298,o),
(488,238,o),
(464,174,c)
);
}
);
userData = {
com.fontlab.hintData = {
hhints = (
{
position = 724;
width = 20;
}
);
vhints = (
{
position = 20;
width = 180;
},
{
position = 434;
width = 180;
},
{
position = 548;
width = 178;
}
);
};
};
width = 746;
}
);
unicode = 248;
},
{
glyphname = p;
layers = (
{
layerId = master01;
shapes = (
{
closed = 1;
nodes = (
(20,524,o),
(53,569,o),
(108,569,cs),
(132,569,o),
(156,559,o),
(172,543,c),
(210,561,o),
(250,571,o),
(294,571,cs),
(596,571,o),
(704,413,o),
(704,265,cs),
(704,193,o),
(670,117,o),
(608,57,cs),
(550,-1,o),
(480,-35,o),
(416,-35,cs),
(410,-35,ls),
(372,-35,o),
(342,-33,o),
(316,-29,c),
(329,-132,o),
(344,-235,o),
(362,-337,cs),
(362,-341,o),
(362,-345,o),
(362,-349,cs),
(362,-397,o),
(324,-441,o),
(272,-441,cs),
(228,-441,o),
(190,-409,o),
(184,-365,cs),
(174,-309,o),
(166,-251,o),
(158,-197,cs),
(122,57,o),
(86,295,o),
(26,445,cs),
(22,457,o),
(20,467,o),
(20,479,cs)
);
},
{
closed = 1;
nodes = (
(416,145,ls),
(428,145,o),
(456,157,o),
(482,185,cs),
(508,211,o),
(524,243,o),
(524,265,cs),
(524,301,o),
(512,327,o),
(482,347,cs),
(454,367,o),
(398,391,o),
(294,391,cs),
(264,391,o),
(246,379,o),
(238,375,c),
(254,313,o),
(268,249,o),
(280,179,c),
(302,159,o),
(324,145,o),
(408,145,cs)
);
}
);
userData = {
com.fontlab.hintData = {
hhints = (
{
position = -35;
width = 180;
},
{
position = 391;
width = 180;
}
);
vhints = (
{
position = 184;
width = 178;
},
{
position = 524;
width = 180;
}
);
};
};
width = 724;
}
);
unicode = (112,1088);
},
{
glyphname = thorn;
layers = (
{
layerId = master01;
shapes = (
{
closed = 1;
nodes = (
(736,90,o),
(597,-9,o),
(436,-9,cs),
(394,-9,o),
(358,-3,o),
(328,7,c),
(338,-59,o),
(346,-127,o),
(350,-195,c),
(350,-199,ls),
(350,-247,o),
(312,-287,o),
(266,-291,cs),
(264,-291,o),
(262,-291,o),
(260,-291,cs),
(212,-291,o),
(172,-255,o),
(170,-207,cs),
(150,95,o),
(20,457,o),
(20,741,cs),
(20,749,o),
(20,757,o),
(20,765,cs),
(22,813,o),
(62,853,o),
(108,853,cs),
(112,853,l),
(160,851,o),
(200,813,o),
(200,765,cs),
(200,745,ls),
(200,681,o),
(212,599,o),
(228,511,c),
(276,531,o),
(336,541,o),
(414,541,cs),
(416,541,ls),
(490,541,o),
(568,509,o),
(630,455,cs),
(698,397,o),
(736,319,o),
(736,243,cs)
);
},
{
closed = 1;
nodes = (
(492,171,o),
(556,189,o),
(556,243,cs),
(556,297,o),
(480,361,o),
(416,361,cs),
(414,361,ls),
(340,361,o),
(306,351,o),
(290,341,cs),
(282,337,o),
(274,331,o),
(270,315,c),
(274,289,o),
(280,265,o),
(284,239,cs),
(288,239,o),
(290,237,o),
(292,235,cs),
(342,197,o),
(376,171,o),
(436,171,cs)
);
}
);
userData = {
com.fontlab.hintData = {
hhints = (
{
position = -9;
width = 180;
},
{
position = 361;
width = 180;
}
);
vhints = (
{
position = 20;
width = 180;
},
{
position = 170;
width = 180;
},
{
position = 556;
width = 180;
}
);
};
};
width = 756;
}
);
unicode = 254;
},
{
glyphname = q;
layers = (
{
layerId = master01;
shapes = (
{
closed = 1;
nodes = (
(514,-644,o),
(448,-622,o),
(398,-584,cs),
(358,-550,o),
(308,-488,o),
(308,-378,cs),
(308,-261,o),
(327,-105,o),
(332,20,c),
(322,18,o),
(312,18,o),
(302,18,cs),
(268,18,o),
(150,24,o),
(76,100,cs),
(38,138,o),
(20,184,o),
(20,236,cs),
(20,302,o),
(50,368,o),
(110,426,cs),
(186,504,o),
(294,556,o),
(376,556,cs),
(382,556,o),
(388,556,o),
(394,554,cs),
(400,556,o),
(406,556,o),
(414,556,cs),
(458,556,o),
(496,524,o),
(502,480,cs),
(508,438,o),
(512,396,o),
(516,352,c),
(530,304,o),
(538,272,o),
(538,246,cs),
(538,216,o),
(530,186,o),
(518,158,c),
(516,66,o),
(510,-26,o),
(504,-112,c),
(522,-110,o),
(542,-108,o),
(560,-108,cs),
(630,-108,o),
(704,-138,o),
(760,-190,cs),
(820,-244,o),
(852,-312,o),
(852,-380,cs),
(852,-448,o),
(828,-514,o),
(782,-562,cs),
(732,-616,o),
(664,-644,o),
(592,-644,cs)
);
},
{
closed = 1;
nodes = (
(490,-330,o),
(488,-356,o),
(488,-378,cs),
(488,-408,o),
(488,-464,o),
(592,-464,cs),
(644,-464,o),
(672,-422,o),
(672,-380,cs),
(672,-346,o),
(618,-288,o),
(560,-288,cs),
(530,-288,o),
(504,-298,o),
(490,-304,c)
);
},
{
closed = 1;
nodes = (
(298,350,o),
(266,328,o),
(238,300,cs),
(210,272,o),
(200,248,o),
(200,238,cs),
(200,236,ls),
(200,232,o),
(200,230,o),
(204,226,cs),
(218,212,o),
(256,198,o),
(302,198,cs),
(318,198,o),
(330,204,o),
(340,212,c),
(340,248,o),
(338,286,o),
(336,322,cs),
(334,336,o),
(330,350,o),
(326,362,c)
);
}
);
userData = {
com.fontlab.hintData = {
hhints = (
{
position = -644;
width = 180;
},
{
position = -288;
width = 180;
},
{
position = 18;
width = 180;
}
);
vhints = (
{
position = 20;
width = 180;
},
{
position = 308;
width = 180;
},
{
position = 332;
width = 186;
},
{
position = 340;
width = 198;
},
{
position = 672;
width = 180;
}
);
};
};
width = 872;
}
);
unicode = 113;
},
{
glyphname = r;
layers = (
{
layerId = master01;
shapes = (
{
closed = 1;
nodes = (
(484,353,o),
(441,316,o),
(396,316,cs),
(382,316,o),
(368,320,o),
(354,326,cs),
(350,328,o),
(342,328,o),
(334,328,cs),
(323,328,o),
(310,327,o),
(298,326,c),
(298,320,o),
(296,312,o),
(294,298,c),
(294,272,ls),
(294,248,o),
(294,218,o),
(296,180,c),
(296,172,ls),
(296,130,o),
(266,94,o),
(222,86,cs),
(218,84,o),
(212,84,o),
(208,84,cs),
(168,84,o),
(132,110,o),
(120,150,cs),
(106,204,o),
(74,244,o),
(52,264,cs),
(30,280,o),
(20,306,o),
(20,332,cs),
(20,352,o),
(26,374,o),
(40,390,cs),
(58,412,o),
(84,422,o),
(110,422,cs),
(120,422,o),
(132,420,o),
(142,416,c),
(154,442,o),
(172,462,o),
(198,480,cs),
(202,484,o),
(208,486,o),
(214,490,cs),
(240,500,o),
(282,508,o),
(326,508,cs),
(364,508,o),
(404,502,o),
(436,486,cs),
(466,470,o),
(484,438,o),
(484,406,cs)
);
},
{
closed = 1;
nodes = (
(354,326,l)
);
}
);
userData = {
com.fontlab.hintData = {
hhints = (
{
position = 84;
width = 338;
},
{
position = 328;
width = 180;
}
);
};
};
width = 504;
}
);
unicode = 114;
},
{
glyphname = s;
layers = (
{
layerId = master01;
shapes = (
{
closed = 1;
nodes = (
(313,540,o),
(356,505,o),
(356,450,cs),
(356,410,o),
(328,374,o),
(288,364,c),
(294,360,o),
(298,358,o),
(302,356,cs),
(358,330,o),
(416,302,o),
(464,270,cs),
(492,252,o),
(576,196,o),
(576,108,cs),
(576,74,o),
(562,-10,o),
(444,-52,cs),
(382,-74,o),
(316,-76,o),
(290,-76,cs),
(204,-76,o),
(122,-72,o),
(62,-12,cs),
(44,4,o),
(36,28,o),
(36,52,cs),
(36,74,o),
(44,96,o),
(62,114,cs),
(80,132,o),
(104,142,o),
(126,142,cs),
(150,142,o),
(172,132,o),
(190,116,cs),
(198,108,o),
(232,104,o),
(290,104,cs),
(322,104,o),
(352,108,o),
(374,114,c),
(332,145,o),
(278,168,o),
(226,194,cs),
(182,214,o),
(142,234,o),
(110,254,cs),
(86,268,o),
(20,308,o),
(20,380,cs),
(20,400,o),
(26,440,o),
(70,472,cs),
(107,504,o),
(194,528,o),
(246,538,cs),
(252,540,o),
(258,540,o),
(266,540,cs)
);
}
);
userData = {
com.fontlab.hintData = {
hhints = (
{
position = -76;
width = 180;
}
);
};
};
width = 596;
}
);
unicode = 115;
},
{
glyphname = germandbls;
layers = (
{
layerId = master01;
shapes = (
{
closed = 1;
nodes = (
(447,738,o),
(554,635,o),
(554,458,cs),
(554,406,o),
(536,358,o),
(496,314,c),
(520,306,o),
(542,296,o),
(564,284,cs),
(624,246,o),
(656,190,o),
(656,124,cs),
(656,64,o),
(618,10,o),
(550,-26,cs),
(498,-54,o),
(436,-68,o),
(372,-68,cs),
(322,-68,o),
(282,-28,o),
(282,22,cs),
(282,72,o),
(322,112,o),
(372,112,cs),
(414,112,o),
(446,122,o),
(466,132,c),
(462,134,o),
(458,136,o),
(454,138,cs),
(436,146,o),
(414,152,o),
(392,158,cs),
(364,166,o),
(340,174,o),
(316,184,cs),
(248,218,o),
(240,272,o),
(240,294,cs),
(240,326,o),
(256,354,o),
(282,370,cs),
(324,398,o),
(374,434,o),
(374,458,cs),
(374,534,o),
(350,558,o),
(270,558,cs),
(248,558,o),
(240,552,o),
(234,544,cs),
(222,530,o),
(200,486,o),
(200,368,cs),
(200,308,o),
(206,226,o),
(222,120,cs),
(222,116,o),
(224,110,o),
(224,106,cs),
(224,64,o),
(192,26,o),
(148,18,cs),
(144,18,o),
(138,16,o),
(134,16,cs),
(90,16,o),
(52,48,o),
(44,94,cs),
(28,200,o),
(20,292,o),
(20,370,cs),
(20,506,o),
(46,600,o),
(98,662,cs),
(140,712,o),
(200,738,o),
(270,738,cs)
);
}
);
userData = {
com.fontlab.hintData = {
hhints = (
{
position = -68;
width = 180;
},
{
position = 16;
width = 21;
},
{
position = 558;
width = 180;
}
);
vhints = (
{
position = 20;
width = 180;
},
{
position = 374;
width = 180;
}
);
};
};
width = 676;
}
);
unicode = 223;
},
{
glyphname = t;
layers = (
{
layerId = master01;
shapes = (
{
closed = 1;
nodes = (
(629,320,o),
(668,275,o),
(668,228,cs),
(668,212,o),
(662,194,o),
(652,180,cs),
(596,98,o),
(494,12,o),
(372,12,cs),
(228,12,o),
(143,83,o),
(116,202,cs),
(116,206,o),
(114,208,o),
(114,212,cs),
(112,234,o),
(110,258,o),
(110,282,c),
(65,282,o),
(20,318,o),
(20,372,cs),
(20,408,o),
(40,440,o),
(74,454,cs),
(88,460,o),
(104,466,o),
(118,472,c),
(120,486,o),
(120,500,o),
(122,512,cs),
(126,574,o),
(130,634,o),
(130,682,cs),
(130,718,ls),
(130,764,o),
(166,802,o),
(214,806,c),
(218,806,ls),
(266,806,o),
(306,770,o),
(310,722,c),
(310,690,ls),
(310,642,o),
(308,588,o),
(304,530,c),
(354,542,o),
(408,552,o),
(468,562,cs),
(472,562,o),
(478,564,o),
(482,564,cs),
(526,564,o),
(564,532,o),
(570,486,cs),
(570,482,o),
(572,476,o),
(572,472,cs),
(572,430,o),
(540,392,o),
(494,384,cs),
(424,374,o),
(358,360,o),
(290,342,c),
(290,304,o),
(290,268,o),
(294,236,cs),
(300,208,o),
(310,192,o),
(372,192,cs),
(414,192,o),
(468,228,o),
(502,280,cs),
(520,306,o),
(548,320,o),
(576,320,cs)
);
}
);
userData = {
com.fontlab.hintData = {
hhints = (
{
position = 12;
width = 180;
}
);
vhints = (
{
position = 130;
width = 180;
}
);
};
};
width = 688;
}
);
unicode = 116;
},
{
glyphname = u;
layers = (
{
anchors = (
{
name = bottom;
pos = (316,-18);
},
{
name = top;
pos = (252,530);
}
);
layerId = master01;
shapes = (
{
closed = 1;
nodes = (
(268,-8,o),
(222,10,o),
(182,42,cs),
(150,66,o),
(120,102,o),
(96,146,cs),
(58,218,o),
(30,314,o),
(20,416,c),
(20,424,ls),
(20,470,o),
(54,510,o),
(102,514,c),
(112,514,ls),
(156,514,o),
(194,480,o),
(200,434,cs),
(216,272,o),
(278,172,o),
(316,172,cs),
(352,172,o),
(372,242,o),
(372,310,cs),
(372,348,o),
(348,396,o),
(336,408,cs),
(314,426,o),
(302,450,o),
(302,478,cs),
(302,496,o),
(310,516,o),
(322,534,cs),
(340,556,o),
(366,568,o),
(394,568,cs),
(412,568,o),
(432,562,o),
(448,550,cs),
(506,504,o),
(552,398,o),
(552,310,cs),
(552,120,o),
(458,-8,o),
(316,-8,cs)
);
},
{
closed = 1;
nodes = (
(338,408,l)
);
}
);
userData = {
com.fontlab.hintData = {
hhints = (
{
position = -8;
width = 180;
},
{
position = 494;
width = 20;
}
);
vhints = (
{
position = 20;
width = 180;
},
{
position = 372;
width = 180;
}
);
};
};
width = 602;
}
);
unicode = 117;
},
{
glyphname = v;
layers = (
{
layerId = master01;
shapes = (
{
closed = 1;
nodes = (
(20,458,o),
(56,502,o),
(110,502,cs),
(146,502,o),
(178,480,o),
(192,448,cs),
(212,400,o),
(284,306,o),
(340,238,c),
(364,296,o),
(376,376,o),
(376,472,cs),
(376,522,o),
(416,562,o),
(466,562,cs),
(516,562,o),
(556,522,o),
(556,472,cs),
(556,266,o),
(510,122,o),
(412,28,cs),
(394,12,o),
(372,4,o),
(350,4,cs),
(328,4,o),
(308,10,o),
(290,26,cs),
(242,68,o),
(72,270,o),
(28,376,cs),
(22,388,o),
(20,400,o),
(20,412,cs)
);
}
);
userData = {
com.fontlab.hintData = {
hhints = (
{
position = 482;
width = 20;
}
);
vhints = (
{
position = 20;
width = 172;
},
{
position = 376;
width = 180;
}
);
};
};
width = 646;
}
);
unicode = 118;
},
{
glyphname = w;
layers = (
{
layerId = master01;
shapes = (
{
closed = 1;
nodes = (
(445,518,o),
(490,551,o),
(534,551,cs),
(545,551,o),
(556,551,o),
(566,547,cs),
(618,526,o),
(665,488,o),
(699,437,cs),
(730,388,o),
(747,334,o),
(747,281,cs),
(747,274,o),
(747,267,o),
(746,260,cs),
(734,116,o),
(649,30,o),
(525,30,cs),
(517,30,o),
(509,30,o),
(501,31,cs),
(459,35,o),
(402,52,o),
(355,108,c),
(307,46,o),
(247,5,o),
(198,-9,cs),
(184,-12,o),
(169,-15,o),
(155,-15,cs),
(118,-15,o),
(88,-1,o),
(66,23,cs),
(60,28,o),
(55,34,o),
(52,40,cs),
(25,85,o),
(20,163,o),
(20,217,cs),
(20,246,o),
(20,260,o),
(23,285,cs),
(28,347,o),
(43,441,o),
(87,509,cs),
(104,537,o),
(133,552,o),
(163,552,cs),
(215,552,o),
(253,505,o),
(253,462,cs),
(253,443,o),
(247,428,o),
(239,415,cs),
(222,384,o),
(208,334,o),
(203,274,cs),
(203,263,o),
(200,246,o),
(200,234,cs),
(200,223,o),
(200,213,o),
(201,204,c),
(203,208,o),
(208,211,o),
(212,215,cs),
(241,251,o),
(265,295,o),
(275,338,cs),
(284,377,o),
(319,406,o),
(361,406,cs),
(369,406,l),
(407,403,o),
(440,378,o),
(449,339,cs),
(476,234,o),
(494,212,o),
(516,210,cs),
(519,210,o),
(522,210,o),
(525,210,cs),
(541,210,o),
(545,215,o),
(547,218,cs),
(550,221,o),
(566,244,o),
(566,283,cs),
(566,323,o),
(532,366,o),
(503,378,cs),
(466,392,o),
(445,426,o),
(445,462,cs)
);
},
{
closed = 1;
nodes = (
(210,127,l)
);
}
);
userData = {
com.fontlab.hintData = {
hhints = (
{
position = -15;
width = 21;
},
{
position = 30;
width = 180;
}
);
vhints = (
{
position = 20;
width = 180;
},
{
position = 566;
width = 181;
}
);
};
};
width = 766;
}
);
unicode = 119;
},
{
glyphname = x;
layers = (
{
layerId = master01;
shapes = (
{
closed = 1;
nodes = (
(734,45,o),
(696,0,o),
(644,0,cs),
(616,0,o),
(590,14,o),
(572,38,cs),
(538,84,o),
(498,130,o),
(454,176,c),
(374,16,ls),
(366,-2,o),
(358,-18,o),
(350,-34,cs),
(334,-66,o),
(302,-84,o),
(268,-84,cs),
(215,-84,o),
(178,-39,o),
(178,4,cs),
(178,18,o),
(182,32,o),
(188,44,cs),
(196,62,o),
(204,78,o),
(212,94,cs),
(248,168,o),
(284,240,o),
(318,306,c),
(298,326,o),
(278,344,o),
(260,358,c),
(234,339,o),
(203,297,o),
(198,270,cs),
(190,226,o),
(152,196,o),
(108,196,cs),
(104,196,o),
(98,198,o),
(94,198,cs),
(50,206,o),
(20,244,o),
(20,286,cs),
(20,292,o),
(20,298,o),
(22,304,cs),
(32,358,o),
(62,414,o),
(108,462,cs),
(134,490,o),
(188,538,o),
(252,552,cs),
(258,552,o),
(264,554,o),
(270,554,cs),
(290,554,o),
(308,548,o),
(324,536,cs),
(348,518,o),
(376,496,o),
(408,468,c),
(444,526,o),
(478,574,o),
(510,608,cs),
(528,624,o),
(552,634,o),
(574,634,cs),
(596,634,o),
(620,624,o),
(638,608,cs),
(656,590,o),
(664,568,o),
(664,544,cs),
(664,520,o),
(656,498,o),
(638,480,cs),
(610,454,o),
(578,404,o),
(542,342,c),
(606,280,o),
(670,210,o),
(718,144,cs),
(730,128,o),
(734,110,o),
(734,92,cs)
);
}
);
userData = {
com.fontlab.hintData = {
hhints = (
{
position = 0;
width = 21;
}
);
};
};
width = 754;
}
);
unicode = (120,1093);
},
{
glyphname = y;
layers = (
{
layerId = master01;
shapes = (
{
closed = 1;
nodes = (
(194,517,o),
(230,470,o),
(230,427,cs),
(230,413,o),
(228,399,o),
(220,385,cs),
(210,365,o),
(200,321,o),
(200,267,cs),
(200,263,o),
(200,259,o),
(200,255,cs),
(202,203,o),
(214,173,o),
(220,161,c),
(314,163,o),
(348,189,o),
(366,209,cs),
(398,247,o),
(416,313,o),
(430,381,cs),
(438,423,o),
(476,453,o),
(518,453,cs),
(526,453,l),
(572,449,o),
(606,409,o),
(608,363,cs),
(610,207,o),
(624,-205,o),
(722,-645,cs),
(722,-647,o),
(722,-647,o),
(724,-649,cs),
(732,-695,o),
(740,-741,o),
(740,-785,cs),
(740,-841,o),
(728,-891,o),
(696,-929,cs),
(656,-973,o),
(602,-983,o),
(550,-983,cs),
(528,-983,o),
(508,-981,o),
(488,-979,cs),
(478,-979,o),
(468,-979,o),
(458,-977,c),
(454,-977,l),
(276,-960,o),
(158,-889,o),
(126,-733,cs),
(124,-727,o),
(124,-721,o),
(124,-715,cs),
(124,-559,o),
(314,-391,o),
(484,-343,c),
(466,-217,o),
(452,-89,o),
(442,39,c),
(388,3,o),
(314,-19,o),
(214,-19,cs),
(154,-19,o),
(102,11,o),
(66,67,cs),
(24,135,o),
(20,225,o),
(20,273,cs),
(20,347,o),
(36,417,o),
(60,467,cs),
(76,499,o),
(108,517,o),
(140,517,cs)
);
},
{
closed = 1;
nodes = (
(482,-799,o),
(492,-799,o),
(500,-801,cs),
(518,-801,o),
(544,-803,o),
(558,-803,c),
(558,-785,ls),
(558,-765,o),
(556,-735,o),
(546,-685,cs),
(534,-631,o),
(524,-577,o),
(514,-521,c),
(468,-539,o),
(420,-569,o),
(378,-605,cs),
(330,-649,o),
(310,-687,o),
(306,-709,c),
(310,-729,o),
(320,-743,o),
(334,-755,cs),
(360,-777,o),
(408,-791,o),
(470,-799,cs)
);
},
{
closed = 1;
nodes = (
(224,157,l),
(222,157,l)
);
}
);
userData = {
com.fontlab.hintData = {
hhints = (
{
position = -977;
width = 178;
},
{
position = -19;
width = 176;
},
{
position = 157;
width = 4;
},
{
position = 497;
width = 20;
}
);
vhints = (
{
position = 20;
width = 180;
},
{
position = 430;
width = 178;
},
{
position = 558;
width = 182;
}
);
};
};
width = 760;
}
);
unicode = 121;
},
{
glyphname = z;
layers = (
{
layerId = master01;
shapes = (
{
closed = 1;
nodes = (
(540,529,o),
(584,488,o),
(584,441,cs),
(584,433,o),
(582,425,o),
(580,417,cs),
(564,353,o),
(504,275,o),
(408,155,cs),
(400,145,o),
(392,135,o),
(384,125,c),
(476,109,o),
(548,73,o),
(602,41,cs),
(604,41,o),
(606,39,o),
(608,39,cs),
(680,-9,o),
(726,-99,o),
(752,-165,cs),
(784,-245,o),
(802,-335,o),
(802,-409,cs),
(802,-489,o),
(796,-551,o),
(786,-603,cs),
(774,-665,o),
(754,-715,o),
(722,-755,cs),
(642,-859,o),
(514,-871,o),
(410,-871,cs),
(340,-871,o),
(260,-849,o),
(198,-809,cs),
(118,-757,o),
(72,-685,o),
(72,-607,cs),
(72,-533,o),
(122,-457,o),
(210,-397,cs),
(284,-347,o),
(368,-317,o),
(438,-317,cs),
(494,-317,o),
(554,-317,o),
(614,-333,c),
(606,-299,o),
(596,-263,o),
(584,-231,cs),
(558,-165,o),
(528,-127,o),
(510,-113,cs),
(456,-81,o),
(384,-49,o),
(294,-49,cs),
(272,-49,o),
(248,-51,o),
(224,-55,cs),
(220,-55,o),
(216,-55,o),
(212,-55,cs),
(163,-55,o),
(120,-18,o),
(120,35,cs),
(120,49,o),
(122,61,o),
(128,73,cs),
(154,126,o),
(230,219,o),
(290,295,c),
(246,289,o),
(204,287,o),
(162,287,cs),
(142,287,o),
(122,287,o),
(102,289,cs),
(54,293,o),
(20,333,o),
(20,379,cs),
(20,387,l),
(24,435,o),
(64,469,o),
(110,469,cs),
(118,469,l),
(136,467,o),
(154,467,o),
(172,467,cs),
(264,467,o),
(364,487,o),
(462,523,cs),
(472,527,o),
(484,529,o),
(494,529,cs)
);
},
{
closed = 1;
nodes = (
(254,-621,o),
(270,-641,o),
(294,-657,cs),
(328,-679,o),
(374,-691,o),
(410,-691,cs),
(528,-691,o),
(564,-667,o),
(580,-645,cs),
(598,-623,o),
(610,-585,o),
(616,-529,c),
(612,-527,o),
(608,-525,o),
(606,-523,cs),
(572,-499,o),
(514,-497,o),
(438,-497,cs),
(412,-497,o),
(364,-511,o),
(316,-543,cs),
(272,-571,o),
(254,-599,o),
(252,-607,cs)
);
}
);
userData = {
com.fontlab.hintData = {
hhints = (
{
position = -871;
width = 180;
},
{
position = -497;
width = 180;
},
{
position = 287;
width = 180;
}
);
vhints = (
{
position = 72;
width = 730;
}
);
};
};
width = 822;
}
);
unicode = 122;
},
{
glyphname = ordfeminine;
layers = (
{
layerId = master01;
shapes = (
{
closed = 1;
nodes = (
(838,601,o),
(789,564,o),
(746,564,cs),
(734,564,o),
(722,566,o),
(712,570,cs),
(658,594,o),
(608,620,o),
(558,654,c),
(548,638,o),
(534,624,o),
(516,608,cs),
(474,570,o),
(414,536,o),
(332,502,c),
(330,502,l),
(294,488,o),
(256,480,o),
(222,480,cs),
(109,480,o),
(20,554,o),
(20,660,cs),
(20,676,o),
(22,692,o),
(26,708,cs),
(28,712,o),
(30,716,o),
(30,720,cs),
(90,856,o),
(252,964,o),
(398,964,cs),
(438,964,o),
(472,938,o),
(484,902,c),
(490,904,o),
(496,904,o),
(502,904,cs),
(524,904,o),
(544,896,o),
(562,880,cs),
(642,810,o),
(704,770,o),
(782,736,cs),
(816,722,o),
(838,690,o),
(838,656,cs)
);
},
{
closed = 1;
nodes = (
(208,662,o),
(212,660,o),
(218,660,cs),
(230,660,o),
(246,662,o),
(266,670,cs),
(326,694,o),
(370,718,o),
(396,742,cs),
(415,759,o),
(419,769,o),
(419,776,cs),
(419,779,o),
(419,782,o),
(418,784,c),
(418,784,o),
(418,786,o),
(416,786,cs),
(412,784,o),
(404,784,o),
(398,784,cs),
(328,784,o),
(240,728,o),
(204,662,c)
);
}
);
userData = {
com.fontlab.hintData = {
hhints = (
{
position = 564;
width = 172;
},
{
position = 784;
width = 180;
}
);
vhints = (
{
position = 419;
width = 419;
}
);
};
};
width = 858;
}
);
unicode = 170;
},
{
glyphname = ordmasculine;
layers = (
{
layerId = master01;
shapes = (
{
closed = 1;
nodes = (
(392,973,o),
(534,886,o),
(534,747,cs),
(534,675,o),
(510,607,o),
(466,555,cs),
(418,495,o),
(348,461,o),
(270,461,cs),
(204,461,o),
(144,481,o),
(100,519,cs),
(64,551,o),
(20,607,o),
(20,703,cs),
(20,803,o),
(66,881,o),
(136,925,c),
(150,949,o),
(176,969,o),
(206,971,cs),
(222,973,o),
(236,973,o),
(252,973,cs)
);
},
{
closed = 1;
nodes = (
(322,641,o),
(354,694,o),
(354,747,cs),
(354,751,o),
(350,759,o),
(342,765,cs),
(334,771,o),
(316,785,o),
(280,791,c),
(206,771,o),
(200,743,o),
(200,703,cs),
(200,685,o),
(200,641,o),
(270,641,cs)
);
}
);
userData = {
com.fontlab.hintData = {
hhints = (
{
position = 461;
width = 180;
},
{
position = 953;
width = 20;
}
);
vhints = (
{
position = 20;
width = 180;
},
{
position = 354;
width = 180;
}
);
};
};
width = 554;
}
);
unicode = 186;
},
{
glyphname = zero;
layers = (
{
layerId = master01;
shapes = (
{
closed = 1;
nodes = (
(34,189,o),
(20,251,o),
(20,307,cs),
(20,411,o),
(66,501,o),
(114,569,cs),
(138,601,o),
(266,755,o),
(366,755,cs),
(396,755,o),
(424,743,o),
(444,709,c),
(488,707,o),
(530,695,o),
(568,673,cs),
(618,645,o),
(658,601,o),
(686,547,cs),
(714,495,o),
(726,443,o),
(726,395,cs),
(726,289,o),
(668,191,o),
(584,111,cs),
(502,35,o),
(400,-11,o),
(304,-11,cs),
(212,-11,o),
(126,29,o),
(70,127,cs)
);
},
{
closed = 1;
nodes = (
(272,481,o),
(268,473,o),
(262,465,cs),
(218,401,o),
(198,343,o),
(198,323,cs),
(198,295,o),
(206,251,o),
(226,215,cs),
(250,173,o),
(276,167,o),
(300,167,cs),
(350,169,o),
(412,197,o),
(462,243,cs),
(510,287,o),
(544,349,o),
(544,407,cs),
(544,449,o),
(526,489,o),
(480,517,cs),
(466,525,o),
(452,529,o),
(434,529,cs),
(408,529,o),
(380,519,o),
(348,499,cs),
(332,489,o),
(316,485,o),
(300,485,cs),
(292,485,o),
(286,485,o),
(278,487,c)
);
}
);
userData = {
com.fontlab.hintData = {
hhints = (
{
position = -11;
width = 178;
},
{
position = 529;
width = 226;
}
);
vhints = (
{
position = 20;
width = 178;
},
{
position = 544;
width = 182;
}
);
};
};
width = 746;
}
);
unicode = 48;
},
{
glyphname = one;
layers = (
{
layerId = master01;
shapes = (
{
closed = 1;
nodes = (
(282,1,o),
(242,39,o),
(240,87,cs),
(240,111,o),
(238,137,o),
(238,161,cs),
(238,239,o),
(242,317,o),
(246,387,cs),
(248,417,o),
(250,449,o),
(250,479,c),
(220,461,o),
(186,443,o),
(148,425,cs),
(136,419,o),
(124,417,o),
(112,417,cs),
(78,417,o),
(44,437,o),
(28,469,cs),
(22,481,o),
(20,495,o),
(20,507,cs),
(20,541,o),
(38,573,o),
(72,589,cs),
(170,635,o),
(238,677,o),
(270,715,cs),
(288,735,o),
(314,745,o),
(340,745,cs),
(348,745,o),
(358,743,o),
(366,741,cs),
(400,729,o),
(424,699,o),
(428,663,cs),
(432,629,o),
(432,593,o),
(432,555,cs),
(432,499,o),
(430,439,o),
(426,377,cs),
(422,307,o),
(418,235,o),
(418,161,cs),
(418,139,o),
(420,115,o),
(420,93,cs),
(420,91,o),
(420,91,o),
(420,89,cs),
(420,41,o),
(380,1,o),
(334,1,cs),
(332,1,o),
(332,1,o),
(330,1,cs)
);
}
);
userData = {
com.fontlab.hintData = {
hhints = (
{
position = 1;
width = 21;
},
{
position = 725;
width = 20;
}
);
vhints = (
{
position = 238;
width = 180;
},
{
position = 250;
width = 182;
}
);
};
};
width = 452;
}
);
unicode = 49;
},
{
glyphname = two;
layers = (
{
layerId = master01;
shapes = (
{
closed = 1;
nodes = (
(278,10,o),
(212,17,o),
(170,38,cs),
(126,60,o),
(108,90,o),
(100,112,cs),
(92,130,o),
(88,148,o),
(88,170,cs),
(88,186,o),
(90,202,o),
(96,220,cs),
(104,246,o),
(118,274,o),
(138,310,cs),
(172,366,o),
(232,474,o),
(286,548,cs),
(288,552,o),
(290,554,o),
(292,556,c),
(264,558,o),
(236,560,o),
(210,560,cs),
(170,560,o),
(136,558,o),
(116,556,c),
(112,556,ls),
(64,556,o),
(22,594,o),
(20,642,c),
(20,646,ls),
(20,692,o),
(58,734,o),
(104,736,cs),
(144,738,o),
(180,740,o),
(214,740,cs),
(334,740,o),
(418,726,o),
(480,694,cs),
(509,682,o),
(532,654,o),
(532,614,cs),
(532,596,o),
(528,578,o),
(516,562,cs),
(455,475,o),
(363,329,o),
(312,246,cs),
(298,224,o),
(288,206,o),
(280,194,c),
(294,192,o),
(316,192,o),
(344,192,cs),
(386,192,o),
(444,194,o),
(526,202,c),
(534,202,ls),
(578,202,o),
(618,168,o),
(624,120,c),
(624,112,ls),
(624,68,o),
(590,28,o),
(544,22,cs),
(466,14,o),
(402,10,o),
(348,10,cs)
);
}
);
userData = {
com.fontlab.hintData = {
hhints = (
{
position = 10;
width = 182;
},
{
position = 22;
width = 180;
},
{
position = 560;
width = 180;
}
);
};
};
width = 644;
}
);
unicode = 50;
},
{
glyphname = three;
layers = (
{
layerId = master01;
shapes = (
{
closed = 1;
nodes = (
(66,522,o),
(20,559,o),
(20,614,cs),
(20,652,o),
(46,688,o),
(86,700,cs),
(160,722,o),
(252,740,o),
(336,740,cs),
(404,740,o),
(468,728,o),
(518,696,cs),
(550,677,o),
(562,642,o),
(562,594,cs),
(562,548,o),
(548,504,o),
(522,464,c),
(556,450,o),
(584,434,o),
(610,414,cs),
(670,368,o),
(706,308,o),
(720,236,cs),
(724,220,o),
(726,204,o),
(726,188,cs),
(726,158,o),
(716,128,o),
(698,102,cs),
(654,46,o),
(570,20,o),
(420,20,cs),
(364,20,o),
(300,24,o),
(226,30,cs),
(178,34,o),
(144,74,o),
(144,120,cs),
(144,128,l),
(148,176,o),
(188,210,o),
(234,210,cs),
(242,210,l),
(314,202,o),
(374,200,o),
(424,200,cs),
(466,200,l),
(504,202,o),
(528,206,o),
(542,210,c),
(534,242,o),
(502,306,o),
(330,326,cs),
(288,333,o),
(250,366,o),
(250,416,cs),
(250,446,o),
(266,476,o),
(292,492,cs),
(334,520,o),
(358,542,o),
(370,558,c),
(360,560,o),
(348,560,o),
(334,560,cs),
(286,560,o),
(222,550,o),
(134,526,cs),
(126,524,o),
(118,522,o),
(110,522,cs)
);
}
);
userData = {
com.fontlab.hintData = {
hhints = (
{
position = 20;
width = 180;
},
{
position = 30;
width = 180;
},
{
position = 522;
width = 178;
},
{
position = 560;
width = 180;
}
);
vhints = (
{
position = 20;
width = 542;
}
);
};
};
width = 746;
}
);
unicode = 51;
},
{
glyphname = four;
layers = (
{
layerId = master01;
shapes = (
{
closed = 1;
nodes = (
(222,554,o),
(204,474,o),
(200,400,c),
(216,396,o),
(234,396,o),
(252,396,cs),
(294,396,o),
(342,404,o),
(402,426,c),
(402,508,o),
(404,590,o),
(406,668,cs),
(410,716,o),
(450,754,o),
(498,754,cs),
(502,754,l),
(548,752,o),
(586,714,o),
(586,666,cs),
(586,664,o),
(586,662,o),
(586,660,cs),
(584,602,o),
(582,540,o),
(582,478,cs),
(582,360,o),
(586,238,o),
(590,118,c),
(592,84,l),
(592,34,o),
(554,-8,o),
(504,-8,cs),
(502,-8,ls),
(452,-8,o),
(412,30,o),
(412,78,c),
(410,112,l),
(410,154,o),
(408,196,o),
(406,238,c),
(352,222,o),
(302,216,o),
(254,216,cs),
(194,216,o),
(138,226,o),
(80,248,cs),
(48,260,o),
(26,290,o),
(22,324,cs),
(20,344,o),
(20,364,o),
(20,382,cs),
(20,474,o),
(38,563,o),
(48,650,cs),
(52,698,o),
(92,732,o),
(136,732,cs),
(144,732,l),
(190,728,o),
(226,690,o),
(226,644,cs),
(226,634,l)
);
}
);
userData = {
com.fontlab.hintData = {
hhints = (
{
position = -8;
width = 21;
},
{
position = 216;
width = 180;
},
{
position = 732;
width = 2;
}
);
vhints = (
{
position = 20;
width = 206;
},
{
position = 406;
width = 186;
},
{
position = 406;
width = 180;
}
);
};
};
width = 612;
}
);
unicode = 52;
},
{
glyphname = five;
layers = (
{
layerId = master01;
shapes = (
{
closed = 1;
nodes = (
(638,794,o),
(682,761,o),
(682,706,cs),
(682,666,o),
(656,628,o),
(616,618,cs),
(512,592,o),
(410,576,o),
(306,564,c),
(288,548,o),
(274,534,o),
(262,522,c),
(344,508,o),
(412,490,o),
(470,468,cs),
(568,434,o),
(652,377,o),
(674,282,cs),
(674,278,o),
(676,274,o),
(676,270,cs),
(676,262,o),
(676,254,o),
(676,246,cs),
(676,154,o),
(636,100,o),
(602,68,cs),
(550,24,o),
(476,2,o),
(380,2,cs),
(308,2,o),
(224,14,o),
(128,38,cs),
(75,50,o),
(46,108,o),
(46,164,cs),
(46,202,o),
(58,240,o),
(86,270,cs),
(104,290,o),
(128,298,o),
(154,298,cs),
(176,298,o),
(198,292,o),
(214,276,cs),
(232,258,o),
(242,232,o),
(242,208,cs),
(242,204,o),
(242,200,o),
(242,196,c),
(300,186,o),
(346,182,o),
(380,182,cs),
(452,182,o),
(478,198,o),
(484,204,cs),
(488,208,o),
(496,214,o),
(496,238,cs),
(496,240,o),
(496,243,o),
(496,246,cs),
(492,254,o),
(470,276,o),
(406,300,cs),
(334,328,o),
(230,348,o),
(100,362,cs),
(59,365,o),
(20,402,o),
(20,450,cs),
(20,460,o),
(22,470,o),
(24,478,cs),
(32,504,o),
(46,532,o),
(64,560,c),
(42,576,o),
(26,600,o),
(22,630,c),
(22,638,ls),
(22,684,o),
(58,722,o),
(106,726,cs),
(266,738,o),
(420,754,o),
(570,792,cs),
(578,794,o),
(586,794,o),
(592,794,cs)
);
}
);
userData = {
com.fontlab.hintData = {
hhints = (
{
position = 2;
width = 180;
},
{
position = 618;
width = 176;
}
);
};
};
width = 702;
}
);
unicode = 53;
},
{
glyphname = six;
layers = (
{
layerId = master01;
shapes = (
{
closed = 1;
nodes = (
(252,430,o),
(355,517,o),
(468,517,cs),
(508,517,o),
(546,507,o),
(580,481,cs),
(628,449,o),
(662,393,o),
(662,313,cs),
(662,245,o),
(634,173,o),
(588,117,cs),
(528,45,o),
(442,9,o),
(356,9,cs),
(268,9,o),
(180,45,o),
(118,117,cs),
(56,189,o),
(20,307,o),
(20,425,cs),
(20,515,o),
(40,605,o),
(86,675,cs),
(130,747,o),
(196,801,o),
(276,835,cs),
(288,839,o),
(300,841,o),
(310,841,cs),
(355,841,o),
(400,808,o),
(400,753,cs),
(400,717,o),
(380,683,o),
(346,669,cs),
(252,629,o),
(198,541,o),
(196,429,cs),
(198,399,o),
(200,371,o),
(206,345,c)
);
},
{
closed = 1;
nodes = (
(350,185,o),
(360,185,o),
(370,185,cs),
(408,187,o),
(436,215,o),
(448,229,cs),
(462,245,o),
(482,289,o),
(482,317,cs),
(482,329,o),
(476,337,o),
(464,337,cs),
(458,337,o),
(448,335,o),
(434,327,cs),
(394,307,o),
(352,261,o),
(344,201,cs),
(344,197,o),
(342,191,o),
(342,187,c)
);
}
);
userData = {
com.fontlab.hintData = {
hhints = (
{
position = 9;
width = 176;
},
{
position = 337;
width = 180;
},
{
position = 669;
width = 172;
}
);
vhints = (
{
position = 20;
width = 176;
},
{
position = 482;
width = 180;
}
);
};
};
width = 682;
}
);
unicode = 54;
},
{
glyphname = seven;
layers = (
{
layerId = master01;
shapes = (
{
closed = 1;
nodes = (
(212,484,o),
(175,441,o),
(122,441,cs),
(88,441,o),
(58,459,o),
(42,491,cs),
(26,519,o),
(20,547,o),
(20,575,cs),
(20,607,o),
(28,639,o),
(48,667,cs),
(60,687,o),
(80,701,o),
(104,707,cs),
(210,731,o),
(270,743,o),
(356,743,cs),
(434,743,o),
(522,733,o),
(586,715,cs),
(624,703,o),
(650,667,o),
(650,629,cs),
(650,621,o),
(650,615,o),
(648,607,cs),
(632,543,o),
(628,521,o),
(596,441,c),
(600,441,o),
(604,443,o),
(606,443,cs),
(614,443,ls),
(660,443,o),
(700,407,o),
(704,361,c),
(704,353,ls),
(704,307,o),
(668,267,o),
(622,263,cs),
(586,261,o),
(550,255,o),
(516,249,c),
(486,187,o),
(454,119,o),
(418,47,cs),
(402,15,o),
(370,-3,o),
(336,-3,cs),
(283,-3,o),
(246,44,o),
(246,87,cs),
(246,101,o),
(250,115,o),
(256,127,cs),
(266,147,o),
(276,167,o),
(286,185,c),
(238,185,o),
(196,224,o),
(196,277,cs),
(196,309,o),
(214,341,o),
(246,357,cs),
(286,377,o),
(336,393,o),
(388,407,c),
(420,481,o),
(426,499,o),
(446,559,c),
(422,561,o),
(380,563,o),
(354,563,cs),
(298,563,o),
(276,557,o),
(210,545,c),
(210,541,o),
(212,535,o),
(212,531,cs)
);
}
);
userData = {
com.fontlab.hintData = {
hhints = (
{
position = -3;
width = 21;
},
{
position = 563;
width = 180;
}
);
vhints = (
{
position = 246;
width = 172;
}
);
};
};
width = 724;
}
);
unicode = 55;
},
{
glyphname = eight;
layers = (
{
layerId = master01;
shapes = (
{
closed = 1;
nodes = (
(256,-9,o),
(134,40,o),
(134,159,cs),
(134,255,o),
(226,353,o),
(284,403,c),
(250,425,o),
(200,451,o),
(158,477,cs),
(146,483,o),
(136,493,o),
(130,505,c),
(122,503,o),
(116,503,o),
(108,503,cs),
(63,503,o),
(20,537,o),
(20,591,cs),
(20,625,o),
(40,659,o),
(72,673,cs),
(178,723,o),
(264,747,o),
(344,751,cs),
(354,751,o),
(364,753,o),
(376,753,cs),
(482,753,o),
(652,697,o),
(652,567,cs),
(652,553,o),
(650,539,o),
(644,523,cs),
(638,495,o),
(622,465,o),
(600,437,cs),
(590,425,o),
(580,415,o),
(570,403,c),
(632,343,o),
(666,277,o),
(666,213,cs),
(666,155,o),
(640,99,o),
(578,51,cs),
(526,11,o),
(450,-9,o),
(376,-9,cs)
);
},
{
closed = 1;
nodes = (
(332,173,o),
(358,169,o),
(402,167,cs),
(446,169,o),
(484,199,o),
(486,223,cs),
(486,225,o),
(480,241,o),
(436,281,cs),
(432,285,o),
(428,289,o),
(424,293,c),
(362,249,o),
(328,211,o),
(318,177,c)
);
},
{
closed = 1;
nodes = (
(374,551,o),
(402,533,o),
(428,517,c),
(442,529,o),
(452,541,o),
(460,551,c),
(440,563,o),
(412,573,o),
(374,573,cs),
(364,573,o),
(354,573,o),
(344,571,c)
);
}
);
userData = {
com.fontlab.hintData = {
hhints = (
{
position = -9;
width = 176;
},
{
position = 503;
width = 21;
},
{
position = 573;
width = 178;
}
);
vhints = (
{
position = 486;
width = 180;
}
);
};
};
width = 686;
}
);
unicode = 56;
},
{
glyphname = nine;
layers = (
{
layerId = master01;
shapes = (
{
closed = 1;
nodes = (
(456,11,o),
(454,11,o),
(452,13,cs),
(404,17,o),
(370,57,o),
(370,101,cs),
(370,109,l),
(374,173,o),
(378,231,o),
(382,281,c),
(338,273,o),
(300,267,o),
(264,267,cs),
(226,267,o),
(190,273,o),
(158,283,c),
(154,283,l),
(84,309,o),
(52,355,o),
(38,389,cs),
(22,425,o),
(20,463,o),
(20,497,cs),
(20,557,o),
(52,619,o),
(106,665,cs),
(162,713,o),
(232,739,o),
(306,739,cs),
(308,739,o),
(310,739,o),
(312,739,cs),
(388,733,o),
(446,709,o),
(488,667,cs),
(526,629,o),
(542,585,o),
(552,547,cs),
(552,545,o),
(552,541,o),
(554,539,cs),
(562,501,o),
(564,453,o),
(564,391,cs),
(564,315,o),
(560,217,o),
(548,95,cs),
(544,47,o),
(506,11,o),
(460,11,cs)
);
},
{
closed = 1;
nodes = (
(226,451,o),
(242,447,o),
(266,447,cs),
(294,447,o),
(330,453,o),
(382,465,c),
(378,492,o),
(375,526,o),
(360,541,cs),
(350,549,o),
(330,557,o),
(302,559,cs),
(264,559,o),
(238,541,o),
(226,531,cs),
(208,515,o),
(200,499,o),
(200,493,cs),
(200,481,o),
(200,465,o),
(202,459,cs),
(204,459,o),
(206,457,o),
(212,455,cs)
);
}
);
userData = {
com.fontlab.hintData = {
hhints = (
{
position = 11;
width = 21;
},
{
position = 267;
width = 180;
},
{
position = 559;
width = 180;
}
);
vhints = (
{
position = 20;
width = 180;
},
{
position = 370;
width = 194;
},
{
position = 370;
width = 178;
}
);
};
};
width = 584;
}
);
unicode = 57;
},
{
glyphname = uni00B9;
layers = (
{
layerId = master01;
shapes = (
{
closed = 1;
nodes = (
(384,534,o),
(348,492,o),
(294,492,cs),
(254,492,o),
(218,520,o),
(208,562,cs),
(194,618,o),
(188,668,o),
(188,730,c),
(166,715,o),
(143,698,o),
(110,698,cs),
(66,698,o),
(20,734,o),
(20,788,cs),
(20,818,o),
(36,848,o),
(64,866,cs),
(122,900,o),
(196,942,o),
(254,970,cs),
(266,976,o),
(280,980,o),
(294,980,cs),
(342,980,o),
(384,937,o),
(384,892,cs),
(384,886,o),
(382,882,o),
(382,876,cs),
(372,808,o),
(368,758,o),
(368,718,cs),
(368,674,o),
(374,638,o),
(382,602,cs),
(384,594,o),
(384,588,o),
(384,580,cs)
);
}
);
userData = {
com.fontlab.hintData = {
vhints = (
{
position = 188;
width = 180;
},
{
position = 208;
width = 176;
}
);
};
};
width = 404;
}
);
unicode = 185;
},
{
glyphname = uni00B2;
layers = (
{
layerId = master01;
shapes = (
{
closed = 1;
nodes = (
(20,934,o),
(63,972,o),
(108,972,cs),
(120,972,o),
(130,970,o),
(140,966,cs),
(198,946,o),
(234,934,o),
(270,934,cs),
(292,934,o),
(314,938,o),
(340,948,cs),
(350,952,o),
(360,954,o),
(370,954,cs),
(396,954,o),
(424,940,o),
(442,916,cs),
(452,900,o),
(458,882,o),
(458,864,cs),
(458,846,o),
(452,826,o),
(440,810,cs),
(406,764,o),
(374,730,o),
(346,702,cs),
(324,678,o),
(310,664,o),
(302,652,c),
(310,648,o),
(318,644,o),
(330,640,cs),
(352,631,o),
(372,627,o),
(382,627,cs),
(385,627,o),
(387,628,o),
(388,628,cs),
(392,628,o),
(396,628,o),
(400,628,cs),
(446,628,o),
(484,598,o),
(490,552,cs),
(490,548,o),
(492,542,o),
(492,538,cs),
(492,494,o),
(460,456,o),
(416,450,cs),
(406,448,o),
(396,448,o),
(386,448,cs),
(350,448,o),
(308,456,o),
(270,470,cs),
(224,486,o),
(160,520,o),
(128,584,cs),
(119,599,o),
(116,619,o),
(116,640,cs),
(116,692,o),
(138,734,o),
(166,770,c),
(138,776,o),
(110,786,o),
(80,796,cs),
(44,810,o),
(20,844,o),
(20,880,cs)
);
}
);
userData = {
com.fontlab.hintData = {
hhints = (
{
position = 448;
width = 179;
},
{
position = 796;
width = 176;
},
{
position = 934;
width = 20;
}
);
vhints = (
{
position = 20;
width = 438;
}
);
};
};
width = 512;
}
);
unicode = 178;
},
{
glyphname = uni00B3;
layers = (
{
layerId = master01;
shapes = (
{
closed = 1;
nodes = (
(246,441,o),
(198,447,o),
(150,455,cs),
(144,455,o),
(138,457,o),
(132,457,cs),
(88,465,o),
(54,501,o),
(54,545,cs),
(54,549,o),
(56,555,o),
(56,559,cs),
(62,605,o),
(100,637,o),
(144,637,cs),
(148,637,o),
(154,635,o),
(158,635,cs),
(164,635,o),
(170,633,o),
(174,633,cs),
(204,629,o),
(232,625,o),
(258,623,c),
(240,637,o),
(220,649,o),
(208,653,cs),
(174,665,o),
(152,695,o),
(148,729,c),
(148,737,ls),
(148,757,o),
(156,777,o),
(168,793,c),
(152,793,o),
(136,793,o),
(122,791,cs),
(118,791,o),
(112,789,o),
(108,789,cs),
(64,789,o),
(26,823,o),
(20,869,c),
(20,879,ls),
(20,923,o),
(54,963,o),
(98,969,cs),
(122,971,o),
(148,973,o),
(176,973,cs),
(257,973,o),
(328,956,o),
(364,925,cs),
(388,901,o),
(404,871,o),
(404,837,cs),
(404,833,l),
(402,807,o),
(398,779,o),
(384,751,c),
(388,747,o),
(392,745,o),
(394,741,cs),
(442,693,o),
(468,639,o),
(468,585,cs),
(468,543,o),
(450,507,o),
(422,481,cs),
(386,451,o),
(340,441,o),
(290,441,cs)
);
}
);
userData = {
com.fontlab.hintData = {
hhints = (
{
position = 455;
width = 182;
},
{
position = 789;
width = 184;
}
);
};
};
width = 488;
}
);
unicode = 179;
},
{
glyphname = onehalf;
layers = (
{
layerId = master01;
shapes = (
{
closed = 1;
nodes = (
(20,921,o),
(55,965,o),
(108,965,cs),
(142,965,o),
(174,949,o),
(190,919,cs),
(220,863,o),
(224,807,o),
(224,753,cs),
(224,741,o),
(224,729,o),
(224,717,cs),
(220,669,o),
(182,631,o),
(134,631,cs),
(130,631,l),
(82,633,o),
(44,673,o),
(44,721,cs),
(44,751,ls),
(44,793,o),
(40,815,o),
(32,831,cs),
(24,845,o),
(20,861,o),
(20,875,cs)
);
},
{
closed = 1;
nodes = (
(489,925,o),
(522,880,o),
(522,835,cs),
(522,827,o),
(522,821,o),
(520,813,cs),
(470,625,o),
(374,387,o),
(272,189,cs),
(256,157,o),
(224,139,o),
(192,139,cs),
(139,139,o),
(102,184,o),
(102,229,cs),
(102,243,o),
(104,257,o),
(112,271,cs),
(208,459,o),
(300,683,o),
(346,857,cs),
(356,899,o),
(394,925,o),
(434,925,cs)
);
},
{
closed = 1;
nodes = (
(781,205,o),
(826,171,o),
(826,117,cs),
(826,79,o),
(802,43,o),
(764,31,cs),
(728,19,o),
(694,13,o),
(662,13,cs),
(594,13,o),
(542,37,o),
(520,51,cs),
(494,65,o),
(476,91,o),
(474,121,c),
(474,143,ls),
(474,205,o),
(496,261,o),
(534,319,c),
(524,321,o),
(516,323,o),
(506,325,cs),
(466,335,o),
(438,373,o),
(438,413,cs),
(438,467,o),
(479,503,o),
(526,503,cs),
(547,503,o),
(566,496,o),
(584,493,cs),
(620,483,o),
(648,475,o),
(670,475,cs),
(674,475,o),
(678,477,o),
(682,477,cs),
(688,479,o),
(694,479,o),
(700,479,cs),
(747,479,o),
(790,442,o),
(790,389,cs),
(790,369,o),
(782,349,o),
(768,331,cs),
(728,283,o),
(690,235,o),
(668,195,c),
(688,195,o),
(715,205,o),
(736,205,cs)
);
}
);
userData = {
com.fontlab.hintData = {
hhints = (
{
position = 325;
width = 178;
},
{
position = 631;
width = 334;
}
);
vhints = (
{
position = 44;
width = 180;
},
{
position = 346;
width = 176;
},
{
position = 438;
width = 352;
},
{
position = 474;
width = 352;
}
);
};
};
width = 846;
}
);
unicode = 189;
},
{
glyphname = onequarter;
layers = (
{
layerId = master01;
shapes = (
{
closed = 1;
nodes = (
(132,566,o),
(98,584,o),
(84,618,cs),
(52,684,o),
(30,752,o),
(20,856,cs),
(20,858,o),
(20,862,o),
(20,864,cs),
(20,910,o),
(54,950,o),
(102,954,cs),
(104,954,o),
(108,954,o),
(110,954,cs),
(156,954,o),
(196,920,o),
(200,872,cs),
(206,792,o),
(222,746,o),
(246,694,cs),
(252,682,o),
(254,668,o),
(254,654,cs),
(254,620,o),
(236,588,o),
(204,574,cs),
(190,568,o),
(178,566,o),
(166,566,cs)
);
},
{
closed = 1;
nodes = (
(182,16,o),
(144,62,o),
(144,108,cs),
(144,122,o),
(148,136,o),
(156,150,cs),
(252,324,o),
(408,632,o),
(430,778,cs),
(436,822,o),
(476,854,o),
(520,854,cs),
(524,854,o),
(528,854,o),
(532,854,cs),
(578,846,o),
(610,808,o),
(610,766,cs),
(610,762,o),
(608,756,o),
(608,752,cs),
(582,584,o),
(420,256,o),
(312,62,cs),
(296,34,o),
(266,16,o),
(234,16,cs)
);
},
{
closed = 1;
nodes = (
(978,13,o),
(946,31,o),
(930,63,cs),
(924,77,o),
(918,91,o),
(912,105,c),
(892,101,o),
(868,97,o),
(840,97,cs),
(832,97,o),
(826,97,o),
(818,97,cs),
(768,97,o),
(716,103,o),
(678,113,cs),
(646,121,o),
(622,147,o),
(614,179,cs),
(596,253,o),
(596,327,o),
(596,419,cs),
(596,467,o),
(636,510,o),
(686,510,cs),
(736,510,o),
(776,467,o),
(776,419,cs),
(776,363,o),
(776,313,o),
(780,277,c),
(792,277,o),
(806,275,o),
(818,275,cs),
(842,275,o),
(860,279,o),
(872,281,c),
(876,299,o),
(882,335,o),
(884,409,cs),
(884,411,o),
(884,413,o),
(884,413,c),
(884,425,ls),
(884,475,o),
(924,513,o),
(974,513,cs),
(974,513,o),
(974,513,o),
(976,513,cs),
(1024,513,o),
(1064,471,o),
(1064,423,cs),
(1064,417,o),
(1064,411,o),
(1064,405,cs),
(1064,373,o),
(1064,345,o),
(1064,319,cs),
(1064,241,o),
(1068,191,o),
(1092,143,cs),
(1098,131,o),
(1102,117,o),
(1102,103,cs),
(1102,71,o),
(1082,39,o),
(1050,23,cs),
(1038,15,o),
(1024,13,o),
(1010,13,cs)
);
},
{
closed = 1;
nodes = (
(866,265,l)
);
}
);
userData = {
com.fontlab.hintData = {
hhints = (
{
position = 16;
width = 21;
},
{
position = 113;
width = 397;
},
{
position = 934;
width = 20;
}
);
vhints = (
{
position = 20;
width = 180;
},
{
position = 596;
width = 180;
},
{
position = 884;
width = 180;
}
);
};
};
width = 1122;
}
);
unicode = 188;
},
{
glyphname = threequarters;
layers = (
{
layerId = master01;
shapes = (
{
closed = 1;
nodes = (
(224,436,o),
(186,438,o),
(148,444,cs),
(104,450,o),
(70,488,o),
(70,532,cs),
(70,536,o),
(72,542,o),
(72,546,cs),
(78,590,o),
(116,624,o),
(158,624,cs),
(162,624,o),
(168,622,o),
(172,622,cs),
(202,618,o),
(228,616,o),
(250,616,c),
(232,624,o),
(212,632,o),
(188,636,cs),
(146,646,o),
(118,682,o),
(118,724,cs),
(118,742,o),
(122,758,o),
(132,772,c),
(110,772,ls),
(64,772,o),
(24,806,o),
(20,854,c),
(20,862,ls),
(20,908,o),
(54,946,o),
(102,952,cs),
(122,954,o),
(140,954,o),
(158,954,cs),
(188,954,o),
(216,952,o),
(242,950,cs),
(323,938,o),
(394,901,o),
(394,820,cs),
(394,806,o),
(394,778,o),
(384,748,c),
(390,744,o),
(396,740,o),
(402,736,cs),
(480,680,o),
(496,620,o),
(496,582,cs),
(496,546,o),
(480,512,o),
(452,488,cs),
(413,452,o),
(344,436,o),
(260,436,cs)
);
},
{
closed = 1;
nodes = (
(749,868,o),
(784,821,o),
(784,776,cs),
(784,770,o),
(784,764,o),
(782,758,cs),
(738,568,o),
(668,420,o),
(616,300,cs),
(582,226,o),
(542,156,o),
(518,80,cs),
(506,40,o),
(472,16,o),
(432,16,cs),
(377,16,o),
(342,60,o),
(342,106,cs),
(342,114,o),
(344,124,o),
(346,132,cs),
(372,218,o),
(416,294,o),
(450,374,cs),
(502,492,o),
(566,624,o),
(606,798,cs),
(614,840,o),
(652,868,o),
(694,868,cs)
);
},
{
closed = 1;
nodes = (
(1000,16,o),
(960,48,o),
(954,94,cs),
(954,104,o),
(952,116,o),
(950,126,c),
(926,122,o),
(904,122,o),
(890,122,cs),
(842,124,o),
(774,132,o),
(726,170,cs),
(702,191,o),
(688,229,o),
(688,270,cs),
(688,298,o),
(694,322,o),
(700,346,cs),
(706,368,o),
(712,396,o),
(718,438,cs),
(724,484,o),
(762,516,o),
(806,516,cs),
(810,516,o),
(814,516,o),
(818,516,cs),
(864,510,o),
(896,470,o),
(896,428,cs),
(896,424,o),
(896,420,o),
(896,416,cs),
(890,364,o),
(882,330,o),
(876,304,c),
(882,304,o),
(890,302,o),
(898,302,cs),
(914,302,o),
(930,304,o),
(940,306,c),
(942,314,o),
(942,322,o),
(944,332,cs),
(946,364,o),
(950,398,o),
(954,434,cs),
(962,478,o),
(1000,510,o),
(1044,510,cs),
(1048,510,o),
(1052,510,o),
(1056,510,cs),
(1100,504,o),
(1134,466,o),
(1134,420,cs),
(1134,410,l),
(1132,394,o),
(1130,376,o),
(1128,358,cs),
(1126,344,o),
(1124,330,o),
(1124,316,cs),
(1122,298,o),
(1122,280,o),
(1122,262,cs),
(1122,212,o),
(1126,166,o),
(1134,118,cs),
(1134,114,o),
(1134,110,o),
(1134,106,cs),
(1134,64,o),
(1102,24,o),
(1056,16,cs),
(1052,16,o),
(1048,16,o),
(1044,16,cs)
);
}
);
userData = {
com.fontlab.hintData = {
hhints = (
{
position = 16;
width = 21;
},
{
position = 122;
width = 180;
},
{
position = 444;
width = 180;
},
{
position = 934;
width = 20;
}
);
vhints = (
{
position = 342;
width = 176;
},
{
position = 606;
width = 178;
},
{
position = 718;
width = 178;
},
{
position = 954;
width = 180;
}
);
};
};
width = 1154;
}
);
unicode = 190;
},
{
glyphname = period;
layers = (
{
layerId = master01;
shapes = (
{
closed = 1;
nodes = (
(112,-114,o),
(100,-110,o),
(88,-106,cs),
(58,-94,o),
(36,-70,o),
(26,-42,cs),
(22,-28,o),
(20,-16,o),
(20,-4,cs),
(20,24,o),
(30,46,o),
(34,54,cs),
(50,86,o),
(82,104,o),
(116,104,cs),
(130,104,o),
(144,100,o),
(156,94,cs),
(186,78,o),
(202,48,o),
(204,16,c),
(210,4,o),
(214,-8,o),
(214,-22,cs),
(214,-34,o),
(210,-46,o),
(206,-58,cs),
(192,-92,o),
(158,-114,o),
(124,-114,cs)
);
}
);
userData = {
com.fontlab.hintData = {
hhints = (
{
position = -114;
width = 218;
}
);
vhints = (
{
position = 20;
width = 194;
}
);
};
};
width = 234;
}
);
unicode = 46;
},
{
glyphname = comma;
layers = (
{
layerId = master01;
shapes = (
{
closed = 1;
nodes = (
(90,-217,o),
(70,-211,o),
(54,-197,cs),
(32,-179,o),
(20,-153,o),
(20,-127,cs),
(20,-107,o),
(26,-87,o),
(40,-71,cs),
(50,-59,o),
(52,-39,o),
(52,-21,cs),
(52,1,o),
(50,19,o),
(46,29,cs),
(44,37,o),
(42,47,o),
(42,55,cs),
(42,95,o),
(66,129,o),
(106,143,cs),
(114,145,o),
(122,147,o),
(132,147,cs),
(170,147,o),
(206,121,o),
(218,83,cs),
(222,75,o),
(232,35,o),
(232,-17,cs),
(232,-69,o),
(222,-131,o),
(180,-183,cs),
(162,-205,o),
(136,-217,o),
(110,-217,cs)
);
}
);
userData = {
com.fontlab.hintData = {
hhints = (
{
position = -217;
width = 364;
}
);
vhints = (
{
position = 52;
width = 180;
}
);
};
};
width = 252;
}
);
unicode = 44;
},
{
glyphname = colon;
layers = (
{
layerId = master01;
shapes = (
{
closed = 1;
nodes = (
(189,512,o),
(234,478,o),
(234,424,cs),
(234,384,o),
(210,350,o),
(172,336,c),
(138,326,ls),
(128,324,o),
(120,322,o),
(110,322,cs),
(65,322,o),
(20,356,o),
(20,410,cs),
(20,450,o),
(44,484,o),
(82,498,c),
(116,508,l),
(126,512,o),
(136,512,o),
(144,512,cs)
);
},
{
closed = 1;
nodes = (
(290,55,o),
(252,10,o),
(200,10,cs),
(164,10,o),
(132,30,o),
(116,64,c),
(102,96,ls),
(96,108,o),
(94,118,o),
(94,130,cs),
(94,166,o),
(116,200,o),
(150,214,cs),
(162,220,o),
(172,222,o),
(184,222,cs),
(220,222,o),
(254,200,o),
(268,168,cs),
(282,136,ls),
(288,124,o),
(290,112,o),
(290,100,cs)
);
}
);
userData = {
com.fontlab.hintData = {
hhints = (
{
position = 10;
width = 212;
},
{
position = 322;
width = 190;
}
);
vhints = (
{
position = 20;
width = 214;
},
{
position = 94;
width = 196;
}
);
};
};
width = 310;
}
);
unicode = 58;
},
{
glyphname = semicolon;
layers = (
{
layerId = master01;
shapes = (
{
closed = 1;
nodes = (
(260,551,o),
(298,491,o),
(298,437,cs),
(298,433,o),
(298,429,o),
(298,425,cs),
(292,371,o),
(252,323,o),
(204,307,cs),
(194,305,o),
(184,303,o),
(176,303,cs),
(130,303,o),
(86,337,o),
(86,393,cs),
(86,413,o),
(94,435,o),
(106,451,c),
(106,454,o),
(106,457,o),
(106,460,cs),
(106,512,o),
(153,551,o),
(196,551,cs)
);
},
{
closed = 1;
nodes = (
(152,383,l)
);
},
{
closed = 1;
nodes = (
(86,-241,o),
(62,-231,o),
(44,-213,cs),
(28,-195,o),
(20,-173,o),
(20,-151,cs),
(20,-127,o),
(30,-103,o),
(48,-85,cs),
(60,-75,o),
(80,-47,o),
(96,-1,cs),
(112,37,o),
(120,79,o),
(120,105,cs),
(120,107,o),
(120,107,o),
(120,109,cs),
(120,157,o),
(160,195,o),
(208,197,cs),
(208,197,o),
(208,197,o),
(210,197,cs),
(258,197,o),
(298,157,o),
(300,109,cs),
(300,41,o),
(278,-29,o),
(264,-65,cs),
(250,-103,o),
(220,-173,o),
(172,-217,cs),
(154,-233,o),
(132,-241,o),
(110,-241,cs)
);
}
);
userData = {
com.fontlab.hintData = {
hhints = (
{
position = 303;
width = 248;
}
);
vhints = (
{
position = 106;
width = 192;
},
{
position = 120;
width = 180;
}
);
};
};
width = 320;
}
);
unicode = (59,894);
},
{
glyphname = exclam;
layers = (
{
layerId = master01;
shapes = (
{
closed = 1;
nodes = (
(154,164,o),
(114,200,o),
(110,248,cs),
(100,408,o),
(70,522,o),
(26,626,cs),
(22,636,o),
(20,648,o),
(20,658,cs),
(20,694,o),
(40,728,o),
(76,742,cs),
(88,748,o),
(100,750,o),
(112,750,cs),
(146,750,o),
(180,728,o),
(194,694,cs),
(244,572,o),
(278,442,o),
(290,260,cs),
(290,258,o),
(290,256,o),
(290,254,cs),
(290,208,o),
(254,168,o),
(206,164,cs),
(204,164,o),
(202,164,o),
(200,164,cs)
);
},
{
closed = 1;
nodes = (
(242,-93,o),
(212,-79,o),
(196,-51,cs),
(178,-25,ls),
(170,-9,o),
(164,7,o),
(164,23,cs),
(164,53,o),
(180,81,o),
(208,99,cs),
(222,109,o),
(240,113,o),
(256,113,cs),
(286,113,o),
(316,99,o),
(332,71,cs),
(348,43,ls),
(358,29,o),
(362,11,o),
(362,-5,cs),
(362,-35,o),
(348,-65,o),
(320,-81,cs),
(304,-89,o),
(288,-93,o),
(272,-93,cs)
);
}
);
userData = {
com.fontlab.hintData = {
hhints = (
{
position = -93;
width = 206;
},
{
position = 730;
width = 20;
}
);
vhints = (
{
position = 110;
width = 180;
},
{
position = 164;
width = 198;
}
);
};
};
width = 382;
}
);
unicode = 33;
},
{
glyphname = exclamdown;
layers = (
{
layerId = master01;
shapes = (
{
closed = 1;
nodes = (
(362,-269,o),
(328,-316,o),
(272,-316,cs),
(236,-316,o),
(204,-296,o),
(188,-260,cs),
(138,-138,o),
(104,22,o),
(92,202,c),
(92,210,ls),
(92,256,o),
(128,296,o),
(176,298,cs),
(178,298,o),
(180,298,o),
(182,298,cs),
(228,298,o),
(268,262,o),
(272,216,cs),
(282,56,o),
(312,-90,o),
(356,-192,cs),
(360,-202,o),
(362,-214,o),
(362,-226,cs)
);
},
{
closed = 1;
nodes = (
(218,446,o),
(181,402,o),
(126,402,cs),
(96,402,o),
(68,416,o),
(50,444,cs),
(34,470,ls),
(24,486,o),
(20,502,o),
(20,518,cs),
(20,564,o),
(57,608,o),
(110,608,cs),
(140,608,o),
(170,594,o),
(186,566,c),
(204,538,ls),
(212,524,o),
(218,508,o),
(218,492,cs)
);
}
);
userData = {
com.fontlab.hintData = {
hhints = (
{
position = 402;
width = 206;
}
);
vhints = (
{
position = 20;
width = 198;
},
{
position = 92;
width = 180;
}
);
};
};
width = 382;
}
);
unicode = 161;
},
{
glyphname = question;
layers = (
{
layerId = master01;
shapes = (
{
closed = 1;
nodes = (
(544,340,ls),
(590,340,o),
(630,304,o),
(634,258,c),
(634,250,ls),
(634,204,o),
(600,164,o),
(552,160,c),
(548,160,l),
(488,154,o),
(436,150,o),
(388,150,cs),
(364,150,o),
(344,152,o),
(324,154,cs),
(204,168,o),
(160,232,o),
(144,284,cs),
(142,292,o),
(141,300,o),
(141,308,cs),
(141,314,o),
(141,319,o),
(142,324,cs),
(152,394,o),
(212,478,o),
(302,596,cs),
(318,618,o),
(338,646,o),
(356,670,c),
(342,674,o),
(324,678,o),
(302,680,cs),
(250,688,o),
(184,692,o),
(110,694,cs),
(60,694,o),
(20,734,o),
(20,784,cs),
(20,834,o),
(62,874,o),
(110,874,cs),
(210,872,o),
(294,866,o),
(360,854,cs),
(432,842,o),
(530,814,o),
(560,736,cs),
(565,724,o),
(568,712,o),
(568,701,cs),
(568,695,o),
(567,689,o),
(566,684,cs),
(556,636,o),
(518,584,o),
(446,488,cs),
(414,448,o),
(384,406,o),
(358,368,cs),
(350,354,o),
(342,342,o),
(336,334,c),
(346,332,o),
(358,330,o),
(376,330,cs),
(418,330,o),
(474,334,o),
(532,340,c)
);
},
{
closed = 1;
nodes = (
(420,102,o),
(464,65,o),
(464,12,cs),
(464,-20,o),
(446,-50,o),
(418,-66,cs),
(362,-98,ls),
(348,-106,o),
(332,-108,o),
(318,-108,cs),
(272,-108,o),
(228,-71,o),
(228,-18,cs),
(228,14,o),
(246,44,o),
(274,60,cs),
(330,90,ls),
(344,98,o),
(360,102,o),
(374,102,cs)
);
}
);
userData = {
com.fontlab.hintData = {
hhints = (
{
position = -108;
width = 210;
},
{
position = 150;
width = 180;
},
{
position = 160;
width = 180;
},
{
position = 694;
width = 180;
}
);
vhints = (
{
position = 228;
width = 236;
}
);
};
};
width = 654;
}
);
unicode = 63;
},
{
glyphname = questiondown;
layers = (
{
layerId = master01;
shapes = (
{
closed = 1;
nodes = (
(320,441,o),
(283,394,o),
(230,394,cs),
(224,394,o),
(218,394,o),
(214,396,cs),
(208,395,o),
(202,394,o),
(196,394,cs),
(143,394,o),
(106,441,o),
(106,484,cs),
(106,498,o),
(110,512,o),
(116,524,cs),
(146,584,o),
(194,590,o),
(214,590,cs),
(232,590,o),
(280,584,o),
(310,524,cs),
(316,512,o),
(320,498,o),
(320,484,cs)
);
},
{
closed = 1;
nodes = (
(524,-362,o),
(570,-401,o),
(570,-452,cs),
(570,-482,o),
(554,-512,o),
(526,-530,cs),
(470,-562,o),
(406,-580,o),
(336,-580,cs),
(334,-580,ls),
(268,-580,o),
(204,-564,o),
(152,-534,cs),
(68,-488,o),
(20,-408,o),
(20,-320,cs),
(20,-250,o),
(46,-180,o),
(92,-122,cs),
(130,-76,o),
(178,-42,o),
(234,-18,c),
(236,-2,o),
(236,12,o),
(236,26,cs),
(236,68,o),
(230,102,o),
(216,136,cs),
(212,146,o),
(210,158,o),
(210,170,cs),
(210,217,o),
(244,258,o),
(300,258,cs),
(336,258,o),
(370,238,o),
(384,202,cs),
(406,144,o),
(416,88,o),
(416,22,cs),
(416,-16,o),
(412,-56,o),
(406,-100,cs),
(400,-136,o),
(374,-166,o),
(338,-174,cs),
(244,-196,o),
(200,-264,o),
(200,-320,cs),
(200,-328,o),
(200,-356,o),
(240,-378,cs),
(266,-392,o),
(300,-400,o),
(336,-400,cs),
(370,-400,o),
(406,-392,o),
(432,-376,cs),
(446,-366,o),
(464,-362,o),
(480,-362,cs)
);
},
{
closed = 1;
nodes = (
(318,-86,l),
(316,-86,l)
);
}
);
userData = {
com.fontlab.hintData = {
hhints = (
{
position = -580;
width = 180;
},
{
position = 394;
width = 196;
}
);
vhints = (
{
position = 20;
width = 180;
},
{
position = 106;
width = 214;
},
{
position = 236;
width = 180;
}
);
};
};
width = 590;
}
);
unicode = 191;
},
{
glyphname = periodcentered;
layers = (
{
layerId = master01;
shapes = (
{
closed = 1;
nodes = (
(199,528,o),
(242,491,o),
(242,440,cs),
(242,414,o),
(232,388,o),
(210,370,cs),
(168,334,l),
(150,320,o),
(130,314,o),
(110,314,cs),
(84,314,o),
(58,324,o),
(42,346,cs),
(28,364,o),
(20,384,o),
(20,404,cs),
(20,430,o),
(32,454,o),
(52,472,cs),
(94,508,ls),
(110,522,o),
(130,528,o),
(152,528,cs)
);
}
);
userData = {
com.fontlab.hintData = {
hhints = (
{
position = 314;
width = 214;
}
);
vhints = (
{
position = 20;
width = 222;
}
);
};
};
width = 262;
}
);
unicode = 183;
},
{
glyphname = asterisk;
layers = (
{
layerId = master01;
shapes = (
{
closed = 1;
nodes = (
(618,484,o),
(590,452,o),
(556,440,c),
(556,440,o),
(556,438,o),
(558,438,cs),
(570,422,o),
(578,402,o),
(578,382,cs),
(578,356,o),
(566,330,o),
(544,312,cs),
(528,298,o),
(508,292,o),
(488,292,cs),
(460,292,o),
(434,304,o),
(418,326,cs),
(400,348,o),
(380,370,o),
(358,394,c),
(292,322,ls),
(274,302,o),
(250,292,o),
(226,292,cs),
(204,292,o),
(182,300,o),
(166,316,cs),
(146,334,o),
(136,358,o),
(136,382,cs),
(136,388,o),
(136,392,o),
(138,398,c),
(134,398,o),
(132,398,o),
(132,398,cs),
(124,396,o),
(118,394,o),
(110,394,cs),
(70,394,o),
(32,422,o),
(22,464,cs),
(20,472,o),
(20,478,o),
(20,486,cs),
(20,526,o),
(48,562,o),
(88,572,cs),
(92,574,o),
(120,580,o),
(164,588,c),
(148,604,o),
(140,628,o),
(140,648,cs),
(140,672,o),
(148,692,o),
(164,710,cs),
(182,730,o),
(206,740,o),
(230,740,cs),
(252,740,o),
(274,732,o),
(290,716,cs),
(294,714,o),
(318,690,o),
(354,656,c),
(400,706,ls),
(416,726,o),
(442,736,o),
(466,736,cs),
(488,736,o),
(508,728,o),
(526,712,cs),
(546,696,o),
(556,670,o),
(556,646,cs),
(556,634,o),
(554,624,o),
(550,614,c),
(590,604,o),
(620,568,o),
(620,526,cs),
(620,524,o),
(620,524,o),
(620,522,cs)
);
}
);
userData = {
com.fontlab.hintData = {
hhints = (
{
position = 720;
width = 20;
}
);
};
};
width = 640;
}
);
unicode = 42;
},
{
glyphname = numbersign;
layers = (
{
layerId = master01;
shapes = (
{
closed = 1;
nodes = (
(690,540,o),
(642,534,o),
(594,530,c),
(590,494,o),
(584,458,o),
(578,422,c),
(610,426,o),
(644,430,o),
(680,434,cs),
(684,434,o),
(690,436,o),
(694,436,cs),
(750,436,o),
(780,390,o),
(780,344,cs),
(780,304,o),
(758,266,o),
(706,256,cs),
(648,248,o),
(594,242,o),
(544,236,c),
(530,180,o),
(516,118,o),
(500,56,cs),
(490,10,o),
(454,-10,o),
(416,-10,cs),
(372,-10,o),
(324,22,o),
(324,78,cs),
(324,86,o),
(324,92,o),
(326,100,cs),
(336,144,o),
(348,184,o),
(356,226,c),
(354,226,o),
(352,226,o),
(348,226,cs),
(322,226,o),
(294,228,o),
(270,230,c),
(246,154,o),
(226,114,o),
(210,84,cs),
(194,56,o),
(164,40,o),
(132,40,cs),
(116,40,o),
(102,44,o),
(88,52,cs),
(58,68,o),
(42,98,o),
(42,130,cs),
(42,144,o),
(46,160,o),
(54,174,cs),
(64,192,o),
(76,218,o),
(88,254,c),
(48,268,o),
(30,302,o),
(30,336,cs),
(30,382,o),
(62,428,o),
(118,428,cs),
(124,428,o),
(130,428,o),
(136,426,cs),
(136,426,o),
(136,426,o),
(138,426,cs),
(144,450,o),
(150,474,o),
(156,500,c),
(140,500,o),
(125,501,o),
(111,501,cs),
(109,501,o),
(107,501,o),
(107,501,cs),
(49,501,o),
(20,544,o),
(20,588,cs),
(20,632,o),
(48,677,o),
(104,679,cs),
(134,681,o),
(164,680,o),
(196,682,c),
(200,704,o),
(206,728,o),
(210,752,cs),
(220,828,o),
(262,854,o),
(300,854,cs),
(344,854,o),
(388,828,o),
(388,744,cs),
(388,742,o),
(388,738,o),
(388,734,cs),
(388,728,o),
(388,722,o),
(386,716,cs),
(384,708,o),
(382,700,o),
(382,694,c),
(398,694,o),
(414,696,o),
(430,696,cs),
(430,702,o),
(430,706,o),
(430,710,cs),
(436,798,o),
(482,844,o),
(526,844,cs),
(568,844,o),
(610,824,o),
(610,712,c),
(646,716,o),
(682,720,o),
(720,724,cs),
(724,724,o),
(728,724,o),
(730,724,cs),
(788,724,o),
(816,680,o),
(816,634,cs),
(816,592,o),
(792,550,o),
(740,544,cs)
);
},
{
closed = 1;
nodes = (
(400,444,o),
(406,480,o),
(410,516,c),
(388,514,o),
(364,512,o),
(342,510,c),
(334,472,o),
(326,438,o),
(318,408,c),
(330,406,o),
(342,406,o),
(356,406,cs),
(368,406,o),
(382,406,o),
(394,408,c)
);
}
);
userData = {
com.fontlab.hintData = {
hhints = (
{
position = -10;
width = 21;
},
{
position = 501;
width = 178;
},
{
position = 544;
width = 180;
}
);
vhints = (
{
position = 324;
width = 176;
}
);
};
};
width = 836;
}
);
unicode = 35;
},
{
glyphname = slash;
layers = (
{
layerId = master01;
shapes = (
{
closed = 1;
nodes = (
(98,-3,o),
(86,-1,o),
(74,5,cs),
(42,19,o),
(20,51,o),
(20,87,cs),
(20,99,o),
(22,111,o),
(28,123,cs),
(146,399,o),
(222,613,o),
(242,683,cs),
(254,723,o),
(288,747,o),
(328,747,cs),
(336,747,o),
(346,745,o),
(354,743,cs),
(392,731,o),
(418,695,o),
(418,657,cs),
(418,647,o),
(416,639,o),
(414,631,cs),
(388,541,o),
(300,305,o),
(192,53,cs),
(178,17,o),
(144,-3,o),
(110,-3,cs)
);
}
);
userData = {
com.fontlab.hintData = {
hhints = (
{
position = -3;
width = 21;
},
{
position = 727;
width = 20;
}
);
vhints = (
{
position = 20;
width = 172;
},
{
position = 242;
width = 176;
}
);
};
};
width = 438;
}
);
unicode = 47;
},
{
glyphname = backslash;
layers = (
{
layerId = master01;
shapes = (
{
closed = 1;
nodes = (
(584,11,o),
(558,21,o),
(540,43,cs),
(508,83,ls),
(320,319,o),
(138,525,o),
(58,583,cs),
(32,601,o),
(20,629,o),
(20,655,cs),
(20,675,o),
(26,693,o),
(38,709,cs),
(54,733,o),
(82,747,o),
(110,747,cs),
(128,747,o),
(146,741,o),
(162,729,cs),
(258,661,o),
(390,519,o),
(650,197,cs),
(680,157,ls),
(694,139,o),
(700,119,o),
(700,99,cs),
(700,73,o),
(688,47,o),
(666,29,cs),
(650,17,o),
(630,11,o),
(610,11,cs)
);
}
);
userData = {
com.fontlab.hintData = {
hhints = (
{
position = 11;
width = 21;
},
{
position = 727;
width = 20;
}
);
};
};
width = 720;
}
);
unicode = 92;
},
{
glyphname = hyphen;
layers = (
{
layerId = master01;
shapes = (
{
closed = 1;
nodes = (
(239,515,o),
(336,537,o),
(426,547,c),
(434,547,ls),
(480,547,o),
(520,513,o),
(524,467,c),
(524,457,ls),
(524,411,o),
(490,373,o),
(446,367,cs),
(414,363,o),
(380,356,o),
(350,352,cs),
(286,342,o),
(218,335,o),
(146,335,cs),
(104,335,l),
(58,339,o),
(20,379,o),
(20,427,cs),
(20,431,l),
(22,479,o),
(62,515,o),
(108,515,cs),
(148,515,ls)
);
}
);
userData = {
com.fontlab.hintData = {
hhints = (
{
position = 335;
width = 180;
},
{
position = 367;
width = 180;
}
);
};
};
width = 544;
}
);
unicode = 45;
},
{
glyphname = uni00AD;
layers = (
{
layerId = master01;
shapes = (
{
closed = 1;
nodes = (
(239,515,o),
(336,537,o),
(426,547,c),
(434,547,ls),
(480,547,o),
(520,513,o),
(524,467,c),
(524,457,ls),
(524,411,o),
(490,373,o),
(446,367,cs),
(414,363,o),
(380,359,o),
(350,355,cs),
(286,345,o),
(218,335,o),
(146,335,cs),
(104,335,l),
(58,339,o),
(20,379,o),
(20,427,cs),
(20,431,l),
(22,479,o),
(62,515,o),
(108,515,cs),
(148,515,ls)
);
}
);
userData = {
com.fontlab.hintData = {
hhints = (
{
position = 335;
width = 180;
},
{
position = 367;
width = 180;
}
);
};
};
width = 544;
}
);
unicode = 173;
},
{
glyphname = underscore;
layers = (
{
layerId = master01;
shapes = (
{
closed = 1;
nodes = (
(472,62,o),
(516,27,o),
(516,-28,cs),
(516,-68,o),
(488,-104,o),
(448,-114,cs),
(428,-120,o),
(404,-122,o),
(378,-122,cs),
(282,-122,o),
(158,-96,o),
(86,-76,cs),
(46,-64,o),
(20,-30,o),
(20,10,cs),
(20,64,o),
(65,100,o),
(112,100,cs),
(118,100,o),
(126,100,o),
(134,98,cs),
(242,70,o),
(336,58,o),
(380,58,cs),
(403,58,o),
(407,62,o),
(426,62,cs)
);
}
);
userData = {
com.fontlab.hintData = {
hhints = (
{
position = -122;
width = 184;
},
{
position = -76;
width = 176;
}
);
};
};
width = 536;
}
);
unicode = 95;
},
{
glyphname = parenleft;
layers = (
{
layerId = master01;
shapes = (
{
closed = 1;
nodes = (
(314,-186,o),
(300,-182,o),
(284,-172,cs),
(214,-132,o),
(142,-84,o),
(90,-8,cs),
(44,60,o),
(20,144,o),
(20,246,cs),
(20,264,o),
(20,284,o),
(22,302,cs),
(22,304,o),
(22,306,o),
(22,308,cs),
(42,454,o),
(94,658,o),
(306,732,cs),
(316,736,o),
(326,736,o),
(336,736,cs),
(372,736,o),
(408,714,o),
(420,676,cs),
(424,666,o),
(424,656,o),
(424,646,cs),
(424,610,o),
(402,574,o),
(366,562,cs),
(274,530,o),
(224,446,o),
(202,286,c),
(202,272,o),
(200,258,o),
(200,246,cs),
(200,94,o),
(266,46,o),
(376,-18,cs),
(406,-36,o),
(422,-64,o),
(422,-96,cs),
(422,-110,o),
(416,-128,o),
(408,-142,cs),
(392,-170,o),
(362,-186,o),
(330,-186,cs)
);
}
);
userData = {
com.fontlab.hintData = {
hhints = (
{
position = 562;
width = 174;
}
);
vhints = (
{
position = 20;
width = 180;
}
);
};
};
width = 444;
}
);
unicode = 40;
},
{
glyphname = parenright;
layers = (
{
layerId = master01;
shapes = (
{
closed = 1;
nodes = (
(222,-203,o),
(202,-197,o),
(184,-183,cs),
(162,-165,o),
(152,-139,o),
(152,-113,cs),
(152,-93,o),
(158,-71,o),
(172,-55,cs),
(250,39,o),
(292,143,o),
(292,251,cs),
(292,269,o),
(290,289,o),
(288,307,cs),
(266,437,o),
(202,519,o),
(78,567,cs),
(42,581,o),
(20,615,o),
(20,651,cs),
(20,661,o),
(22,673,o),
(26,683,cs),
(40,719,o),
(74,741,o),
(110,741,cs),
(120,741,o),
(132,739,o),
(142,735,cs),
(326,663,o),
(436,527,o),
(466,333,cs),
(466,333,o),
(466,331,o),
(466,329,cs),
(470,301,o),
(472,273,o),
(472,247,cs),
(472,173,o),
(458,103,o),
(432,33,cs),
(406,-37,o),
(364,-107,o),
(312,-171,cs),
(294,-191,o),
(268,-203,o),
(242,-203,cs)
);
}
);
userData = {
com.fontlab.hintData = {
hhints = (
{
position = 567;
width = 174;
}
);
vhints = (
{
position = 292;
width = 180;
}
);
};
};
width = 492;
}
);
unicode = 41;
},
{
glyphname = braceleft;
layers = (
{
layerId = master01;
shapes = (
{
closed = 1;
nodes = (
(508,-26,o),
(550,-58,o),
(550,-114,cs),
(550,-150,o),
(528,-186,o),
(492,-200,cs),
(452,-214,o),
(390,-236,o),
(328,-236,cs),
(273,-236,o),
(203,-214,o),
(168,-162,cs),
(140,-118,o),
(134,-64,o),
(134,-22,cs),
(134,37,o),
(143,84,o),
(162,128,c),
(144,134,o),
(124,138,o),
(104,140,cs),
(56,142,o),
(20,179,o),
(20,230,cs),
(20,264,o),
(40,296,o),
(72,310,cs),
(120,332,o),
(158,362,o),
(180,382,c),
(158,396,o),
(132,414,o),
(108,438,cs),
(68,480,o),
(46,530,o),
(46,582,cs),
(46,626,o),
(62,688,o),
(136,744,cs),
(176,774,o),
(232,802,o),
(302,824,cs),
(312,828,o),
(322,828,o),
(330,828,cs),
(376,828,o),
(420,794,o),
(420,740,cs),
(420,702,o),
(396,666,o),
(360,654,cs),
(246,616,o),
(228,586,o),
(226,582,cs),
(228,564,o),
(268,538,o),
(290,524,cs),
(324,504,o),
(354,484,o),
(370,448,cs),
(370,446,o),
(372,444,o),
(372,440,cs),
(376,428,o),
(378,416,o),
(378,400,cs),
(378,362,o),
(362,314,o),
(308,258,c),
(332,242,o),
(348,222,o),
(356,200,cs),
(362,186,o),
(366,170,o),
(366,156,cs),
(366,134,o),
(358,112,o),
(344,92,cs),
(330,70,o),
(318,36,o),
(314,2,cs),
(313,-5,o),
(313,-12,o),
(313,-18,cs),
(313,-34,o),
(315,-47,o),
(318,-54,c),
(322,-54,o),
(326,-56,o),
(332,-56,cs),
(358,-56,o),
(396,-44,o),
(430,-30,cs),
(440,-26,o),
(450,-26,o),
(460,-26,cs)
);
}
);
userData = {
com.fontlab.hintData = {
hhints = (
{
position = -236;
width = 180;
},
{
position = 654;
width = 174;
}
);
vhints = (
{
position = 134;
width = 179;
}
);
};
};
width = 570;
}
);
unicode = 123;
},
{
glyphname = braceright;
layers = (
{
layerId = master01;
shapes = (
{
closed = 1;
nodes = (
(63,635,o),
(20,670,o),
(20,723,cs),
(20,765,o),
(48,803,o),
(90,813,cs),
(128,821,o),
(168,823,o),
(198,823,cs),
(216,823,o),
(232,821,o),
(244,821,cs),
(340,813,o),
(372,787,o),
(384,779,cs),
(408,759,o),
(424,729,o),
(424,697,cs),
(424,645,o),
(398,593,o),
(368,531,cs),
(356,503,o),
(342,475,o),
(330,443,c),
(358,437,o),
(386,429,o),
(416,415,cs),
(446,399,o),
(464,367,o),
(464,333,cs),
(464,323,o),
(462,311,o),
(458,301,cs),
(438,253,o),
(400,229,o),
(370,211,c),
(420,119,o),
(464,-7,o),
(464,-97,cs),
(464,-139,o),
(442,-177,o),
(404,-201,cs),
(384,-213,o),
(362,-221,o),
(332,-227,cs),
(292,-233,o),
(250,-235,o),
(222,-235,cs),
(220,-235,ls),
(170,-235,o),
(130,-193,o),
(130,-145,cs),
(130,-95,o),
(170,-55,o),
(220,-55,cs),
(244,-55,o),
(264,-53,o),
(278,-53,c),
(262,25,o),
(218,129,o),
(180,175,cs),
(168,191,o),
(160,211,o),
(160,231,cs),
(160,253,o),
(174,283,o),
(188,297,c),
(182,301,o),
(176,303,o),
(172,307,cs),
(144,323,o),
(128,353,o),
(128,383,cs),
(128,389,o),
(128,395,o),
(130,401,cs),
(144,479,o),
(178,551,o),
(206,609,cs),
(212,619,o),
(216,631,o),
(222,643,c),
(194,643,o),
(160,643,o),
(130,637,cs),
(122,635,o),
(116,635,o),
(108,635,cs)
);
}
);
userData = {
com.fontlab.hintData = {
hhints = (
{
position = -235;
width = 180;
},
{
position = 635;
width = 178;
},
{
position = 643;
width = 180;
}
);
vhints = (
{
position = 20;
width = 404;
},
{
position = 160;
width = 304;
}
);
};
};
width = 484;
}
);
unicode = 125;
},
{
glyphname = bracketleft;
layers = (
{
layerId = master01;
shapes = (
{
closed = 1;
nodes = (
(496,68,o),
(540,35,o),
(540,-20,cs),
(540,-60,o),
(514,-98,o),
(474,-110,cs),
(386,-134,o),
(288,-148,o),
(172,-152,c),
(168,-152,ls),
(117,-152,o),
(78,-110,o),
(78,-62,cs),
(76,166,o),
(70,424,o),
(22,602,cs),
(20,610,o),
(20,616,o),
(20,622,cs),
(20,672,o),
(59,714,o),
(106,714,cs),
(148,714,ls),
(234,714,o),
(294,720,o),
(346,738,cs),
(356,742,o),
(364,742,o),
(374,742,cs),
(420,742,o),
(464,707,o),
(464,652,cs),
(464,614,o),
(440,578,o),
(402,566,cs),
(342,546,o),
(280,538,o),
(222,536,c),
(246,382,o),
(254,204,o),
(256,34,c),
(320,40,o),
(376,50,o),
(428,64,cs),
(436,66,o),
(444,68,o),
(452,68,cs)
);
}
);
userData = {
com.fontlab.hintData = {
hhints = (
{
position = -110;
width = 178;
},
{
position = 536;
width = 178;
},
{
position = 722;
width = 20;
}
);
vhints = (
{
position = 78;
width = 178;
}
);
};
};
width = 560;
}
);
unicode = 91;
},
{
glyphname = bracketright;
layers = (
{
layerId = master01;
shapes = (
{
closed = 1;
nodes = (
(457,776,o),
(494,732,o),
(494,684,cs),
(494,650,o),
(492,618,o),
(492,586,cs),
(492,342,o),
(514,154,o),
(554,24,cs),
(558,14,o),
(558,4,o),
(558,-4,cs),
(558,-49,o),
(530,-78,o),
(494,-90,cs),
(402,-116,o),
(308,-132,o),
(214,-136,c),
(210,-136,ls),
(162,-136,o),
(122,-100,o),
(120,-50,c),
(120,-46,ls),
(120,0,o),
(158,40,o),
(206,42,cs),
(258,46,o),
(308,52,o),
(358,62,c),
(328,196,o),
(314,366,o),
(312,576,c),
(282,572,o),
(248,572,o),
(208,572,cs),
(178,572,o),
(142,572,o),
(106,574,cs),
(58,576,o),
(20,616,o),
(20,662,cs),
(20,666,l),
(22,714,o),
(62,752,o),
(110,752,cs),
(114,752,ls),
(142,752,o),
(168,750,o),
(190,750,cs),
(304,750,o),
(350,762,o),
(370,770,cs),
(380,774,o),
(392,776,o),
(404,776,cs)
);
}
);
userData = {
com.fontlab.hintData = {
hhints = (
{
position = -136;
width = 178;
},
{
position = 572;
width = 178;
}
);
vhints = (
{
position = 312;
width = 180;
}
);
};
};
width = 578;
}
);
unicode = 93;
},
{
glyphname = guillemotleft;
layers = (
{
layerId = master01;
shapes = (
{
closed = 1;
nodes = (
(504,-48,o),
(464,-92,o),
(414,-92,cs),
(386,-92,o),
(358,-78,o),
(340,-54,cs),
(268,46,o),
(164,118,o),
(62,180,cs),
(38,196,o),
(20,224,o),
(20,254,cs),
(20,284,o),
(34,312,o),
(58,330,cs),
(134,382,o),
(214,460,o),
(300,562,cs),
(318,584,o),
(344,594,o),
(370,594,cs),
(390,594,o),
(410,588,o),
(428,574,cs),
(448,556,o),
(460,530,o),
(460,506,cs),
(460,484,o),
(452,464,o),
(438,446,cs),
(378,376,o),
(320,314,o),
(264,264,c),
(344,206,o),
(422,140,o),
(486,52,cs),
(498,36,o),
(504,18,o),
(504,0,cs)
);
},
{
closed = 1;
nodes = (
(838,-70,o),
(812,-60,o),
(794,-38,cs),
(724,46,o),
(624,134,o),
(526,200,cs),
(502,216,o),
(486,244,o),
(486,274,cs),
(486,276,o),
(486,278,o),
(486,280,cs),
(488,312,o),
(508,340,o),
(536,354,cs),
(642,408,o),
(718,464,o),
(760,520,cs),
(776,544,o),
(804,556,o),
(832,556,cs),
(850,556,o),
(870,550,o),
(886,538,cs),
(908,520,o),
(920,492,o),
(920,466,cs),
(920,446,o),
(916,428,o),
(904,412,cs),
(864,360,o),
(810,312,o),
(740,264,c),
(812,206,o),
(880,140,o),
(932,78,cs),
(946,60,o),
(954,40,o),
(954,18,cs),
(954,-6,o),
(942,-32,o),
(922,-50,cs),
(904,-64,o),
(884,-70,o),
(864,-70,cs)
);
}
);
width = 974;
}
);
unicode = 171;
},
{
glyphname = guillemotright;
layers = (
{
layerId = master01;
shapes = (
{
closed = 1;
nodes = (
(154,-94,o),
(134,-90,o),
(118,-76,cs),
(94,-58,o),
(84,-32,o),
(84,-6,cs),
(84,14,o),
(90,34,o),
(102,50,cs),
(166,136,o),
(252,220,o),
(330,288,c),
(270,324,o),
(196,346,o),
(96,360,cs),
(52,366,o),
(20,406,o),
(20,450,cs),
(20,454,o),
(20,458,o),
(20,462,cs),
(28,506,o),
(68,538,o),
(112,538,cs),
(116,538,o),
(120,538,o),
(124,538,cs),
(252,518,o),
(404,482,o),
(536,360,cs),
(556,342,o),
(566,316,o),
(566,290,cs),
(566,264,o),
(554,240,o),
(532,224,cs),
(408,122,o),
(308,24,o),
(244,-60,cs),
(226,-82,o),
(200,-94,o),
(172,-94,cs)
);
},
{
closed = 1;
nodes = (
(530,546,o),
(572,588,o),
(620,588,cs),
(640,588,o),
(662,580,o),
(680,564,cs),
(733,518,o),
(861,464,o),
(938,420,cs),
(964,406,o),
(980,382,o),
(984,354,cs),
(984,350,o),
(984,346,o),
(984,342,cs),
(984,316,o),
(976,294,o),
(958,276,cs),
(852,176,o),
(784,88,o),
(748,6,cs),
(732,-26,o),
(700,-46,o),
(666,-46,cs),
(652,-46,o),
(640,-44,o),
(628,-40,cs),
(596,-26,o),
(574,8,o),
(574,44,cs),
(574,56,o),
(576,68,o),
(582,80,cs),
(622,170,o),
(684,250,o),
(744,316,c),
(676,352,o),
(608,388,o),
(560,428,cs),
(540,446,o),
(530,472,o),
(530,496,cs)
);
}
);
userData = {
com.fontlab.hintData = {
hhints = (
{
position = 360;
width = 178;
}
);
vhints = (
{
position = 574;
width = 174;
}
);
};
};
width = 1004;
}
);
unicode = 187;
},
{
glyphname = quotedbl;
layers = (
{
layerId = master01;
shapes = (
{
closed = 1;
nodes = (
(116,366,o),
(76,402,o),
(72,448,cs),
(70,484,o),
(66,525,o),
(36,633,cs),
(34,641,o),
(32,649,o),
(32,659,cs),
(32,697,o),
(58,733,o),
(96,745,cs),
(104,747,o),
(112,749,o),
(122,749,cs),
(160,749,o),
(196,723,o),
(208,683,cs),
(238,579,o),
(246,520,o),
(252,462,cs),
(252,460,o),
(252,458,o),
(252,456,cs),
(252,410,o),
(216,370,o),
(170,366,cs),
(166,366,o),
(164,366,o),
(162,366,cs)
);
},
{
closed = 1;
nodes = (
(340,396,o),
(304,422,o),
(294,464,cs),
(290,474,o),
(288,486,o),
(284,500,cs),
(274,546,o),
(266,587,o),
(252,619,cs),
(246,631,o),
(244,643,o),
(244,655,cs),
(244,691,o),
(264,723,o),
(298,737,cs),
(310,743,o),
(324,745,o),
(336,745,cs),
(370,745,o),
(402,727,o),
(416,693,cs),
(436,651,o),
(440,618,o),
(460,542,cs),
(462,530,o),
(466,518,o),
(468,508,cs),
(470,500,o),
(470,494,o),
(470,486,cs),
(470,446,o),
(442,408,o),
(402,398,cs),
(396,396,o),
(388,396,o),
(380,396,cs)
);
}
);
userData = {
com.fontlab.hintData = {
hhints = (
{
position = 729;
width = 20;
}
);
vhints = (
{
position = 72;
width = 180;
}
);
};
};
width = 490;
}
);
unicode = 34;
},
{
glyphname = quotesingle;
layers = (
{
layerId = master01;
shapes = (
{
closed = 1;
nodes = (
(154,362,o),
(124,378,o),
(108,408,cs),
(96,428,o),
(68,502,o),
(24,630,cs),
(20,640,o),
(20,648,o),
(20,658,cs),
(20,696,o),
(44,732,o),
(80,744,cs),
(90,748,o),
(100,748,o),
(110,748,cs),
(148,748,o),
(184,724,o),
(196,688,cs),
(222,608,o),
(256,512,o),
(266,494,cs),
(272,482,o),
(276,468,o),
(276,454,cs),
(276,422,o),
(260,390,o),
(230,374,cs),
(216,366,o),
(200,362,o),
(186,362,cs)
);
},
{
closed = 1;
nodes = (
(264,496,o),
(264,496,o),
(264,494,c),
(264,496,o),
(264,496,o),
(264,496,c)
);
}
);
userData = {
com.fontlab.hintData = {
hhints = (
{
position = 728;
width = 20;
}
);
vhints = (
{
position = 20;
width = 176;
}
);
};
};
width = 296;
}
);
unicode = 39;
},
{
glyphname = at;
layers = (
{
layerId = master01;
shapes = (
{
closed = 1;
nodes = (
(792,108,o),
(830,63,o),
(830,18,cs),
(830,4,o),
(826,-10,o),
(820,-22,cs),
(763,-129,o),
(637,-166,o),
(460,-166,cs),
(452,-166,o),
(446,-166,o),
(438,-164,cs),
(372,-164,o),
(310,-150,o),
(256,-120,cs),
(204,-94,o),
(158,-56,o),
(122,-8,cs),
(56,78,o),
(20,192,o),
(20,312,cs),
(20,322,l),
(22,436,o),
(68,540,o),
(152,618,cs),
(227,685,o),
(338,736,o),
(474,736,cs),
(490,736,ls),
(584,736,o),
(664,720,o),
(726,688,cs),
(824,640,o),
(858,570,o),
(866,520,cs),
(868,520,o),
(868,518,o),
(868,518,c),
(872,490,o),
(874,464,o),
(874,438,cs),
(874,358,o),
(852,288,o),
(810,240,cs),
(788,214,o),
(752,186,o),
(700,172,c),
(679,130,o),
(646,99,o),
(602,80,cs),
(552,56,o),
(500,50,o),
(464,50,cs),
(450,50,ls),
(340,50,o),
(266,132,o),
(266,254,cs),
(266,258,l),
(268,314,o),
(284,372,o),
(312,416,cs),
(350,478,o),
(408,514,o),
(472,514,cs),
(474,514,ls),
(520,514,o),
(560,500,o),
(588,472,cs),
(606,454,o),
(626,422,o),
(626,370,cs),
(626,360,o),
(624,352,o),
(620,342,c),
(624,342,o),
(628,344,o),
(632,344,cs),
(635,344,o),
(637,344,o),
(639,344,cs),
(663,344,o),
(670,353,o),
(674,358,cs),
(684,370,o),
(694,398,o),
(694,438,cs),
(694,452,o),
(692,468,o),
(690,486,cs),
(686,504,o),
(664,518,o),
(648,526,cs),
(610,546,o),
(552,556,o),
(488,556,cs),
(478,556,ls),
(330,556,o),
(200,464,o),
(200,320,cs),
(200,310,ls),
(200,154,o),
(288,16,o),
(440,16,cs),
(450,16,o),
(460,16,o),
(470,16,cs),
(614,16,o),
(650,44,o),
(660,60,cs),
(676,90,o),
(706,108,o),
(738,108,cs)
);
},
{
closed = 1;
nodes = (
(488,230,o),
(540,238,o),
(540,256,cs),
(540,266,o),
(542,274,o),
(544,282,c),
(534,282,ls),
(504,282,o),
(478,298,o),
(462,318,c),
(454,304,o),
(446,280,o),
(446,256,cs),
(446,242,o),
(448,234,o),
(450,230,c),
(464,230,ls)
);
}
);
userData = {
com.fontlab.hintData = {
hhints = (
{
position = -166;
width = 182;
},
{
position = 494;
width = 20;
},
{
position = 556;
width = 180;
}
);
vhints = (
{
position = 20;
width = 180;
},
{
position = 266;
width = 180;
},
{
position = 694;
width = 180;
}
);
};
};
width = 894;
}
);
unicode = 64;
},
{
glyphname = ampersand;
layers = (
{
layerId = master01;
shapes = (
{
closed = 1;
nodes = (
(552,63,o),
(500,45,o),
(456,33,c),
(464,19,o),
(468,1,o),
(468,-19,cs),
(468,-31,o),
(466,-45,o),
(466,-61,cs),
(466,-97,o),
(470,-139,o),
(476,-159,cs),
(480,-169,o),
(482,-179,o),
(482,-189,cs),
(482,-225,o),
(458,-261,o),
(422,-273,cs),
(412,-277,o),
(402,-279,o),
(392,-279,cs),
(354,-279,o),
(320,-255,o),
(306,-219,cs),
(290,-173,o),
(286,-109,o),
(286,-63,cs),
(286,-37,o),
(288,-15,o),
(288,-7,cs),
(288,1,o),
(290,7,o),
(292,15,c),
(262,17,o),
(236,23,o),
(212,35,cs),
(156,63,o),
(116,113,o),
(94,183,cs),
(94,185,o),
(92,189,o),
(92,191,cs),
(88,205,o),
(88,221,o),
(88,235,cs),
(88,277,o),
(100,319,o),
(126,355,cs),
(138,371,o),
(150,385,o),
(166,397,c),
(104,425,o),
(58,457,o),
(36,503,cs),
(24,525,o),
(20,547,o),
(20,569,cs),
(20,587,o),
(22,605,o),
(30,623,cs),
(34,631,o),
(38,637,o),
(42,643,cs),
(72,685,o),
(116,717,o),
(170,743,cs),
(204,759,o),
(238,769,o),
(274,771,c),
(282,819,o),
(282,871,o),
(282,871,cs),
(282,921,o),
(322,961,o),
(372,961,cs),
(422,961,o),
(462,919,o),
(462,871,cs),
(462,867,o),
(462,791,o),
(448,723,c),
(468,707,o),
(482,685,o),
(494,661,cs),
(500,649,o),
(502,635,o),
(502,623,cs),
(502,589,o),
(484,557,o),
(452,541,cs),
(440,535,o),
(428,533,o),
(414,533,cs),
(380,533,o),
(344,549,o),
(332,583,cs),
(330,589,o),
(318,591,o),
(310,593,cs),
(308,593,o),
(306,593,o),
(304,593,cs),
(278,593,o),
(248,583,o),
(224,569,c),
(236,563,o),
(252,555,o),
(276,547,cs),
(328,529,o),
(392,513,o),
(454,497,cs),
(460,495,ls),
(500,481,o),
(526,449,o),
(526,409,cs),
(526,407,o),
(526,403,o),
(526,401,cs),
(524,359,o),
(490,323,o),
(448,317,cs),
(318,301,o),
(282,263,o),
(274,251,cs),
(268,243,o),
(266,237,o),
(266,231,cs),
(266,203,o),
(286,201,o),
(290,199,cs),
(296,197,o),
(306,193,o),
(324,193,cs),
(334,193,o),
(346,195,o),
(362,197,cs),
(408,205,o),
(468,223,o),
(544,255,cs),
(554,259,o),
(566,261,o),
(576,261,cs),
(612,261,o),
(646,239,o),
(662,203,cs),
(666,193,o),
(668,181,o),
(668,169,cs),
(668,135,o),
(648,101,o),
(612,87,cs)
);
}
);
userData = {
com.fontlab.hintData = {
hhints = (
{
position = -279;
width = 472;
},
{
position = 87;
width = 174;
},
{
position = 941;
width = 20;
}
);
vhints = (
{
position = 88;
width = 178;
},
{
position = 286;
width = 180;
}
);
};
};
width = 688;
}
);
unicode = 38;
},
{
glyphname = paragraph;
layers = (
{
layerId = master01;
shapes = (
{
closed = 1;
nodes = (
(812,78,ls),
(812,30,o),
(774,-10,o),
(726,-12,c),
(722,-12,ls),
(674,-12,o),
(634,24,o),
(632,72,cs),
(622,288,o),
(594,432,o),
(552,570,c),
(530,570,o),
(508,570,o),
(486,570,c),
(528,410,o),
(552,252,o),
(552,74,cs),
(552,24,o),
(512,-16,o),
(462,-16,cs),
(412,-16,o),
(372,24,o),
(372,74,cs),
(372,134,o),
(368,160,o),
(364,218,c),
(356,218,o),
(348,218,o),
(340,218,cs),
(227,218,o),
(132,244,o),
(78,298,cs),
(40,334,o),
(20,380,o),
(20,432,cs),
(20,504,o),
(62,576,o),
(136,636,cs),
(200,686,o),
(280,722,o),
(360,736,c),
(362,736,l),
(436,746,o),
(480,750,o),
(528,750,cs),
(558,750,o),
(586,748,o),
(624,746,cs),
(660,742,o),
(690,720,o),
(702,686,cs),
(762,522,o),
(798,348,o),
(812,82,c)
);
},
{
closed = 1;
nodes = (
(204,422,o),
(242,400,o),
(340,398,c),
(330,448,o),
(320,492,o),
(310,532,c),
(288,522,o),
(266,508,o),
(250,494,cs),
(212,466,o),
(200,440,o),
(200,432,cs),
(200,430,l)
);
}
);
userData = {
com.fontlab.hintData = {
hhints = (
{
position = -12;
width = 21;
},
{
position = 218;
width = 180;
},
{
position = 570;
width = 180;
}
);
vhints = (
{
position = 372;
width = 180;
},
{
position = 632;
width = 180;
}
);
};
};
width = 832;
}
);
unicode = 182;
},
{
glyphname = section;
layers = (
{
layerId = master01;
shapes = (
{
closed = 1;
nodes = (
(724,72,o),
(740,38,o),
(740,0,cs),
(740,-133,o),
(628,-205,o),
(504,-226,cs),
(472,-232,o),
(436,-234,o),
(400,-234,cs),
(376,-234,o),
(352,-232,o),
(330,-230,cs),
(284,-224,o),
(250,-186,o),
(250,-142,cs),
(250,-132,l),
(256,-86,o),
(294,-52,o),
(340,-52,cs),
(350,-52,l),
(366,-54,o),
(384,-54,o),
(400,-54,cs),
(462,-54,o),
(520,-42,o),
(548,-22,c),
(544,-20,o),
(538,-18,o),
(532,-16,cs),
(506,-8,o),
(474,-2,o),
(442,6,cs),
(384,20,o),
(324,34,o),
(274,54,cs),
(172,100,o),
(150,166,o),
(150,214,cs),
(150,280,o),
(176,350,o),
(222,410,c),
(196,414,o),
(170,420,o),
(148,426,cs),
(36,460,o),
(20,532,o),
(20,572,cs),
(20,644,o),
(54,712,o),
(114,764,cs),
(164,808,o),
(232,838,o),
(308,852,cs),
(314,852,o),
(318,854,o),
(324,854,cs),
(368,854,o),
(404,822,o),
(412,778,cs),
(412,774,o),
(414,768,o),
(414,764,cs),
(414,720,o),
(382,682,o),
(338,674,cs),
(274,664,o),
(222,632,o),
(206,596,c),
(212,596,o),
(220,594,o),
(230,592,cs),
(260,586,o),
(294,582,o),
(330,578,cs),
(390,570,o),
(454,562,o),
(506,546,cs),
(624,508,o),
(640,430,o),
(640,388,cs),
(640,326,o),
(624,260,o),
(596,202,cs),
(588,188,o),
(580,174,o),
(572,160,c),
(590,154,o),
(610,148,o),
(626,142,cs),
(656,130,o),
(678,116,o),
(696,100,cs)
);
},
{
closed = 1;
nodes = (
(398,348,o),
(340,284,o),
(332,228,c),
(338,224,o),
(350,218,o),
(372,210,c),
(424,242,o),
(454,310,o),
(460,368,c),
(454,364,o),
(448,362,o),
(442,360,cs)
);
}
);
userData = {
com.fontlab.hintData = {
hhints = (
{
position = -234;
width = 180;
}
);
};
};
width = 760;
}
);
unicode = 167;
},
{
glyphname = copyright;
layers = (
{
layerId = master01;
shapes = (
{
closed = 1;
nodes = (
(396,-219,o),
(268,-173,o),
(174,-89,cs),
(74,-3,o),
(20,121,o),
(20,259,cs),
(20,339,o),
(36,423,o),
(68,499,cs),
(121,637,o),
(219,745,o),
(348,807,c),
(354,849,o),
(392,881,o),
(436,881,cs),
(496,881,o),
(554,873,o),
(610,859,cs),
(632,857,o),
(658,855,o),
(682,853,cs),
(716,849,o),
(742,827,o),
(754,797,c),
(800,771,o),
(840,741,o),
(878,703,cs),
(990,591,o),
(1052,439,o),
(1052,275,cs),
(1052,143,o),
(998,17,o),
(904,-75,cs),
(806,-167,o),
(676,-219,o),
(536,-219,cs)
);
},
{
closed = 1;
nodes = (
(486,677,o),
(404,647,o),
(340,589,cs),
(236,497,o),
(200,357,o),
(200,259,cs),
(200,83,o),
(338,-39,o),
(536,-39,cs),
(724,-39,o),
(872,99,o),
(872,275,cs),
(872,467,o),
(754,623,o),
(582,679,c)
);
},
{
closed = 1;
nodes = (
(712,259,o),
(750,211,o),
(750,167,cs),
(750,151,o),
(744,135,o),
(736,121,cs),
(700,63,o),
(642,-5,o),
(504,-5,cs),
(416,-5,o),
(352,17,o),
(304,63,cs),
(258,109,o),
(236,177,o),
(236,261,cs),
(236,371,o),
(274,463,o),
(348,525,cs),
(402,571,o),
(470,595,o),
(544,595,cs),
(566,595,o),
(586,593,o),
(608,589,cs),
(652,581,o),
(684,545,o),
(684,501,cs),
(684,495,o),
(682,491,o),
(682,485,cs),
(674,443,o),
(636,411,o),
(594,411,cs),
(590,411,o),
(584,411,o),
(578,413,cs),
(568,415,o),
(558,415,o),
(548,415,cs),
(459,415,o),
(416,351,o),
(416,261,cs),
(416,188,o),
(430,175,o),
(504,175,cs),
(558,175,o),
(568,189,o),
(582,215,cs),
(600,243,o),
(630,259,o),
(660,259,cs)
);
}
);
userData = {
com.fontlab.hintData = {
hhints = (
{
position = -219;
width = 180;
},
{
position = -5;
width = 180;
},
{
position = 415;
width = 180;
},
{
position = 679;
width = 202;
}
);
vhints = (
{
position = 20;
width = 180;
},
{
position = 236;
width = 180;
},
{
position = 872;
width = 180;
}
);
};
};
width = 1072;
}
);
unicode = 169;
},
{
glyphname = registered;
layers = (
{
layerId = master01;
shapes = (
{
closed = 1;
nodes = (
(1098,646,o),
(1172,502,o),
(1172,328,cs),
(1172,196,o),
(1106,58,o),
(990,-46,cs),
(876,-148,o),
(728,-206,o),
(584,-206,cs),
(466,-206,o),
(330,-150,o),
(216,-56,cs),
(116,27,o),
(20,155,o),
(20,316,cs),
(20,502,o),
(80,646,o),
(198,746,cs),
(263,802,o),
(345,841,o),
(440,868,c),
(454,878,o),
(471,884,o),
(490,884,cs),
(493,884,o),
(495,884,o),
(498,884,c),
(506,884,l),
(552,894,o),
(600,900,o),
(650,904,c),
(654,904,ls),
(694,904,o),
(730,878,o),
(742,842,c),
(824,818,o),
(896,786,o),
(956,744,cs)
);
},
{
closed = 1;
nodes = (
(274,569,o),
(312,612,o),
(362,612,cs),
(372,612,o),
(383,610,o),
(394,606,cs),
(400,608,o),
(404,610,o),
(410,610,cs),
(448,616,o),
(486,618,o),
(520,618,cs),
(616,618,o),
(698,596,o),
(746,554,cs),
(780,524,o),
(800,486,o),
(800,442,cs),
(800,406,o),
(786,368,o),
(760,334,cs),
(742,312,o),
(720,292,o),
(694,272,c),
(728,252,o),
(756,232,o),
(776,212,cs),
(792,194,o),
(800,172,o),
(800,150,cs),
(800,126,o),
(790,102,o),
(772,84,cs),
(754,68,o),
(732,60,o),
(710,60,cs),
(686,60,o),
(662,70,o),
(644,88,cs),
(630,102,o),
(566,140,o),
(476,164,c),
(474,148,o),
(472,132,o),
(470,116,cs),
(462,76,o),
(430,44,o),
(390,40,c),
(456,0,o),
(526,-26,o),
(584,-26,cs),
(684,-26,o),
(788,16,o),
(870,88,cs),
(948,158,o),
(992,246,o),
(992,328,cs),
(992,576,o),
(768,680,o),
(518,702,c),
(320,656,o),
(200,548,o),
(200,316,cs),
(200,252,o),
(232,184,o),
(290,122,c),
(290,128,o),
(290,136,o),
(292,144,cs),
(298,190,o),
(302,236,o),
(302,278,cs),
(302,368,o),
(288,446,o),
(276,502,cs),
(274,510,o),
(274,516,o),
(274,524,cs)
);
},
{
closed = 1;
nodes = (
(474,410,o),
(478,382,o),
(480,352,c),
(520,375,o),
(572,400,o),
(602,430,c),
(582,434,o),
(550,440,o),
(510,440,cs),
(498,440,o),
(484,438,o),
(470,438,c)
);
}
);
userData = {
com.fontlab.hintData = {
hhints = (
{
position = -206;
width = 180;
},
{
position = 440;
width = 178;
}
);
vhints = (
{
position = 20;
width = 180;
},
{
position = 992;
width = 180;
}
);
};
};
width = 1192;
}
);
unicode = 174;
},
{
glyphname = degree;
layers = (
{
anchors = (
{
name = _top;
pos = (306,394);
}
);
layerId = master01;
shapes = (
{
closed = 1;
nodes = (
(604,531,o),
(488,420,o),
(308,402,c),
(284,402,ls),
(218,402,o),
(136,412,o),
(78,466,cs),
(40,504,o),
(20,556,o),
(20,622,cs),
(20,710,o),
(86,802,o),
(188,868,c),
(188,876,ls),
(188,924,o),
(228,966,o),
(278,966,cs),
(450,966,o),
(604,882,o),
(604,726,cs)
);
},
{
closed = 1;
nodes = (
(332,746,o),
(280,718,o),
(242,684,cs),
(208,650,o),
(200,626,o),
(200,622,cs),
(200,606,o),
(202,598,o),
(204,596,cs),
(204,596,o),
(218,582,o),
(282,582,cs),
(286,582,o),
(290,582,o),
(294,582,cs),
(386,592,o),
(424,634,o),
(424,726,cs),
(424,742,o),
(412,754,o),
(392,764,c)
);
}
);
userData = {
com.fontlab.hintData = {
hhints = (
{
position = 402;
width = 180;
},
{
position = 946;
width = 20;
}
);
vhints = (
{
position = 20;
width = 180;
},
{
position = 424;
width = 180;
}
);
};
};
width = 624;
}
);
unicode = (176,778);
},
{
glyphname = bar;
layers = (
{
layerId = master01;
shapes = (
{
closed = 1;
nodes = (
(106,-230,o),
(66,-194,o),
(62,-148,cs),
(42,54,o),
(26,674,o),
(20,862,c),
(20,866,ls),
(20,914,o),
(60,954,o),
(108,954,cs),
(112,954,ls),
(158,954,o),
(198,916,o),
(200,868,cs),
(206,684,o),
(222,66,o),
(240,-132,c),
(240,-142,ls),
(240,-186,o),
(206,-224,o),
(160,-230,c),
(150,-230,ls)
);
}
);
userData = {
com.fontlab.hintData = {
hhints = (
{
position = 934;
width = 20;
}
);
vhints = (
{
position = 20;
width = 180;
},
{
position = 62;
width = 178;
}
);
};
};
width = 260;
}
);
unicode = 124;
},
{
glyphname = brokenbar;
layers = (
{
layerId = master01;
shapes = (
{
closed = 1;
nodes = (
(20,833,o),
(57,877,o),
(110,877,cs),
(140,877,o),
(170,863,o),
(186,835,cs),
(226,771,o),
(260,575,o),
(290,455,cs),
(292,447,o),
(292,441,o),
(292,433,cs),
(292,393,o),
(264,357,o),
(224,347,cs),
(216,345,o),
(208,343,o),
(202,343,cs),
(162,343,o),
(124,371,o),
(114,413,cs),
(90,511,o),
(64,693,o),
(34,739,cs),
(24,753,o),
(20,771,o),
(20,787,cs)
);
},
{
closed = 1;
nodes = (
(158,276,o),
(193,319,o),
(248,319,cs),
(286,319,o),
(320,297,o),
(332,259,cs),
(360,183,o),
(382,17,o),
(390,-107,c),
(390,-115,ls),
(390,-161,o),
(354,-199,o),
(306,-203,cs),
(304,-203,o),
(302,-203,o),
(300,-203,cs),
(254,-203,o),
(214,-167,o),
(212,-119,cs),
(204,-11,o),
(184,139,o),
(162,201,cs),
(158,211,o),
(158,219,o),
(158,229,cs)
);
}
);
userData = {
com.fontlab.hintData = {
vhints = (
{
position = 158;
width = 174;
},
{
position = 212;
width = 178;
}
);
};
};
width = 410;
}
);
unicode = 166;
},
{
glyphname = cent;
layers = (
{
layerId = master01;
shapes = (
{
closed = 1;
nodes = (
(525,228,o),
(572,190,o),
(572,138,cs),
(572,102,o),
(550,68,o),
(516,54,cs),
(486,42,o),
(458,32,o),
(428,24,c),
(420,-74,ls),
(416,-122,o),
(376,-156,o),
(330,-156,cs),
(322,-156,l),
(274,-152,o),
(240,-112,o),
(240,-66,cs),
(240,-58,l),
(246,8,l),
(202,14,o),
(164,28,o),
(130,52,cs),
(126,54,o),
(124,56,o),
(120,60,cs),
(74,102,o),
(40,162,o),
(26,224,cs),
(22,244,o),
(20,264,o),
(20,284,cs),
(20,326,o),
(28,364,o),
(46,396,cs),
(48,398,o),
(50,402,o),
(50,404,cs),
(84,452,o),
(128,480,o),
(178,498,c),
(160,542,o),
(150,590,o),
(140,642,cs),
(140,648,o),
(138,652,o),
(138,658,cs),
(138,705,o),
(177,748,o),
(230,748,cs),
(272,748,o),
(310,716,o),
(318,674,cs),
(338,564,o),
(352,538,o),
(386,520,cs),
(388,520,o),
(388,518,o),
(390,518,cs),
(434,512,o),
(468,474,o),
(468,428,cs),
(468,424,l),
(466,378,o),
(426,338,o),
(380,338,cs),
(338,338,ls),
(266,338,o),
(220,328,o),
(202,306,cs),
(200,302,o),
(200,294,o),
(200,286,cs),
(200,262,o),
(208,226,o),
(236,198,c),
(250,190,o),
(270,186,o),
(298,186,cs),
(336,186,o),
(386,196,o),
(446,220,cs),
(458,226,o),
(470,228,o),
(482,228,cs)
);
}
);
userData = {
com.fontlab.hintData = {
hhints = (
{
position = -156;
width = 342;
},
{
position = 54;
width = 174;
},
{
position = 728;
width = 20;
}
);
vhints = (
{
position = 20;
width = 180;
},
{
position = 138;
width = 180;
},
{
position = 240;
width = 180;
}
);
};
};
width = 592;
}
);
unicode = 162;
},
{
glyphname = currency;
layers = (
{
layerId = master01;
shapes = (
{
closed = 1;
nodes = (
(724,711,o),
(770,676,o),
(770,621,cs),
(770,585,o),
(748,551,o),
(712,537,cs),
(700,533,o),
(680,511,o),
(660,491,cs),
(654,487,o),
(650,481,o),
(644,477,c),
(672,437,o),
(686,393,o),
(686,345,cs),
(686,295,o),
(672,251,o),
(644,215,c),
(700,103,ls),
(706,91,o),
(710,77,o),
(710,63,cs),
(710,20,o),
(671,-27,o),
(618,-27,cs),
(586,-27,o),
(554,-9,o),
(538,23,cs),
(490,119,l),
(456,111,o),
(416,107,o),
(370,107,cs),
(368,107,o),
(366,107,o),
(364,107,cs),
(326,109,o),
(292,119,o),
(260,133,c),
(178,39,ls),
(160,19,o),
(134,9,o),
(110,9,cs),
(62,9,o),
(20,53,o),
(20,99,cs),
(20,121,o),
(28,143,o),
(42,159,cs),
(138,265,l),
(126,295,o),
(120,329,o),
(120,363,cs),
(120,413,o),
(134,457,o),
(158,495,c),
(144,527,o),
(114,569,o),
(80,601,cs),
(62,619,o),
(52,643,o),
(52,665,cs),
(52,714,o),
(94,757,o),
(142,757,cs),
(164,757,o),
(186,749,o),
(204,731,cs),
(246,691,o),
(282,645,o),
(308,599,c),
(323,605,o),
(343,611,o),
(364,611,cs),
(380,611,o),
(394,607,o),
(406,599,c),
(438,599,o),
(470,595,o),
(498,585,c),
(510,595,o),
(520,605,o),
(530,615,cs),
(566,653,o),
(598,687,o),
(648,705,cs),
(658,709,o),
(670,711,o),
(680,711,cs)
);
},
{
closed = 1;
nodes = (
(506,389,o),
(450,421,o),
(402,421,cs),
(386,421,o),
(372,419,o),
(356,413,cs),
(344,409,o),
(332,407,o),
(322,407,c),
(300,393,o),
(300,375,o),
(300,363,cs),
(300,347,o),
(300,293,o),
(374,287,c),
(442,287,o),
(474,301,o),
(488,309,cs),
(498,317,o),
(506,325,o),
(506,345,cs)
);
}
);
userData = {
com.fontlab.hintData = {
hhints = (
{
position = 9;
width = 21;
},
{
position = 107;
width = 180;
},
{
position = 421;
width = 190;
},
{
position = 421;
width = 178;
},
{
position = 737;
width = 20;
}
);
vhints = (
{
position = 120;
width = 180;
},
{
position = 506;
width = 180;
}
);
};
};
width = 790;
}
);
unicode = 164;
},
{
glyphname = dollar;
layers = (
{
layerId = master01;
shapes = (
{
closed = 1;
nodes = (
(658,71,o),
(608,41,o),
(540,21,c),
(544,21,l),
(544,17,o),
(546,7,o),
(546,-9,cs),
(546,-39,o),
(542,-93,o),
(518,-149,cs),
(504,-183,o),
(470,-205,o),
(434,-205,cs),
(422,-205,o),
(412,-201,o),
(400,-197,cs),
(366,-183,o),
(344,-149,o),
(344,-115,cs),
(344,-103,o),
(346,-91,o),
(352,-79,cs),
(362,-55,o),
(364,-33,o),
(364,-23,cs),
(364,-19,o),
(364,-11,o),
(364,-7,c),
(362,-7,o),
(360,-7,o),
(358,-7,cs),
(334,-7,o),
(310,-7,o),
(290,-7,cs),
(210,-7,o),
(156,-3,o),
(146,-1,cs),
(100,5,o),
(66,43,o),
(66,89,cs),
(66,91,o),
(66,95,o),
(66,97,cs),
(72,143,o),
(110,177,o),
(154,177,cs),
(156,177,o),
(160,177,o),
(164,177,cs),
(166,177,o),
(224,171,o),
(296,171,cs),
(316,171,o),
(334,173,o),
(354,173,cs),
(500,181,o),
(536,211,o),
(542,217,cs),
(542,221,o),
(542,225,o),
(538,233,cs),
(506,313,o),
(400,329,o),
(266,341,cs),
(216,347,o),
(170,351,o),
(132,363,cs),
(30,395,o),
(20,467,o),
(20,499,cs),
(20,535,o),
(32,587,o),
(88,641,cs),
(116,667,o),
(152,693,o),
(198,715,cs),
(214,723,o),
(232,731,o),
(248,737,c),
(244,743,o),
(240,747,o),
(236,753,cs),
(187,824,ls),
(181,836,o),
(177,850,o),
(177,864,cs),
(177,896,o),
(195,928,o),
(227,944,cs),
(241,950,o),
(255,954,o),
(269,954,cs),
(301,954,o),
(333,936,o),
(349,904,cs),
(401,798,ls),
(407,786,o),
(411,809,o),
(411,795,cs),
(411,785,o),
(406,775,o),
(402,765,c),
(426,753,o),
(444,733,o),
(452,707,cs),
(454,699,o),
(454,691,o),
(454,685,cs),
(454,645,o),
(428,607,o),
(388,595,cs),
(388,595,o),
(338,583,o),
(286,557,cs),
(262,547,o),
(244,535,o),
(232,527,c),
(250,525,o),
(268,523,o),
(284,521,cs),
(350,515,o),
(432,507,o),
(506,481,cs),
(604,445,o),
(670,385,o),
(704,301,cs),
(718,269,o),
(722,241,o),
(722,217,cs),
(722,167,o),
(702,131,o),
(688,111,cs)
);
}
);
userData = {
com.fontlab.hintData = {
hhints = (
{
position = -7;
width = 184;
},
{
position = 934;
width = 20;
}
);
vhints = (
{
position = 364;
width = 182;
},
{
position = 542;
width = 180;
}
);
};
};
width = 742;
}
);
unicode = 36;
},
{
glyphname = sterling;
layers = (
{
layerId = master01;
shapes = (
{
closed = 1;
nodes = (
(423,236,o),
(424,242,o),
(394,242,cs),
(380,242,o),
(360,242,o),
(332,238,c),
(336,214,o),
(336,192,o),
(336,170,cs),
(336,150,o),
(336,134,o),
(334,116,c),
(366,120,o),
(400,122,o),
(432,122,cs),
(494,122,o),
(558,116,o),
(624,104,cs),
(670,98,o),
(702,60,o),
(702,16,cs),
(702,12,o),
(700,6,o),
(700,2,cs),
(692,-42,o),
(654,-74,o),
(610,-74,cs),
(606,-74,o),
(602,-74,o),
(596,-72,cs),
(540,-64,o),
(486,-60,o),
(436,-60,cs),
(356,-60,o),
(284,-70,o),
(220,-92,cs),
(210,-94,o),
(200,-96,o),
(192,-96,cs),
(145,-96,o),
(102,-57,o),
(102,-6,cs),
(102,14,o),
(108,36,o),
(122,52,cs),
(146,82,o),
(156,122,o),
(156,166,cs),
(156,180,o),
(156,194,o),
(154,208,c),
(150,206,o),
(146,206,o),
(146,206,cs),
(138,204,o),
(132,202,o),
(126,202,cs),
(80,202,o),
(36,237,o),
(36,292,cs),
(36,330,o),
(60,366,o),
(98,378,c),
(82,406,o),
(64,430,o),
(46,448,cs),
(30,466,o),
(20,488,o),
(20,512,cs),
(20,520,o),
(22,530,o),
(24,538,cs),
(54,640,o),
(126,714,o),
(218,740,cs),
(240,746,o),
(260,748,o),
(282,748,cs),
(338,748,o),
(390,728,o),
(428,694,cs),
(446,676,o),
(456,652,o),
(456,628,cs),
(456,606,o),
(448,584,o),
(432,566,cs),
(414,548,o),
(390,538,o),
(366,538,cs),
(346,538,o),
(324,546,o),
(306,562,cs),
(303,565,o),
(295,569,o),
(283,569,cs),
(278,569,o),
(272,568,o),
(266,566,cs),
(252,562,o),
(232,552,o),
(216,528,c),
(240,494,o),
(262,454,o),
(282,412,c),
(332,420,o),
(368,422,o),
(396,422,cs),
(438,422,o),
(460,416,o),
(478,412,cs),
(514,400,o),
(538,364,o),
(538,326,cs),
(538,269,o),
(494,236,o),
(446,236,cs)
);
}
);
userData = {
com.fontlab.hintData = {
hhints = (
{
position = -74;
width = 178;
},
{
position = -60;
width = 182;
},
{
position = 236;
width = 186;
},
{
position = 236;
width = 176;
},
{
position = 569;
width = 179;
}
);
vhints = (
{
position = 156;
width = 180;
}
);
};
};
width = 722;
}
);
unicode = 163;
},
{
glyphname = yen;
layers = (
{
layerId = master01;
shapes = (
{
closed = 1;
nodes = (
(517,414,o),
(542,389,o),
(542,347,cs),
(542,313,o),
(524,281,o),
(490,265,cs),
(482,261,o),
(474,259,o),
(464,255,c),
(522,251,o),
(552,207,o),
(552,163,cs),
(552,123,o),
(524,81,o),
(470,75,cs),
(448,73,o),
(426,71,o),
(402,69,c),
(400,45,o),
(400,19,o),
(394,-5,cs),
(382,-53,o),
(342,-75,o),
(302,-75,cs),
(258,-75,o),
(214,-47,o),
(214,5,cs),
(214,9,ls),
(214,13,o),
(216,23,o),
(216,27,cs),
(218,39,o),
(220,53,o),
(220,65,c),
(194,67,o),
(168,71,o),
(144,77,cs),
(104,87,o),
(76,123,o),
(76,163,cs),
(76,201,o),
(92,225,o),
(118,241,c),
(96,257,o),
(84,285,o),
(84,311,cs),
(84,366,o),
(130,403,o),
(174,403,cs),
(184,403,o),
(192,401,o),
(200,399,c),
(170,415,o),
(140,437,o),
(116,463,cs),
(60,525,o),
(26,607,o),
(20,695,c),
(20,699,ls),
(20,761,o),
(64,791,o),
(110,791,cs),
(152,791,o),
(196,763,o),
(200,707,cs),
(206,635,o),
(247,549,o),
(324,549,cs),
(361,549,o),
(412,584,o),
(412,630,cs),
(412,636,o),
(412,641,o),
(410,647,cs),
(408,653,o),
(408,659,o),
(408,665,cs),
(408,712,o),
(445,755,o),
(498,755,cs),
(540,755,o),
(578,725,o),
(588,683,cs),
(592,667,o),
(592,649,o),
(592,633,cs),
(592,552,o),
(550,469,o),
(490,429,c)
);
}
);
userData = {
com.fontlab.hintData = {
hhints = (
{
position = 735;
width = 20;
}
);
vhints = (
{
position = 20;
width = 180;
},
{
position = 76;
width = 476;
},
{
position = 412;
width = 180;
}
);
};
};
width = 612;
}
);
unicode = 165;
},
{
glyphname = plus;
layers = (
{
layerId = master01;
shapes = (
{
closed = 1;
nodes = (
(712,421,o),
(672,381,o),
(622,381,cs),
(622,381,o),
(622,381,o),
(620,381,cs),
(618,381,ls),
(586,381,o),
(510,371,o),
(426,355,c),
(432,193,ls),
(432,143,o),
(394,101,o),
(344,101,cs),
(344,99,o),
(342,99,o),
(342,99,cs),
(292,99,o),
(252,139,o),
(252,187,cs),
(246,317,l),
(204,309,o),
(164,299,o),
(130,291,cs),
(124,289,o),
(116,289,o),
(110,289,cs),
(70,289,o),
(32,317,o),
(22,359,cs),
(20,365,o),
(20,371,o),
(20,377,cs),
(20,419,o),
(48,457,o),
(90,467,cs),
(106,471,o),
(166,485,o),
(240,501,c),
(236,651,ls),
(236,653,o),
(236,653,o),
(236,655,cs),
(236,701,o),
(276,741,o),
(322,743,cs),
(324,743,o),
(324,743,o),
(326,743,cs),
(374,743,o),
(414,703,o),
(416,657,cs),
(420,535,l),
(500,551,o),
(576,561,o),
(620,561,cs),
(622,561,o),
(622,561,o),
(624,561,cs),
(672,561,o),
(712,521,o),
(712,471,cs)
);
}
);
userData = {
com.fontlab.hintData = {
hhints = (
{
position = 289;
width = 178;
},
{
position = 381;
width = 180;
},
{
position = 723;
width = 20;
}
);
vhints = (
{
position = 236;
width = 180;
},
{
position = 252;
width = 180;
}
);
};
};
width = 732;
}
);
unicode = 43;
},
{
glyphname = multiply;
layers = (
{
layerId = master01;
shapes = (
{
closed = 1;
nodes = (
(610,170,o),
(569,125,o),
(520,125,cs),
(494,125,o),
(470,135,o),
(452,155,cs),
(410,203,o),
(368,247,o),
(324,289,c),
(310,263,o),
(296,237,o),
(282,209,cs),
(268,175,o),
(236,157,o),
(202,157,cs),
(146,157,o),
(112,201,o),
(112,247,cs),
(112,259,o),
(114,273,o),
(120,285,cs),
(142,331,o),
(164,373,o),
(188,411,c),
(146,445,o),
(102,479,o),
(58,511,cs),
(34,529,o),
(20,557,o),
(20,585,cs),
(20,634,o),
(64,675,o),
(110,675,cs),
(128,675,o),
(146,669,o),
(162,657,cs),
(208,625,o),
(250,593,o),
(290,559,c),
(318,595,o),
(346,629,o),
(374,663,c),
(391,688,o),
(419,701,o),
(448,701,cs),
(498,701,o),
(538,657,o),
(538,611,cs),
(538,591,o),
(532,571,o),
(518,553,c),
(512,549,l),
(482,511,o),
(454,477,o),
(426,441,c),
(482,389,o),
(534,333,o),
(586,275,cs),
(602,257,o),
(610,237,o),
(610,215,cs)
);
}
);
userData = {
com.fontlab.hintData = {
vhints = (
{
position = 112;
width = 170;
}
);
};
};
width = 630;
}
);
unicode = 215;
},
{
glyphname = divide;
layers = (
{
layerId = master01;
shapes = (
{
closed = 1;
nodes = (
(66,268,o),
(20,305,o),
(20,360,cs),
(20,398,o),
(46,434,o),
(84,446,cs),
(208,482,o),
(310,502,o),
(404,512,cs),
(446,516,o),
(486,518,o),
(526,518,cs),
(586,518,o),
(648,514,o),
(708,504,cs),
(752,496,o),
(784,458,o),
(784,414,cs),
(784,410,o),
(782,404,o),
(782,400,cs),
(774,356,o),
(736,326,o),
(694,326,cs),
(678,326,l),
(626,334,o),
(576,340,o),
(524,340,cs),
(412,340,o),
(292,318,o),
(136,272,cs),
(126,270,o),
(118,268,o),
(110,268,cs)
);
},
{
closed = 1;
nodes = (
(520,594,o),
(476,554,o),
(430,554,cs),
(410,554,o),
(390,560,o),
(374,572,cs),
(364,582,o),
(354,590,o),
(348,598,c),
(314,609,o),
(288,641,o),
(288,684,cs),
(288,732,o),
(326,774,o),
(382,774,cs),
(430,774,o),
(464,746,o),
(480,720,cs),
(482,718,o),
(484,716,o),
(486,714,cs),
(508,696,o),
(520,670,o),
(520,644,cs)
);
},
{
closed = 1;
nodes = (
(486,714,l)
);
},
{
closed = 1;
nodes = (
(404,88,o),
(378,98,o),
(362,120,cs),
(340,144,o),
(332,166,o),
(328,186,c),
(316,200,o),
(312,220,o),
(312,238,cs),
(312,256,o),
(316,276,o),
(328,292,cs),
(346,316,o),
(374,328,o),
(402,328,cs),
(420,328,o),
(438,324,o),
(454,312,cs),
(496,282,o),
(504,246,o),
(506,226,c),
(516,212,o),
(520,194,o),
(520,178,cs),
(520,152,o),
(508,126,o),
(488,108,cs),
(470,94,o),
(450,88,o),
(430,88,cs)
);
},
{
closed = 1;
nodes = (
(348,166,l)
);
}
);
userData = {
com.fontlab.hintData = {
hhints = (
{
position = 268;
width = 178;
},
{
position = 326;
width = 178;
},
{
position = 340;
width = 178;
},
{
position = 554;
width = 220;
}
);
vhints = (
{
position = 288;
width = 232;
}
);
};
};
width = 804;
}
);
unicode = 247;
},
{
glyphname = equal;
layers = (
{
layerId = master01;
shapes = (
{
closed = 1;
nodes = (
(486,620,o),
(532,584,o),
(532,530,cs),
(532,490,o),
(508,456,o),
(468,444,cs),
(440,436,o),
(394,436,o),
(282,434,cs),
(228,434,o),
(146,434,o),
(126,430,cs),
(120,428,o),
(116,428,o),
(110,428,cs),
(63,428,o),
(20,465,o),
(20,520,cs),
(20,562,o),
(50,598,o),
(94,606,cs),
(128,614,o),
(186,614,o),
(280,614,cs),
(328,614,o),
(402,616,o),
(420,618,cs),
(428,620,o),
(434,620,o),
(442,620,cs)
);
},
{
closed = 1;
nodes = (
(416,618,l)
);
},
{
closed = 1;
nodes = (
(422,618,l)
);
},
{
closed = 1;
nodes = (
(469,366,o),
(512,331,o),
(512,276,cs),
(512,238,o),
(490,204,o),
(452,190,cs),
(382,166,o),
(186,156,o),
(126,154,c),
(122,154,ls),
(74,154,o),
(36,192,o),
(34,240,c),
(34,244,ls),
(34,292,o),
(72,332,o),
(120,334,cs),
(228,338,o),
(364,350,o),
(394,360,cs),
(404,364,o),
(414,366,o),
(424,366,cs)
);
}
);
userData = {
com.fontlab.hintData = {
hhints = (
{
position = 154;
width = 180;
},
{
position = 190;
width = 176;
},
{
position = 428;
width = 186;
},
{
position = 444;
width = 176;
}
);
vhints = (
{
position = 20;
width = 512;
}
);
};
};
width = 552;
}
);
unicode = 61;
},
{
glyphname = greater;
layers = (
{
layerId = master01;
shapes = (
{
closed = 1;
nodes = (
(20,788,o),
(66,828,o),
(110,828,cs),
(126,828,o),
(142,822,o),
(158,814,cs),
(314,715,o),
(495,667,o),
(660,572,cs),
(684,560,o),
(700,538,o),
(706,512,cs),
(706,506,o),
(708,502,o),
(708,496,cs),
(708,476,o),
(700,454,o),
(688,438,cs),
(640,378,o),
(584,328,o),
(526,274,cs),
(452,208,o),
(378,140,o),
(316,48,cs),
(298,22,o),
(270,10,o),
(242,10,cs),
(224,10,o),
(206,14,o),
(190,24,cs),
(166,42,o),
(152,70,o),
(152,98,cs),
(152,116,o),
(158,134,o),
(168,150,cs),
(240,258,o),
(328,338,o),
(404,408,cs),
(426,428,o),
(448,448,o),
(470,468,c),
(327,529,o),
(197,577,o),
(62,660,cs),
(34,676,o),
(20,706,o),
(20,736,cs)
);
}
);
userData = {
com.fontlab.hintData = {
hhints = (
{
position = 10;
width = 21;
}
);
};
};
width = 728;
}
);
unicode = 62;
},
{
glyphname = less;
layers = (
{
layerId = master01;
shapes = (
{
closed = 1;
nodes = (
(566,49,o),
(523,14,o),
(478,14,cs),
(468,14,o),
(458,16,o),
(448,20,cs),
(354,52,o),
(226,152,o),
(46,336,cs),
(28,354,o),
(20,376,o),
(20,398,cs),
(20,420,o),
(28,442,o),
(44,460,cs),
(142,568,o),
(230,646,o),
(340,720,cs),
(356,730,o),
(374,736,o),
(390,736,cs),
(418,736,o),
(446,722,o),
(464,698,cs),
(474,682,o),
(480,664,o),
(480,646,cs),
(480,618,o),
(466,590,o),
(442,572,cs),
(364,520,o),
(302,468,o),
(236,400,c),
(398,244,o),
(474,200,o),
(508,190,cs),
(544,178,o),
(566,142,o),
(566,104,cs)
);
}
);
userData = {
com.fontlab.hintData = {
hhints = (
{
position = 14;
width = 21;
},
{
position = 716;
width = 20;
}
);
};
};
width = 586;
}
);
unicode = 60;
},
{
glyphname = plusminus;
layers = (
{
layerId = master01;
shapes = (
{
closed = 1;
nodes = (
(292,768,o),
(328,810,o),
(382,810,cs),
(424,810,o),
(460,782,o),
(470,742,cs),
(480,700,o),
(488,660,o),
(496,620,c),
(552,624,o),
(612,628,o),
(670,628,cs),
(718,628,o),
(760,588,o),
(760,538,cs),
(760,488,o),
(718,448,o),
(670,448,cs),
(622,448,o),
(576,446,o),
(528,442,c),
(538,386,o),
(544,334,o),
(548,288,c),
(592,290,o),
(636,292,o),
(676,292,cs),
(726,292,o),
(766,250,o),
(766,202,cs),
(766,152,o),
(726,112,o),
(676,112,cs),
(598,112,o),
(504,106,o),
(428,98,cs),
(300,86,o),
(266,68,o),
(264,66,cs),
(262,66,l),
(248,56,o),
(230,52,o),
(214,52,cs),
(167,52,o),
(124,89,o),
(124,142,cs),
(124,172,o),
(138,200,o),
(164,218,cs),
(188,234,o),
(236,256,o),
(368,272,c),
(366,314,o),
(358,364,o),
(350,418,c),
(268,402,o),
(194,384,o),
(138,364,cs),
(130,362,o),
(120,360,o),
(110,360,cs),
(65,360,o),
(20,394,o),
(20,448,cs),
(20,488,o),
(44,522,o),
(82,534,cs),
(142,556,o),
(224,576,o),
(318,594,c),
(310,628,o),
(302,664,o),
(294,700,cs),
(292,708,o),
(292,714,o),
(292,722,cs)
);
}
);
userData = {
com.fontlab.hintData = {
hhints = (
{
position = 112;
width = 180;
},
{
position = 360;
width = 174;
},
{
position = 442;
width = 178;
},
{
position = 448;
width = 180;
}
);
vhints = (
{
position = 292;
width = 178;
}
);
};
};
width = 786;
}
);
unicode = 177;
},
{
glyphname = asciitilde;
layers = (
{
anchors = (
{
name = _top;
pos = (300,338);
}
);
layerId = master01;
shapes = (
{
closed = 1;
nodes = (
(86,332,o),
(62,340,o),
(44,360,cs),
(28,378,o),
(20,400,o),
(20,420,cs),
(20,448,o),
(35,473,o),
(54,492,cs),
(92,526,o),
(138,570,o),
(218,570,cs),
(248,570,o),
(282,564,o),
(324,548,cs),
(326,548,o),
(328,548,o),
(328,546,cs),
(350,536,o),
(366,532,o),
(380,532,cs),
(400,532,o),
(416,540,o),
(436,558,cs),
(454,574,o),
(476,582,o),
(496,582,cs),
(522,582,o),
(546,572,o),
(564,552,cs),
(580,534,o),
(588,512,o),
(588,492,cs),
(588,466,o),
(578,442,o),
(558,424,cs),
(510,382,o),
(462,358,o),
(408,352,cs),
(400,352,o),
(392,352,o),
(384,352,cs),
(344,352,o),
(302,360,o),
(254,382,cs),
(230,392,o),
(218,392,o),
(214,392,cs),
(205,388,o),
(184,368,o),
(172,356,cs),
(154,340,o),
(132,332,o),
(110,332,cs)
);
}
);
userData = {
com.fontlab.hintData = {
hhints = (
{
position = 352;
width = 180;
},
{
position = 392;
width = 178;
}
);
};
};
width = 608;
}
);
unicode = (126,771);
},
{
glyphname = logicalnot;
layers = (
{
layerId = master01;
shapes = (
{
closed = 1;
nodes = (
(641,550,o),
(682,508,o),
(682,460,cs),
(682,458,o),
(682,456,o),
(682,454,cs),
(678,414,o),
(678,374,o),
(678,338,cs),
(678,260,o),
(684,190,o),
(698,122,cs),
(700,116,o),
(700,110,o),
(700,104,cs),
(700,62,o),
(670,24,o),
(628,16,cs),
(622,16,o),
(616,14,o),
(610,14,cs),
(568,14,o),
(530,44,o),
(522,86,cs),
(506,166,o),
(498,248,o),
(498,336,cs),
(498,346,o),
(498,356,o),
(498,366,c),
(448,364,o),
(394,362,o),
(338,362,cs),
(266,362,o),
(186,366,o),
(102,372,cs),
(56,376,o),
(20,416,o),
(20,462,cs),
(20,470,l),
(24,516,o),
(64,552,o),
(110,552,cs),
(118,552,l),
(194,546,o),
(264,544,o),
(332,544,cs),
(406,544,o),
(476,546,o),
(542,548,cs),
(558,550,o),
(574,550,o),
(588,550,cs),
(590,550,o),
(592,550,o),
(594,550,cs)
);
}
);
userData = {
com.fontlab.hintData = {
hhints = (
{
position = 14;
width = 21;
},
{
position = 362;
width = 182;
},
{
position = 372;
width = 180;
}
);
vhints = (
{
position = 498;
width = 180;
}
);
};
};
width = 720;
}
);
unicode = 172;
},
{
glyphname = asciicircum;
layers = (
{
anchors = (
{
name = _top;
pos = (346,342);
}
);
layerId = master01;
shapes = (
{
closed = 1;
nodes = (
(666,389,o),
(627,344,o),
(576,344,cs),
(546,344,o),
(518,358,o),
(500,384,cs),
(488,404,o),
(450,446,o),
(342,536,c),
(290,474,o),
(238,402,o),
(186,322,cs),
(170,294,o),
(140,280,o),
(110,280,cs),
(57,280,o),
(20,324,o),
(20,370,cs),
(20,386,o),
(24,404,o),
(34,418,cs),
(110,536,o),
(188,638,o),
(266,720,cs),
(284,738,o),
(308,746,o),
(330,746,cs),
(350,746,o),
(370,740,o),
(386,728,cs),
(574,584,o),
(626,520,o),
(650,484,cs),
(660,468,o),
(666,452,o),
(666,434,cs)
);
}
);
userData = {
com.fontlab.hintData = {
hhints = (
{
position = 726;
width = 20;
}
);
};
};
width = 686;
}
);
unicode = (94,770);
},
{
glyphname = mu;
layers = (
{
layerId = master01;
shapes = (
{
closed = 1;
nodes = (
(385,-14,o),
(351,-5,o),
(324,10,c),
(288,-100,o),
(244,-204,o),
(188,-302,cs),
(172,-332,o),
(142,-350,o),
(110,-350,cs),
(57,-350,o),
(20,-306,o),
(20,-260,cs),
(20,-246,o),
(24,-230,o),
(32,-216,cs),
(134,-32,o),
(194,160,o),
(242,444,cs),
(250,488,o),
(288,518,o),
(332,518,cs),
(336,518,o),
(340,518,o),
(344,518,cs),
(388,510,o),
(420,472,o),
(420,428,cs),
(420,418,l),
(416,380,o),
(414,346,o),
(414,316,cs),
(414,246,o),
(422,194,o),
(428,164,c),
(438,164,o),
(456,166,o),
(484,170,c),
(540,196,o),
(572,268,o),
(576,382,cs),
(580,430,o),
(618,468,o),
(666,468,cs),
(668,468,ls),
(716,468,o),
(756,428,o),
(756,380,cs),
(760,264,o),
(780,186,o),
(816,148,cs),
(832,130,o),
(840,108,o),
(840,86,cs),
(840,62,o),
(830,38,o),
(812,20,cs),
(794,4,o),
(772,-2,o),
(750,-2,cs),
(726,-2,o),
(702,6,o),
(684,26,cs),
(672,40,o),
(660,54,o),
(650,72,c),
(614,34,o),
(576,12,o),
(540,-2,cs),
(534,-4,o),
(528,-4,o),
(522,-6,cs),
(492,-10,o),
(460,-14,o),
(428,-14,cs)
);
}
);
userData = {
com.fontlab.hintData = {
hhints = (
{
position = -14;
width = 178;
},
{
position = -2;
width = 21;
},
{
position = 498;
width = 20;
}
);
vhints = (
{
position = 576;
width = 180;
}
);
};
};
width = 860;
}
);
unicode = 181;
},
{
glyphname = percent;
layers = (
{
layerId = master01;
shapes = (
{
closed = 1;
nodes = (
(41,867,o),
(129,957,o),
(288,957,cs),
(314,957,o),
(340,955,o),
(368,951,cs),
(374,949,o),
(382,947,o),
(390,945,cs),
(462,912,o),
(535,907,o),
(603,907,cs),
(630,907,o),
(655,908,o),
(680,908,cs),
(740,908,o),
(798,918,o),
(848,940,cs),
(860,944,o),
(870,946,o),
(882,946,cs),
(912,946,o),
(940,932,o),
(958,908,cs),
(968,892,o),
(972,876,o),
(972,858,cs),
(972,836,o),
(964,812,o),
(946,794,cs),
(844,692,o),
(688,402,o),
(470,44,cs),
(454,16,o),
(424,2,o),
(394,2,cs),
(340,2,o),
(302,48,o),
(302,92,cs),
(302,108,o),
(308,124,o),
(316,138,cs),
(454,364,o),
(568,602,o),
(660,728,c),
(640,728,o),
(620,727,o),
(599,727,cs),
(578,727,o),
(557,728,o),
(536,731,c),
(518,669,o),
(488,589,o),
(444,543,cs),
(390,483,o),
(324,451,o),
(262,451,cs),
(246,451,ls),
(238,451,o),
(230,453,o),
(224,455,cs),
(152,479,o),
(104,511,o),
(72,553,cs),
(32,603,o),
(24,661,o),
(20,707,cs),
(20,713,o),
(20,719,o),
(20,725,cs)
);
},
{
closed = 1;
nodes = (
(204,679,o),
(210,669,o),
(214,663,cs),
(222,653,o),
(240,641,o),
(266,631,c),
(276,635,o),
(294,645,o),
(314,667,cs),
(328,683,o),
(352,713,o),
(364,759,c),
(350,765,o),
(338,771,o),
(328,775,cs),
(314,777,o),
(300,777,o),
(288,777,cs),
(229,777,o),
(212,760,o),
(200,709,c)
);
},
{
closed = 1;
nodes = (
(813,29,o),
(706,84,o),
(706,242,cs),
(706,246,o),
(706,250,o),
(706,254,cs),
(708,306,o),
(726,373,o),
(760,411,cs),
(786,439,o),
(818,461,o),
(860,477,cs),
(920,503,o),
(978,505,o),
(984,505,c),
(986,475,l),
(1002,483,o),
(1020,485,o),
(1040,485,cs),
(1080,485,o),
(1122,471,o),
(1164,443,cs),
(1220,405,o),
(1276,320,o),
(1276,244,cs),
(1276,234,o),
(1274,222,o),
(1272,212,cs),
(1264,172,o),
(1240,116,o),
(1160,66,cs),
(1112,38,o),
(1028,2,o),
(962,2,cs),
(946,2,o),
(936,4,o),
(930,6,cs),
(928,6,o),
(924,8,o),
(918,8,cs)
);
},
{
closed = 1;
nodes = (
(980,178,l)
);
},
{
closed = 1;
nodes = (
(962,182,l)
);
},
{
closed = 1;
nodes = (
(948,319,o),
(936,315,o),
(924,309,cs),
(886,293,o),
(886,258,o),
(884,246,cs),
(884,208,o),
(890,198,o),
(954,184,cs),
(958,184,o),
(964,182,o),
(968,182,cs),
(980,184,o),
(1008,192,o),
(1040,206,cs),
(1074,222,o),
(1088,236,o),
(1094,244,c),
(1092,248,o),
(1084,275,o),
(1072,285,cs),
(1062,295,o),
(1050,301,o),
(1042,305,c),
(1034,301,o),
(1024,301,o),
(1014,301,cs),
(994,301,o),
(974,307,o),
(960,321,c)
);
}
);
userData = {
com.fontlab.hintData = {
hhints = (
{
position = 2;
width = 180;
},
{
position = 485;
width = 20;
},
{
position = 727;
width = 180;
},
{
position = 777;
width = 180;
},
{
position = 926;
width = 20;
}
);
vhints = (
{
position = 706;
width = 178;
}
);
};
};
width = 1296;
}
);
unicode = 37;
},
{
glyphname = gravecomb;
layers = (
{
layerId = master01;
shapes = (
{
closed = 1;
nodes = (
(302,-12,o),
(280,-6,o),
(264,10,cs),
(136,120,o),
(96,132,o),
(90,132,cs),
(48,142,o),
(20,180,o),
(20,222,cs),
(20,228,o),
(20,234,o),
(22,240,cs),
(30,282,o),
(68,310,o),
(110,310,cs),
(118,310,o),
(124,310,o),
(130,308,cs),
(190,296,o),
(264,246,o),
(382,146,cs),
(402,128,o),
(414,104,o),
(414,78,cs),
(414,58,o),
(406,36,o),
(390,18,cs),
(374,-2,o),
(348,-12,o),
(322,-12,cs)
);
}
);
userData = {
com.fontlab.hintData = {
hhints = (
{
position = -12;
width = 322;
}
);
};
};
width = 434;
}
);
unicode = 768;
},
{
glyphname = dieresis;
layers = (
{
anchors = (
{
name = _top;
pos = (320,520);
}
);
layerId = master01;
shapes = (
{
closed = 1;
nodes = (
(20,691,o),
(64,728,o),
(108,728,cs),
(124,728,o),
(140,722,o),
(156,714,c),
(208,684,ls),
(238,666,o),
(254,638,o),
(254,606,cs),
(254,592,o),
(248,574,o),
(240,560,cs),
(224,532,o),
(194,516,o),
(162,516,cs),
(148,516,o),
(132,520,o),
(118,528,cs),
(64,560,l),
(36,578,o),
(20,608,o),
(20,638,cs)
);
},
{
closed = 1;
nodes = (
(560,575,o),
(519,534,o),
(470,534,cs),
(446,534,o),
(424,542,o),
(406,560,cs),
(374,592,ls),
(356,610,o),
(348,632,o),
(348,656,cs),
(348,680,o),
(356,702,o),
(374,720,cs),
(392,736,o),
(414,746,o),
(438,746,cs),
(460,746,o),
(484,736,o),
(502,720,c),
(534,688,ls),
(552,670,o),
(560,648,o),
(560,624,cs)
);
}
);
userData = {
com.fontlab.hintData = {
hhints = (
{
position = 516;
width = 212;
},
{
position = 534;
width = 212;
}
);
vhints = (
{
position = 20;
width = 234;
},
{
position = 348;
width = 212;
}
);
};
};
width = 580;
}
);
unicode = (168,776);
},
{
glyphname = grave;
layers = (
{
layerId = master01;
shapes = (
{
closed = 1;
nodes = (
(20,720,o),
(63,754,o),
(110,754,cs),
(118,754,o),
(124,754,o),
(130,752,cs),
(190,740,o),
(264,690,o),
(382,590,cs),
(402,572,o),
(414,548,o),
(414,522,cs),
(414,502,o),
(406,480,o),
(390,462,cs),
(374,442,o),
(348,432,o),
(322,432,cs),
(302,432,o),
(280,438,o),
(264,454,cs),
(136,564,o),
(96,576,o),
(90,576,cs),
(48,586,o),
(20,624,o),
(20,666,cs)
);
}
);
userData = {
com.fontlab.hintData = {
hhints = (
{
position = 432;
width = 322;
}
);
};
};
width = 434;
}
);
unicode = 96;
},
{
glyphname = acute;
layers = (
{
anchors = (
{
name = _top;
pos = (112,610);
}
);
layerId = master01;
shapes = (
{
closed = 1;
nodes = (
(311,972,o),
(356,936,o),
(356,884,cs),
(356,854,o),
(342,826,o),
(316,808,cs),
(254,764,o),
(224,726,o),
(188,664,cs),
(170,636,o),
(140,620,o),
(110,620,cs),
(56,620,o),
(20,666,o),
(20,712,cs),
(20,726,o),
(24,742,o),
(32,756,cs),
(80,834,o),
(126,896,o),
(216,956,cs),
(232,966,o),
(250,972,o),
(268,972,cs)
);
}
);
userData = {
com.fontlab.hintData = {
hhints = (
{
position = 952;
width = 20;
}
);
};
};
width = 376;
}
);
unicode = (180,769);
},
{
glyphname = macron;
layers = (
{
layerId = master01;
shapes = (
{
closed = 1;
nodes = (
(66,346,o),
(26,378,o),
(20,424,c),
(20,434,ls),
(20,480,o),
(54,518,o),
(98,524,cs),
(282,548,o),
(588,554,o),
(794,554,cs),
(844,554,o),
(884,514,o),
(884,464,cs),
(884,414,o),
(844,374,o),
(794,374,cs),
(576,374,o),
(284,366,o),
(122,346,cs),
(118,346,o),
(114,346,o),
(110,346,cs)
);
}
);
userData = {
com.fontlab.hintData = {
hhints = (
{
position = 346;
width = 178;
},
{
position = 374;
width = 180;
}
);
};
};
width = 904;
}
);
unicode = 175;
},
